<svg width="181" height="132" viewBox="0 0 181 132" fill="none" xmlns="http://www.w3.org/2000/svg">
<path d="M136.533 66.323H110.129C109.755 66.3236 109.397 66.4724 109.133 66.7369C108.87 67.0014 108.722 67.3598 108.722 67.7333V109.445H137.944V67.7333C137.944 67.5481 137.907 67.3647 137.837 67.1935C137.766 67.0223 137.662 66.8668 137.531 66.7359C137.4 66.6049 137.244 66.501 137.073 66.4302C136.902 66.3593 136.719 66.3229 136.533 66.323ZM123.42 90.023C122.594 90.0192 121.803 89.6895 121.219 89.1056C120.635 88.5217 120.306 87.7308 120.302 86.9051V82.094C120.302 81.2671 120.63 80.474 121.215 79.8893C121.8 79.3046 122.593 78.9761 123.42 78.9761C124.247 78.9761 125.04 79.3046 125.625 79.8893C126.209 80.474 126.538 81.2671 126.538 82.094V86.9051C126.534 87.7308 126.204 88.5217 125.62 89.1056C125.036 89.6895 124.246 90.0192 123.42 90.023V90.023Z" fill="#E6E6E6"/>
<path d="M177.342 0H64.4721C63.5024 0.00154273 62.5728 0.387445 61.8871 1.07314C61.2014 1.75884 60.8155 2.68841 60.814 3.65814V79.8231C60.8149 80.793 61.2006 81.723 61.8864 82.4088C62.5723 83.0946 63.5022 83.4803 64.4721 83.4813H177.342C178.312 83.4803 179.242 83.0946 179.928 82.4088C180.613 81.723 180.999 80.793 181 79.8231V3.65814C180.998 2.68841 180.613 1.75884 179.927 1.07314C179.241 0.387445 178.312 0.00154212 177.342 0Z" fill="#E6E6E6"/>
<path d="M176.498 2.74316H65.5139C64.9945 2.7444 64.4968 2.95158 64.13 3.31926C63.7632 3.68695 63.5572 4.18511 63.5571 4.70448V78.981C63.5577 79.4997 63.7641 79.9971 64.1309 80.3639C64.4977 80.7308 64.9951 80.9371 65.5139 80.9377H176.498C177.016 80.9371 177.514 80.7308 177.881 80.3639C178.247 79.9971 178.454 79.4997 178.454 78.981V4.70448C178.454 4.18511 178.248 3.68694 177.882 3.31926C177.515 2.95157 177.017 2.7444 176.498 2.74316V2.74316Z" fill="white"/>
<path d="M173.736 14.1034H69.8882C69.7802 14.1011 69.6773 14.0566 69.6018 13.9794C69.5262 13.9022 69.4839 13.7985 69.4839 13.6904C69.4839 13.5824 69.5262 13.4787 69.6018 13.4015C69.6773 13.3243 69.7802 13.2798 69.8882 13.2775H173.736C173.844 13.2798 173.947 13.3243 174.022 13.4015C174.098 13.4787 174.14 13.5824 174.14 13.6904C174.14 13.7985 174.098 13.9022 174.022 13.9794C173.947 14.0566 173.844 14.1011 173.736 14.1034V14.1034Z" fill="#CACACA"/>
<path d="M76.9571 11.1688C78.2937 11.1688 79.3773 10.0611 79.3773 8.69462C79.3773 7.32818 78.2937 6.22046 76.9571 6.22046C75.6204 6.22046 74.5369 7.32818 74.5369 8.69462C74.5369 10.0611 75.6204 11.1688 76.9571 11.1688Z" fill="#3F3D56"/>
<path d="M85.3179 11.1688C86.6546 11.1688 87.7381 10.0611 87.7381 8.69462C87.7381 7.32818 86.6546 6.22046 85.3179 6.22046C83.9813 6.22046 82.8977 7.32818 82.8977 8.69462C82.8977 10.0611 83.9813 11.1688 85.3179 11.1688Z" fill="#3F3D56"/>
<path d="M93.6788 11.1688C95.0154 11.1688 96.099 10.0611 96.099 8.69462C96.099 7.32818 95.0154 6.22046 93.6788 6.22046C92.3421 6.22046 91.2585 7.32818 91.2585 8.69462C91.2585 10.0611 92.3421 11.1688 93.6788 11.1688Z" fill="#3F3D56"/>
<path d="M168.702 6.83374H162.763C162.645 6.83608 162.533 6.8845 162.451 6.96857C162.368 7.05265 162.322 7.16569 162.322 7.28343C162.322 7.40117 162.368 7.51422 162.451 7.5983C162.533 7.68238 162.645 7.73078 162.763 7.73312H168.702C168.82 7.73078 168.932 7.68238 169.014 7.5983C169.097 7.51422 169.143 7.40117 169.143 7.28343C169.143 7.16569 169.097 7.05265 169.014 6.96857C168.932 6.8845 168.82 6.83608 168.702 6.83374Z" fill="#3F3D56"/>
<path d="M168.702 8.52173H162.763C162.645 8.52407 162.533 8.57248 162.451 8.65656C162.368 8.74064 162.322 8.85368 162.322 8.97142C162.322 9.08916 162.368 9.20221 162.451 9.28629C162.533 9.37036 162.645 9.41877 162.763 9.42111H168.702C168.82 9.41877 168.932 9.37036 169.014 9.28629C169.097 9.20221 169.143 9.08916 169.143 8.97142C169.143 8.85368 169.097 8.74064 169.014 8.65656C168.932 8.57248 168.82 8.52407 168.702 8.52173Z" fill="#3F3D56"/>
<path d="M168.702 10.2075H162.763C162.645 10.2099 162.533 10.2583 162.451 10.3424C162.368 10.4264 162.322 10.5395 162.322 10.6572C162.322 10.775 162.368 10.888 162.451 10.9721C162.533 11.0562 162.645 11.1046 162.763 11.1069H168.702C168.82 11.1046 168.932 11.0562 169.014 10.9721C169.097 10.888 169.143 10.775 169.143 10.6572C169.143 10.5395 169.097 10.4264 169.014 10.3424C168.932 10.2583 168.82 10.2099 168.702 10.2075Z" fill="#3F3D56"/>
<path d="M109.024 54.0124C112.241 56.1955 115.404 57.1466 116.09 56.1367C116.775 55.1269 114.723 52.5385 111.506 50.3553C108.289 48.1722 105.126 47.2211 104.44 48.231C103.755 49.2408 105.807 51.8293 109.024 54.0124Z" fill="#2F2E41"/>
<path d="M124.912 63.8175C132.688 63.8175 138.991 57.5143 138.991 49.739C138.991 41.9637 132.688 35.6605 124.912 35.6605C117.137 35.6605 110.834 41.9637 110.834 49.739C110.834 57.5143 117.137 63.8175 124.912 63.8175Z" fill="#2F2E41"/>
<path d="M124.556 50.9865C127.213 50.9865 129.367 48.8323 129.367 46.1749C129.367 43.5175 127.213 41.3633 124.556 41.3633C121.898 41.3633 119.744 43.5175 119.744 46.1749C119.744 48.8323 121.898 50.9865 124.556 50.9865Z" fill="white"/>
<path d="M124.229 50.067C125.115 50.067 125.833 49.3489 125.833 48.4631C125.833 47.5773 125.115 46.8593 124.229 46.8593C123.343 46.8593 122.625 47.5773 122.625 48.4631C122.625 49.3489 123.343 50.067 124.229 50.067Z" fill="#3F3D56"/>
<path d="M138.569 36.6464C139.706 31.5555 136.072 26.4112 130.452 25.1565C124.833 23.9017 119.356 27.0116 118.22 32.1026C117.083 37.1936 120.807 39.0712 126.426 40.326C132.045 41.5807 137.432 41.7374 138.569 36.6464Z" fill="#7364CE"/>
<path d="M141.553 61.9623C142.651 61.4297 142.166 58.1623 140.47 54.6643C138.773 51.1662 136.508 48.7622 135.41 49.2948C134.312 49.8273 134.797 53.0948 136.493 56.5928C138.189 60.0908 140.455 62.4948 141.553 61.9623Z" fill="#2F2E41"/>
<path d="M131.828 54.818C131.828 56.1959 128.28 58.9168 124.343 58.9168C120.406 58.9168 116.715 55.0375 116.715 53.6596C116.715 52.2818 120.406 53.927 124.343 53.927C128.28 53.927 131.828 53.4401 131.828 54.818Z" fill="white"/>
<path d="M63.5466 63.9085C61.3468 62.0943 64.2482 54.9432 70.027 47.936C75.8058 40.9288 82.2737 36.7189 84.4735 38.5331C86.6733 40.3472 83.7719 47.4983 77.9931 54.5056C72.2143 61.5128 65.7464 65.7226 63.5466 63.9085Z" fill="#2F2E41"/>
<path d="M40.1081 116.515C22.1773 113.605 10.0003 96.7107 12.9101 78.7798C15.8198 60.849 32.7145 48.6719 50.6454 51.5817C68.5762 54.4915 80.7532 71.3862 77.8434 89.3171C74.9337 107.248 58.039 119.425 40.1081 116.515Z" fill="#2F2E41"/>
<path d="M30.3883 109.862H40.3806V127.765H30.3883V109.862Z" fill="#2F2E41"/>
<path d="M50.3729 109.862H60.3652V127.765H50.3729V109.862Z" fill="#2F2E41"/>
<path d="M38.7153 131.095C34.1164 131.095 30.3883 129.697 30.3883 127.973C30.3883 126.248 34.1164 124.85 38.7153 124.85C43.3141 124.85 47.0422 126.248 47.0422 127.973C47.0422 129.697 43.3141 131.095 38.7153 131.095Z" fill="#2F2E41"/>
<path d="M58.6999 130.679C54.1011 130.679 50.373 129.281 50.373 127.556C50.373 125.832 54.1011 124.434 58.6999 124.434C63.2988 124.434 67.0269 125.832 67.0269 127.556C67.0269 129.281 63.2988 130.679 58.6999 130.679Z" fill="#2F2E41"/>
<path d="M33.861 66.4992C44.2306 57.9308 49.994 50.0741 42.2312 40.6795C34.4683 31.2849 19.769 30.6153 9.39954 39.1837C-0.969965 47.7522 -3.08304 62.3142 4.67985 71.7088C12.4427 81.1034 23.4915 75.0677 33.861 66.4992Z" fill="white"/>
<path d="M56.4185 78.2173C50.2127 78.0349 45.3299 72.8563 45.5122 66.6506C45.6946 60.4448 50.8731 55.5619 57.0789 55.7443C63.2847 55.9266 68.1676 61.1052 67.9852 67.311C67.8029 73.5167 62.6243 78.3996 56.4185 78.2173Z" fill="white"/>
<path d="M60.6996 67.9435C58.6301 67.9435 56.9525 66.2658 56.9525 64.1964C56.9525 62.1269 58.6301 60.4492 60.6996 60.4492C62.7691 60.4492 64.4468 62.1269 64.4468 64.1964C64.4468 66.2658 62.7691 67.9435 60.6996 67.9435Z" fill="#3F3D56"/>
<path d="M73.7402 76.2392C76.0165 78.5155 77.6259 85.8959 74.424 89.0978C71.2221 92.2997 61.8114 88.8933 59.5352 86.617C57.2589 84.3407 62.9789 84.0565 66.1808 80.8546C69.3827 77.6527 71.4639 73.9629 73.7402 76.2392Z" fill="white"/>
<path d="M14.1552 128.033C11.4918 127.015 11.9615 119.312 15.2043 110.828C18.4471 102.344 23.235 96.2911 25.8984 97.3091C28.5618 98.3271 28.0922 106.03 24.8494 114.514C21.6066 122.998 16.8187 129.051 14.1552 128.033Z" fill="#2F2E41"/>
<line x1="95" y1="109.4" x2="151" y2="109.4" stroke="#E6E6E6" stroke-width="1.2"/>
</svg>
