<svg width="60" height="58" viewBox="0 0 60 58" fill="none" xmlns="http://www.w3.org/2000/svg">
<g filter="url(#filter0_d_182_629)">
<path fill-rule="evenodd" clip-rule="evenodd" d="M3.42522 54.9883C6.43939 27.7814 30.271 13.789 55.523 9.91823C55.9566 9.85093 56.2559 9.44475 56.1886 9.01115C56.1213 8.57756 55.7152 8.27829 55.2816 8.34559C29.3221 12.3233 4.94239 26.845 1.84422 54.8142C1.79508 55.2498 2.11008 55.6427 2.54772 55.6918C2.98335 55.7409 3.37615 55.4259 3.42522 54.9883Z" fill="#FFEA8D"/>
<path fill-rule="evenodd" clip-rule="evenodd" d="M54.928 9.20427C53.829 10.0681 52.4378 11.137 52.2835 11.2629C48.101 14.6747 44.6719 18.5525 41.6909 23.0656C41.4484 23.4316 41.55 23.9263 41.9161 24.1687C42.2821 24.4112 42.7767 24.3096 43.0191 23.9435C45.9085 19.5662 49.2331 15.8045 53.2906 12.4955C53.527 12.3024 56.6558 9.90158 57.252 9.36859C57.4976 9.15114 57.569 8.95178 57.5813 8.90314C57.6568 8.64739 57.5998 8.4505 57.5265 8.3084C57.4426 8.1486 57.2398 7.91857 56.8584 7.81129C56.4588 7.70063 55.578 7.67497 55.3562 7.65054C52.0103 7.27261 48.243 7.14236 44.7891 6.31418C41.4951 5.52463 38.4825 4.09855 36.4779 1.1006C36.2342 0.735414 35.7386 0.638122 35.3735 0.881835C35.0083 1.12555 34.9109 1.6211 35.1546 1.98629C37.3965 5.33759 40.7362 6.97936 44.417 7.86194C47.8507 8.6848 51.5846 8.84032 54.928 9.20427Z" fill="#FFEA8D"/>
</g>
<defs>
<filter id="filter0_d_182_629" x="1.83936" y="0.747559" width="55.7778" height="56.9492" filterUnits="userSpaceOnUse" color-interpolation-filters="sRGB">
<feFlood flood-opacity="0" result="BackgroundImageFix"/>
<feColorMatrix in="SourceAlpha" type="matrix" values="0 0 0 0 0 0 0 0 0 0 0 0 0 0 0 0 0 0 127 0" result="hardAlpha"/>
<feOffset dy="2"/>
<feComposite in2="hardAlpha" operator="out"/>
<feColorMatrix type="matrix" values="0 0 0 0 0 0 0 0 0 0 0 0 0 0 0 0 0 0 0.25 0"/>
<feBlend mode="normal" in2="BackgroundImageFix" result="effect1_dropShadow_182_629"/>
<feBlend mode="normal" in="SourceGraphic" in2="effect1_dropShadow_182_629" result="shape"/>
</filter>
</defs>
</svg>
