<svg width="76" height="111" viewBox="0 0 76 111" fill="none" xmlns="http://www.w3.org/2000/svg">
<path d="M0.318273 105.819C0.140285 106.628 0.651887 107.429 1.46097 107.607L14.6457 110.507C15.4548 110.685 16.255 110.174 16.4329 109.364C16.6109 108.555 16.0993 107.755 15.2903 107.577L3.57049 104.999L6.1487 93.2792C6.32669 92.4701 5.81509 91.67 5.00601 91.492C4.19693 91.314 3.39675 91.8256 3.21876 92.6347L0.318273 105.819ZM43.6089 24.4191L43.3106 25.8892L43.6089 24.4191ZM28.1003 85.6317L29.263 86.5794L28.1003 85.6317ZM74 33.4999L75.5 33.4999L74 33.4999ZM21.8298 59.5792L20.5531 60.3665L21.8298 59.5792ZM1.78324 106.142C2.59125 107.405 2.59127 107.405 2.59129 107.405C2.5913 107.405 2.59132 107.405 2.59134 107.405C2.59138 107.405 2.59143 107.405 2.59148 107.405C2.5916 107.405 2.59176 107.405 2.59196 107.405C2.59235 107.405 2.5929 107.404 2.5936 107.404C2.59502 107.403 2.59705 107.402 2.59971 107.4C2.60503 107.397 2.61283 107.392 2.62306 107.385C2.64352 107.372 2.67372 107.353 2.71327 107.327C2.79235 107.276 2.90885 107.201 3.05968 107.103C3.36134 106.908 3.80042 106.622 4.35239 106.258L2.70194 103.753C2.15661 104.112 1.72373 104.394 1.42775 104.586C1.27977 104.682 1.16602 104.755 1.08958 104.804C1.05136 104.829 1.02247 104.848 1.00328 104.86C0.993689 104.866 0.986523 104.871 0.981833 104.874C0.979489 104.875 0.977762 104.876 0.976661 104.877C0.97611 104.877 0.975716 104.878 0.975478 104.878C0.975359 104.878 0.975279 104.878 0.97524 104.878C0.97522 104.878 0.97521 104.878 0.97521 104.878C0.975209 104.878 0.975216 104.878 0.975215 104.878C0.975225 104.878 0.975237 104.878 1.78324 106.142ZM7.84661 103.917C8.90478 103.197 10.0751 102.39 11.3111 101.521L9.58585 99.0667C8.36371 99.9258 7.20587 100.724 6.15853 101.437L7.84661 103.917ZM14.7324 99.0726C15.8503 98.2574 16.9866 97.4127 18.1126 96.5535L16.2929 94.1685C15.1864 95.0127 14.0677 95.8444 12.9648 96.6487L14.7324 99.0726ZM21.4377 93.9428C22.5716 93.0235 23.6655 92.1026 24.6848 91.1979L22.6934 88.9541C21.7139 89.8235 20.6551 90.7152 19.5485 91.6123L21.4377 93.9428ZM27.7965 88.2283C28.3324 87.6677 28.8255 87.1161 29.263 86.5794L26.9376 84.684C26.5599 85.1473 26.1214 85.6391 25.6279 86.1553L27.7965 88.2283ZM29.263 86.5794C29.6872 86.0589 30.1174 85.5253 30.5526 84.9795L28.2069 83.1093C27.7784 83.6467 27.3549 84.172 26.9376 84.684L29.263 86.5794ZM33.0855 81.7343C33.9027 80.6651 34.7295 79.5616 35.5591 78.4297L33.1395 76.6562C32.322 77.7715 31.5073 78.8589 30.702 79.9125L33.0855 81.7343ZM37.9595 75.0842C38.7426 73.9687 39.5227 72.8328 40.2942 71.6816L37.802 70.0115C37.0431 71.144 36.2753 72.262 35.5041 73.3605L37.9595 75.0842ZM42.5508 68.228C43.2903 67.0662 44.0161 65.8938 44.7229 64.7158L42.1503 63.1724C41.458 64.3264 40.7461 65.4763 40.0199 66.6173L42.5508 68.228ZM46.7998 61.1351C47.4801 59.9191 48.1348 58.7017 48.758 57.4881L46.0892 56.1178C45.4836 57.2972 44.8459 58.4831 44.1817 59.6704L46.7998 61.1351ZM50.5811 53.7457C51.1734 52.4569 51.7228 51.1773 52.2215 49.9135L49.431 48.8122C48.9544 50.0198 48.427 51.2488 47.8552 52.493L50.5811 53.7457ZM53.6272 45.9565C54.0647 44.5586 54.4267 43.1857 54.7001 41.8483L51.7609 41.2474C51.5106 42.4716 51.1756 43.7455 50.7641 45.0606L53.6272 45.9565ZM55.2637 37.5716C55.3407 36.0332 55.2616 34.5497 54.9921 33.1479L52.046 33.7144C52.2624 34.8399 52.3346 36.0784 52.2675 37.4217L55.2637 37.5716ZM53.3519 28.837C52.5436 27.5321 51.474 26.3962 50.1293 25.4587L48.4136 27.9197C49.4294 28.6279 50.2126 29.466 50.8015 30.4167L53.3519 28.837ZM46.0484 23.4989C45.372 23.2849 44.6584 23.1015 43.9072 22.9491L43.3106 25.8892C43.9654 26.022 44.5755 26.1795 45.1433 26.3592L46.0484 23.4989ZM43.9072 22.9491C43.1574 22.7969 42.4228 22.6836 41.7033 22.6077L41.3883 25.5911C42.01 25.6567 42.6506 25.7552 43.3106 25.8892L43.9072 22.9491ZM37.1914 22.6317C35.6234 22.8262 34.1547 23.2168 32.786 23.7752L33.9191 26.553C35.0435 26.0943 36.2553 25.7708 37.5607 25.6089L37.1914 22.6317ZM28.8378 26.031C27.6376 26.9374 26.5542 27.9838 25.5822 29.1312L27.8712 31.0704C28.7144 30.0751 29.639 29.1853 30.6458 28.425L28.8378 26.031ZM23.0393 32.7589C22.3075 34.0186 21.6697 35.3427 21.1213 36.7011L23.9032 37.8242C24.4031 36.586 24.9795 35.3914 25.6334 34.2658L23.0393 32.7589ZM19.7443 40.8301C19.3644 42.2443 19.0694 43.6693 18.856 45.0762L21.8221 45.526C22.0191 44.2268 22.2915 42.9116 22.6416 41.6086L19.7443 40.8301ZM18.4503 49.4039C18.3976 50.9323 18.4464 52.4078 18.5955 53.7867L21.5781 53.4643C21.4458 52.2404 21.4002 50.9079 21.4485 49.5073L18.4503 49.4039ZM19.5371 58.1878C19.8143 58.9782 20.1505 59.7137 20.5531 60.3665L23.1066 58.7919C22.8382 58.3567 22.5886 57.8238 22.368 57.1949L19.5371 58.1878ZM20.5531 60.3665C20.9444 61.0012 21.385 61.5862 21.871 62.1222L24.0935 60.1072C23.7318 59.7082 23.4018 59.2706 23.1066 58.7919L20.5531 60.3665ZM25.3178 64.7626C26.5471 65.4048 27.8893 65.8663 29.308 66.1696L29.9351 63.2359C28.7451 62.9815 27.6647 62.604 26.7069 62.1036L25.3178 64.7626ZM33.401 66.6233C34.7085 66.6502 36.0594 66.5775 37.4373 66.4154L37.0867 63.4359C35.8303 63.5838 34.6178 63.6477 33.4625 63.624L33.401 66.6233ZM41.3774 65.7297C42.6447 65.4415 43.9261 65.0877 45.2106 64.674L44.2908 61.8185C43.085 62.2068 41.8886 62.5368 40.7121 62.8044L41.3774 65.7297ZM48.9192 63.3175C50.126 62.8236 51.3282 62.2805 52.5169 61.6924L51.1865 59.0035C50.0603 59.5607 48.9229 60.0745 47.783 60.5409L48.9192 63.3175ZM55.9873 59.8237C57.1226 59.1612 58.2373 58.4584 59.3229 57.719L57.6341 55.2395C56.607 55.9391 55.5513 56.6047 54.4752 57.2327L55.9873 59.8237ZM62.5038 55.3789C63.5457 54.5509 64.5492 53.6877 65.5049 52.7931L63.4547 50.603C62.5609 51.4397 61.6189 52.2502 60.6373 53.0302L62.5038 55.3789ZM68.2796 49.9508C69.1794 48.9373 70.0159 47.8912 70.7768 46.8169L68.3287 45.0829C67.636 46.0609 66.8687 47.0213 66.0362 47.959L68.2796 49.9508ZM72.8923 43.3783C73.5328 42.1547 74.0709 40.9007 74.4889 39.6226L71.6375 38.6901C71.2757 39.7966 70.8048 40.8975 70.2344 41.9869L72.8923 43.3783ZM75.3808 35.5854C75.4594 34.894 75.5 34.1984 75.5 33.4999L72.5 33.4999C72.5 34.0821 72.4662 34.6644 72.4 35.2463L75.3808 35.5854ZM75.5 33.4999C75.5 32.7241 75.4751 31.9567 75.4273 31.1984L72.4333 31.3869C72.4771 32.0839 72.5 32.7884 72.5 33.4999L75.5 33.4999ZM74.8626 26.6466C74.5797 25.1144 74.2126 23.6301 73.782 22.2004L70.9095 23.0655C71.3106 24.3972 71.6508 25.7744 71.9124 27.1913L74.8626 26.6466ZM72.2481 17.9061C71.6496 16.4582 70.9988 15.0834 70.3228 13.7901L67.6641 15.1799C68.3021 16.4004 68.9142 17.6939 69.4756 19.0521L72.2481 17.9061ZM68.0554 9.85956C67.1774 8.47097 66.3041 7.22223 65.4877 6.1298L63.0846 7.9257C63.8592 8.96213 64.6875 10.1466 65.5197 11.4628L68.0554 9.85956ZM62.6251 2.60548C62.1486 2.06777 61.7586 1.65224 61.4849 1.36837C61.348 1.22641 61.2402 1.11731 61.165 1.04224C61.1274 1.0047 61.098 0.97567 61.0772 0.95529C61.0668 0.945096 61.0586 0.937072 61.0526 0.931224C61.0496 0.928297 61.0471 0.925918 61.0453 0.924084C61.0443 0.923173 61.0435 0.922392 61.0428 0.921748C61.0425 0.921429 61.0422 0.921144 61.0419 0.920888C61.0418 0.920766 61.0417 0.920644 61.0416 0.920536C61.0415 0.920479 61.0414 0.920405 61.0414 0.920377C61.0413 0.920304 61.0413 0.920234 60.0001 2C58.9589 3.07977 58.9588 3.0797 58.9587 3.07963C58.9587 3.07961 58.9586 3.07955 58.9586 3.07951C58.9585 3.07944 58.9585 3.07937 58.9584 3.07932C58.9583 3.0792 58.9582 3.07912 58.9581 3.07907C58.958 3.07897 58.9581 3.07901 58.9583 3.07918C58.9586 3.07953 58.9595 3.08041 58.961 3.08183C58.9639 3.08468 58.969 3.08967 58.9763 3.09679C58.9908 3.11103 59.0139 3.13378 59.045 3.1649C59.1073 3.22714 59.202 3.32281 59.3253 3.45073C59.5721 3.70661 59.9333 4.09124 60.3798 4.59514L62.6251 2.60548Z" fill="#A545D5"/>
</svg>
