<svg width="449" height="21" viewBox="0 0 449 21" fill="none" xmlns="http://www.w3.org/2000/svg">
<path d="M9.74166 10.555C13.2571 10.555 16.9399 10.445 20.4553 10.3351C21.9619 10.3351 23.3011 10.2251 24.8077 10.2251C31.1689 10.0052 37.5301 9.78534 43.8913 9.56544C51.5917 9.34555 59.1247 9.01571 66.8252 8.79581C77.7062 8.35602 88.5872 8.02618 99.4682 7.58639C101.979 7.47644 104.49 7.47644 107.001 7.36649C113.362 7.1466 119.724 6.9267 126.085 6.81675C132.446 6.59686 138.807 6.37696 145.168 6.26702C147.679 6.15707 150.19 6.04712 152.701 6.04712C162.745 5.82723 172.957 5.60733 183.001 5.38743C189.195 5.27749 195.389 5.16754 201.75 4.94764C204.261 4.94764 206.604 4.8377 209.115 4.8377C218.825 4.72775 228.701 4.6178 238.41 4.50785C248.12 4.39791 257.661 4.28796 267.371 4.17801C269.882 4.17801 272.393 4.17801 275.071 4.17801C281.432 4.17801 287.626 4.17801 293.987 4.17801C303.864 4.17801 313.573 4.17801 323.45 4.06806C326.63 4.06806 329.811 4.06806 332.992 4.06806C339.688 4.06806 346.384 4.06806 353.08 4.06806C353.582 4.06806 354.251 4.06806 354.754 4.06806C339.688 4.17801 324.454 4.28796 309.388 4.50785C303.027 4.6178 296.833 4.6178 290.472 4.72775C287.794 4.72775 284.948 4.72775 282.269 4.8377C273.062 4.94764 264.023 5.16754 254.816 5.27749C244.269 5.49738 233.723 5.60733 223.177 5.82722C221.336 5.82722 219.662 5.93717 217.82 5.93717C212.129 6.15707 206.604 6.26702 200.913 6.48691C189.53 6.81675 178.146 7.1466 166.763 7.47644C165.089 7.47644 163.415 7.58639 161.741 7.69634C156.217 7.91623 150.525 8.24607 145.001 8.46597C134.957 8.90576 125.08 9.34555 115.036 9.78534C112.358 9.89529 109.512 10.1152 106.834 10.2251C100.473 10.555 94.1114 10.8848 87.7502 11.3246C79.715 11.7644 71.5124 12.2042 63.4772 12.644C52.2613 13.3037 40.8781 13.9634 29.6623 14.623C26.9839 14.733 24.3055 14.9529 21.4597 15.0628C16.6051 15.3927 11.7505 15.7225 6.89586 16.0524C6.39365 16.0524 5.89145 16.2723 5.89145 16.712C5.89145 17.0419 6.39365 17.3717 6.89586 17.3717C8.73726 17.3717 10.4113 17.4817 12.2527 17.4817C11.9179 18.0314 11.7505 18.3613 11.7505 18.6911C11.7505 19.9005 13.2571 21 15.2659 21C29.1601 20.4503 42.8869 19.7906 56.7811 19.3508C68.834 19.0209 80.8868 18.5812 92.9396 18.2513C106.164 17.8115 119.556 17.3717 132.781 17.0419C136.966 16.9319 141.151 16.822 145.336 16.6021C146.508 16.6021 147.679 16.4921 149.019 16.4921C170.446 16.1623 191.873 15.7225 213.3 15.3927C224.684 15.1728 236.234 14.9529 247.617 14.8429C251.802 14.733 255.82 14.733 260.005 14.623C281.935 14.4031 303.864 14.1832 325.793 13.9634C335.168 13.8534 344.542 13.7435 353.917 13.6335C361.952 13.5236 369.987 13.5236 378.022 13.3037C384.718 13.1937 391.247 12.9738 397.943 12.8639C401.291 12.7539 404.639 12.7539 407.82 12.644C415.353 12.3141 422.886 11.9843 430.419 11.6544C429.916 12.0942 429.916 12.7539 430.084 13.1937C430.251 13.7435 430.753 14.1832 431.59 14.4031C432.26 14.623 433.264 14.8429 433.934 14.623C435.608 14.1832 437.282 13.7435 438.789 13.3037C438.789 13.3037 438.789 13.3037 438.621 13.3037C438.789 13.3037 438.789 13.1937 438.956 13.1937C439.123 13.1937 439.291 13.0838 439.291 13.0838H439.123C439.96 12.8639 440.797 12.644 441.802 12.3141C442.639 12.0942 443.643 11.7644 444.48 11.5445C445.485 11.2147 446.322 10.8848 447.326 10.555C448.33 10.2251 449 9.34555 449 8.57592C449 8.13613 448.833 7.80628 448.498 7.36649C448.163 6.9267 447.326 6.37696 446.489 6.26702C445.652 6.15707 444.815 6.04712 443.978 6.04712C443.811 6.04712 443.643 6.04712 443.476 6.04712C442.974 6.04712 442.304 6.04712 441.802 6.15707C440.463 6.26702 439.291 6.37696 437.952 6.37696C436.947 6.37696 435.943 6.48691 434.771 6.48691C431.925 6.59686 429.247 6.70681 426.401 6.9267C425.731 6.9267 424.894 7.03665 424.225 7.03665C424.56 6.81675 424.727 6.59686 424.727 6.37696C424.894 6.15707 424.894 5.93717 424.894 5.71728C424.894 5.60733 424.894 5.38743 425.062 5.27749C425.062 5.05759 425.062 4.8377 424.894 4.72775C424.894 4.72775 425.062 4.72775 425.062 4.6178C425.564 4.39791 426.066 4.17801 426.401 3.73822C426.736 3.40838 426.903 2.96859 426.903 2.5288C426.903 2.08901 426.736 1.75916 426.401 1.31937C426.234 1.20942 426.066 0.989529 425.899 0.879581C425.397 0.549738 424.894 0.439791 424.392 0.329843C423.388 0.109948 422.216 0 421.044 0C420.04 0 419.203 0 418.198 0C416.859 0 415.52 0 414.181 0C412.339 0 410.331 0 408.489 0C403.467 0 398.445 0 393.423 0C388.736 0 383.881 0 379.194 0C374.842 0 370.657 0 366.304 0C349.062 0 331.987 0.109948 314.745 0.219895C301.855 0.329843 288.965 0.439791 276.076 0.439791C270.384 0.439791 264.525 0.549738 258.833 0.659686C245.943 0.879581 233.054 0.989529 220.164 1.20942C216.481 1.20942 212.798 1.31937 209.115 1.31937C206.939 1.31937 204.93 1.42932 202.754 1.42932C190.032 1.75916 177.309 2.08901 164.587 2.41885C160.737 2.5288 156.887 2.63874 152.869 2.74869C150.693 2.74869 148.516 2.85864 146.34 2.96859C133.618 3.40838 121.063 3.84817 108.34 4.28796C101.812 4.50785 95.2832 4.72775 88.7546 5.05759C77.5388 5.49738 66.323 5.93717 55.2745 6.48691C45.5653 6.9267 35.8561 7.25654 26.1469 7.58639C24.6403 7.69633 23.1337 7.69634 21.4597 7.80628C18.9487 7.91623 16.4377 7.91623 13.9267 8.02618C11.7505 8.46597 9.40686 8.46597 7.23066 8.46597C7.06326 8.02618 6.39366 7.69634 5.89145 7.80628C4.38485 7.80628 3.04565 7.91623 1.53905 8.02618C0.869446 8.13613 0.199845 8.35602 0.0324446 8.79581C-0.134956 9.34555 0.367245 9.89529 1.03685 10.0052C1.70645 10.1152 2.37605 10.2251 3.04565 10.3351C3.71525 10.445 4.21745 10.445 4.88705 10.445C6.56106 10.555 8.06766 10.555 9.74166 10.555ZM401.458 7.03665C403.467 7.03665 405.643 7.03665 407.652 7.03665C407.82 7.36649 408.154 7.58639 408.489 7.80628C407.652 7.80628 406.815 7.91623 406.146 7.91623C404.639 7.91623 403.132 8.02618 401.626 8.02618C394.93 8.13613 388.401 8.35602 381.705 8.46597C378.692 8.57592 375.679 8.68586 372.665 8.68586C367.978 8.68586 363.124 8.79581 358.436 8.79581C347.555 8.90576 336.842 9.01571 325.961 9.12566C304.868 9.34555 283.943 9.56544 262.851 9.78534C247.785 9.89529 232.719 10.2251 217.653 10.555C195.054 10.9948 172.287 11.3246 149.688 11.7644C145.168 11.8743 140.649 11.9843 136.129 12.2042C123.239 12.644 110.349 12.9738 97.4594 13.4136C84.9044 13.8534 72.182 14.1832 59.6269 14.623C58.4551 14.623 57.2833 14.733 56.1115 14.733C59.4595 14.5131 62.9749 14.4031 66.323 14.1832C78.2084 13.6335 90.0938 12.9738 101.979 12.4241C106.164 12.2042 110.349 11.9843 114.367 11.7644C116.543 11.6545 118.719 11.5445 120.728 11.5445C133.283 11.1047 145.671 10.555 158.058 10.1152C160.402 10.0052 162.913 9.89529 165.257 9.78534C168.772 9.67539 172.287 9.56544 175.635 9.56544C188.358 9.2356 201.08 8.90576 213.803 8.57592C216.648 8.46597 219.494 8.46597 222.173 8.35602C222.842 8.35602 223.679 8.35602 224.349 8.35602C226.358 8.35602 228.366 8.35602 230.208 8.24607C242.93 8.02618 255.82 7.91623 268.542 7.69634C274.401 7.58639 280.26 7.47644 286.12 7.47644C305.036 7.36649 324.119 7.25654 343.036 7.1466C362.789 7.1466 382.207 7.03665 401.458 7.03665Z" fill="#7562E8"/>
</svg>
