<svg width="456" height="175" viewBox="0 0 456 175" fill="none" xmlns="http://www.w3.org/2000/svg">
<line x1="102.17" y1="149.248" x2="355.208" y2="149.248" stroke="black" stroke-width="0.954859"/>
<path d="M60.7101 174.552C94.2393 174.552 121.42 172.74 121.42 170.504C121.42 168.269 94.2393 166.457 60.7101 166.457C27.1808 166.457 0 168.269 0 170.504C0 172.74 27.1808 174.552 60.7101 174.552Z" fill="#3F3D56"/>
<path d="M395.29 174.552C428.819 174.552 456 172.74 456 170.504C456 168.269 428.819 166.457 395.29 166.457C361.761 166.457 334.58 168.269 334.58 170.504C334.58 172.74 361.761 174.552 395.29 174.552Z" fill="#3F3D56"/>
<path d="M57.5621 157.013C77.183 157.013 93.0888 141.108 93.0888 121.487C93.0888 101.866 77.183 85.9601 57.5621 85.9601C37.9413 85.9601 22.0355 101.866 22.0355 121.487C22.0355 141.108 37.9413 157.013 57.5621 157.013Z" fill="#2F2E41"/>
<path d="M52.1657 149.368H41.3728V168.706H52.1657V149.368Z" fill="#2F2E41"/>
<path d="M73.7515 149.368H62.9586V168.706H73.7515V149.368Z" fill="#2F2E41"/>
<path d="M50.3669 172.303C55.3342 172.303 59.361 170.793 59.361 168.931C59.361 167.068 55.3342 165.558 50.3669 165.558C45.3996 165.558 41.3728 167.068 41.3728 168.931C41.3728 170.793 45.3996 172.303 50.3669 172.303Z" fill="#2F2E41"/>
<path d="M71.9527 171.854C76.92 171.854 80.9468 170.343 80.9468 168.481C80.9468 166.618 76.92 165.108 71.9527 165.108C66.9854 165.108 62.9586 166.618 62.9586 168.481C62.9586 170.343 66.9854 171.854 71.9527 171.854Z" fill="#2F2E41"/>
<path d="M58.4615 124.635C65.1673 124.635 70.6035 119.198 70.6035 112.493C70.6035 105.787 65.1673 100.351 58.4615 100.351C51.7556 100.351 46.3195 105.787 46.3195 112.493C46.3195 119.198 51.7556 124.635 58.4615 124.635Z" fill="white"/>
<path d="M58.4615 116.54C60.6968 116.54 62.5089 114.728 62.5089 112.493C62.5089 110.257 60.6968 108.445 58.4615 108.445C56.2262 108.445 54.4142 110.257 54.4142 112.493C54.4142 114.728 56.2262 116.54 58.4615 116.54Z" fill="#3F3D56"/>
<path d="M23.1002 88.448C20.2316 75.601 29.4014 62.6197 43.5815 59.4534C57.7616 56.2871 71.5824 64.1348 74.451 76.9818C77.3196 89.8288 67.9219 94.5669 53.7418 97.7332C39.5616 100.9 25.9688 101.295 23.1002 88.448Z" fill="#3F3D56"/>
<path d="M395.29 157.013C414.911 157.013 430.817 141.108 430.817 121.487C430.817 101.866 414.911 85.9601 395.29 85.9601C375.669 85.9601 359.763 101.866 359.763 121.487C359.763 141.108 375.669 157.013 395.29 157.013Z" fill="#2F2E41"/>
<path d="M389.893 149.368H379.101V168.706H389.893V149.368Z" fill="#2F2E41"/>
<path d="M411.479 149.368H400.686V168.706H411.479V149.368Z" fill="#2F2E41"/>
<path d="M388.095 172.303C393.062 172.303 397.089 170.793 397.089 168.931C397.089 167.068 393.062 165.558 388.095 165.558C383.127 165.558 379.101 167.068 379.101 168.931C379.101 170.793 383.127 172.303 388.095 172.303Z" fill="#2F2E41"/>
<path d="M409.68 171.854C414.648 171.854 418.675 170.343 418.675 168.481C418.675 166.618 414.648 165.108 409.68 165.108C404.713 165.108 400.686 166.618 400.686 168.481C400.686 170.343 404.713 171.854 409.68 171.854Z" fill="#2F2E41"/>
<path d="M396.189 124.635C402.895 124.635 408.331 119.198 408.331 112.493C408.331 105.787 402.895 100.351 396.189 100.351C389.484 100.351 384.047 105.787 384.047 112.493C384.047 119.198 389.484 124.635 396.189 124.635Z" fill="white"/>
<path d="M396.189 116.54C398.425 116.54 400.237 114.728 400.237 112.493C400.237 110.257 398.425 108.445 396.189 108.445C393.954 108.445 392.142 110.257 392.142 112.493C392.142 114.728 393.954 116.54 396.189 116.54Z" fill="#3F3D56"/>
<path d="M360.828 88.448C357.959 75.601 367.129 62.6197 381.309 59.4534C395.489 56.2871 409.31 64.1348 412.179 76.9818C415.047 89.8288 405.65 94.5669 391.47 97.7332C377.289 100.9 363.697 101.295 360.828 88.448Z" fill="#6C63FF"/>
<path d="M177.633 86.3043C177.633 112.603 161.999 121.786 142.713 121.786C123.427 121.786 107.792 112.603 107.792 86.3043C107.792 60.0052 142.713 26.5486 142.713 26.5486C142.713 26.5486 177.633 60.0052 177.633 86.3043Z" fill="#F2F2F2"/>
<path d="M141.441 117.763L141.798 95.7533L156.682 68.5237L141.854 92.3005L142.015 82.4038L152.273 62.7036L142.058 79.7847L142.347 61.9854L153.331 46.3016L142.392 59.1865L142.573 26.5488L141.437 69.7554L141.531 67.9728L130.363 50.8787L141.352 71.3946L140.311 91.2733L140.28 90.7458L127.405 72.7563L140.241 92.6098L140.111 95.0958L140.088 95.1331L140.099 95.3373L137.458 145.772H140.985L141.409 119.722L154.213 99.9166L141.441 117.763Z" fill="#3F3D56"/>
<path d="M138.959 149.368C145.664 149.368 151.101 147.758 151.101 145.771C151.101 143.784 145.664 142.173 138.959 142.173C132.253 142.173 126.817 143.784 126.817 145.771C126.817 147.758 132.253 149.368 138.959 149.368Z" fill="#3F3D56"/>
<path d="M346.722 86.3043C346.722 112.603 331.088 121.786 311.802 121.786C292.516 121.786 276.881 112.603 276.881 86.3043C276.881 60.0052 311.802 26.5486 311.802 26.5486C311.802 26.5486 346.722 60.0052 346.722 86.3043Z" fill="#F2F2F2"/>
<path d="M310.529 117.763L310.887 95.7533L325.771 68.5237L310.943 92.3005L311.104 82.4038L321.362 62.7036L311.146 79.7847L311.435 61.9854L322.42 46.3016L311.481 59.1865L311.662 26.5488L310.526 69.7554L310.62 67.9728L299.452 50.8787L310.441 71.3946L309.4 91.2733L309.369 90.7458L296.494 72.7563L309.33 92.6098L309.2 95.0958L309.177 95.1331L309.187 95.3373L306.547 145.772H310.074L310.498 119.722L323.302 99.9166L310.529 117.763Z" fill="#3F3D56"/>
<path d="M308.497 149.368C315.203 149.368 320.639 147.758 320.639 145.771C320.639 143.784 315.203 142.173 308.497 142.173C301.791 142.173 296.355 143.784 296.355 145.771C296.355 147.758 301.791 149.368 308.497 149.368Z" fill="#3F3D56"/>
<path d="M204.957 51.3243C204.957 57.7315 207.502 63.8763 212.033 68.4069C216.563 72.9375 222.708 75.4828 229.115 75.4828V27.1658C222.708 27.1658 216.563 29.711 212.033 34.2416C207.502 38.7722 204.957 44.917 204.957 51.3243Z" fill="#3F3D56"/>
<path d="M229.115 27.1658V75.4828C235.523 75.4828 241.668 72.9375 246.198 68.4069C250.729 63.8763 253.274 57.7315 253.274 51.3243C253.274 44.917 250.729 38.7722 246.198 34.2416C241.668 29.711 235.523 27.1658 229.115 27.1658Z" fill="#6C63FF"/>
<path d="M229.115 55.8689C230.965 55.8689 232.464 54.3697 232.464 52.5202C232.464 50.6708 230.965 49.1715 229.115 49.1715C227.266 49.1715 225.767 50.6708 225.767 52.5202C225.767 54.3697 227.266 55.8689 229.115 55.8689Z" fill="#2F2E41"/>
<path d="M236.849 62.5694L232.053 57.9328L227.256 53.2961L228.557 52.2509L229.858 51.2057L233.353 56.8875L236.849 62.5694Z" fill="#2F2E41"/>
<path d="M248.973 54.843L238.115 53.9687L227.256 53.0943L227.374 52.1508L227.492 51.207L238.232 53.025L248.973 54.843Z" fill="#2F2E41"/>
<path d="M233.352 94.9477L233.288 94.0064C235.128 93.8815 236.972 93.6296 238.771 93.2571L238.962 94.1809C237.122 94.5618 235.234 94.8197 233.352 94.9477ZM227.684 94.8639C225.78 94.6926 223.899 94.4199 222.092 94.0538L222.28 93.129C224.053 93.4887 225.899 93.7563 227.768 93.9244L227.684 94.8639H227.684ZM244.415 92.6537L244.099 91.7649C245.832 91.1482 247.539 90.4049 249.173 89.5561L249.608 90.3934C247.936 91.262 246.189 92.0223 244.415 92.6537H244.415ZM216.628 92.5943C214.821 91.9883 213.06 91.2648 211.393 90.4427L211.81 89.5971C213.439 90.3999 215.161 91.1077 216.928 91.7L216.628 92.5943ZM206.503 87.585C204.946 86.5175 203.457 85.3275 202.077 84.0476L202.719 83.3559C204.065 84.6044 205.517 85.7654 207.037 86.8067L206.503 87.585H206.503ZM254.441 87.4469L253.896 86.6768C255.398 85.6139 256.842 84.4377 258.186 83.1813L258.83 83.8703C257.455 85.1557 255.978 86.3591 254.441 87.4469ZM198.216 79.8935C197.043 78.429 195.961 76.8581 195.001 75.225L195.814 74.747C196.751 76.3414 197.807 77.8745 198.952 79.304L198.216 79.8935V79.8935ZM262.696 79.7328L261.964 79.1369C263.128 77.7078 264.203 76.1866 265.16 74.6162L265.965 75.1071C264.986 76.714 263.886 78.2701 262.696 79.7328ZM192.479 70.1531C191.763 68.4233 191.154 66.618 190.67 64.7869L191.582 64.5455C192.055 66.3361 192.65 68.1014 193.35 69.792L192.479 70.1531L192.479 70.1531ZM268.575 70.0794L267.71 69.7027C268.444 68.0152 269.068 66.2597 269.564 64.4847L270.472 64.739C269.965 66.5549 269.327 68.3519 268.575 70.0794ZM189.582 59.2304C189.341 57.3666 189.218 55.466 189.216 53.5819L190.159 53.581C190.161 55.4254 190.281 57.2856 190.517 59.1098L189.582 59.2304ZM271.619 59.1931L270.684 59.066C270.932 57.2483 271.057 55.3904 271.057 53.5441L271.057 53.4589H272L272 53.5404C272 55.4328 271.872 57.3335 271.619 59.1931V59.1931ZM190.508 48.0517L189.572 47.932C189.811 46.058 190.174 44.188 190.65 42.3744L191.562 42.6139C191.097 44.3881 190.742 46.2178 190.508 48.0517H190.508ZM270.673 47.9389C270.421 46.1142 270.04 44.2916 269.542 42.522L270.449 42.2664C270.96 44.0772 271.349 45.9424 271.607 47.8099L270.673 47.9389H270.673ZM193.321 37.3648L192.449 37.0056C193.17 35.254 194.015 33.5467 194.96 31.9314L195.775 32.4076C194.851 33.9854 194.026 35.6532 193.321 37.3648H193.321ZM267.678 37.3114C266.942 35.6286 266.082 33.9789 265.121 32.408L265.926 31.9157C266.909 33.5232 267.789 35.2116 268.542 36.9338L267.678 37.3114V37.3114ZM261.919 27.8961C260.755 26.4717 259.481 25.1131 258.134 23.8583L258.777 23.168C260.155 24.452 261.458 25.8419 262.649 27.2993L261.919 27.8961ZM198.902 27.8466L198.164 27.2585C199.343 25.7813 200.638 24.3822 202.013 23.0998L202.657 23.7897C201.315 25.0408 200.051 26.4056 198.902 27.8466ZM253.836 20.3695C252.329 19.3077 250.737 18.341 249.104 17.4962L249.537 16.6585C251.209 17.5229 252.838 18.5121 254.38 19.5985L253.836 20.3695L253.836 20.3695ZM206.966 20.3292L206.431 19.5523C207.972 18.4912 209.615 17.5261 211.314 16.6835L211.733 17.5286C210.074 18.3512 208.47 19.2934 206.966 20.3292H206.966ZM216.847 15.4145L216.545 14.5208C218.297 13.93 220.134 13.4356 222.007 13.0519L222.196 13.9758C220.361 14.3518 218.562 14.8359 216.847 15.4145V15.4145ZM244.023 15.2962C242.288 14.6825 240.493 14.184 238.688 13.8137L238.877 12.8898C240.724 13.2686 242.562 13.7789 244.338 14.4069L244.023 15.2962L244.023 15.2962ZM227.683 13.1715L227.597 12.2324C228.541 12.1458 229.511 12.0825 230.482 12.0443C231.399 12.0335 232.351 12.0742 233.265 12.1343L233.203 13.0757C232.309 13.0167 231.4 12.987 230.5 12.987C229.565 13.0243 228.611 13.0867 227.683 13.1715V13.1715Z" fill="#3F3D56"/>
<path d="M199.107 92.1311C206.139 92.1311 211.84 86.4303 211.84 79.398C211.84 72.3658 206.139 66.665 199.107 66.665C192.075 66.665 186.374 72.3658 186.374 79.398C186.374 86.4303 192.075 92.1311 199.107 92.1311Z" fill="#6C63FF"/>
<path d="M194.124 75.1285C194.124 74.7342 194.451 74.4147 194.856 74.4147H203.359C203.763 74.4147 204.09 74.7342 204.09 75.1285V83.6675C204.09 84.0618 203.763 84.3814 203.359 84.3814H194.856C194.451 84.3814 194.124 84.0618 194.124 83.6675V75.1285ZM197.203 82.758V78.2575H195.707V82.758H197.203ZM196.455 77.6426C196.977 77.6426 197.301 77.2975 197.301 76.8652C197.292 76.4236 196.977 76.0878 196.465 76.0878C195.953 76.0878 195.619 76.4242 195.619 76.8652C195.619 77.2975 195.943 77.6426 196.445 77.6426H196.455H196.455ZM199.513 82.758V80.2446C199.513 80.11 199.523 79.9755 199.562 79.8795C199.67 79.611 199.916 79.3326 200.33 79.3326C200.871 79.3326 201.087 79.745 201.087 80.3505V82.758H202.583V80.1767C202.583 78.7938 201.845 78.1509 200.861 78.1509C200.068 78.1509 199.712 78.587 199.513 78.8941V78.9096H199.503L199.513 78.8941V78.2575H198.018C198.036 78.6798 198.018 82.758 198.018 82.758H199.513Z" fill="white"/>
<path d="M236.708 25.4661C243.741 25.4661 249.441 19.7653 249.441 12.733C249.441 5.70078 243.741 0 236.708 0C229.676 0 223.975 5.70078 223.975 12.733C223.975 19.7653 229.676 25.4661 236.708 25.4661Z" fill="#6C63FF"/>
<path fill-rule="evenodd" clip-rule="evenodd" d="M236.871 10.4264C237.568 9.48437 238.338 8.74274 239.323 8.74274C241.182 8.74274 242.713 11.1095 242.714 13.9274C242.714 15.6463 241.974 16.7235 240.644 16.7235C239.486 16.7235 238.847 16.0735 237.699 14.1533L237.198 13.3104L237.11 13.1625C236.979 12.9418 236.847 12.7224 236.712 12.5042L235.828 14.0655C234.572 16.2611 233.865 16.7235 232.883 16.7235C231.518 16.7235 230.703 15.6614 230.703 13.9769C230.703 11.2859 232.201 8.74274 234.154 8.74274C234.394 8.74274 234.624 8.77201 234.848 8.83432C235.081 8.89887 235.307 8.99945 235.533 9.13982C235.966 9.4093 236.4 9.82666 236.871 10.4264H236.871ZM238.009 12.0958C237.82 11.7881 237.638 11.5051 237.463 11.2454L237.459 11.2394C238.093 10.2598 238.617 9.77261 239.239 9.77261C240.533 9.77261 241.568 11.677 241.568 14.016C241.568 14.9077 241.275 15.4249 240.671 15.4249C240.09 15.4249 239.813 15.0421 238.712 13.2706L238.008 12.0958H238.009ZM234.341 10.0609C234.885 10.1359 235.38 10.5368 236.097 11.5629C235.683 12.1963 235.274 12.8326 234.87 13.4718C233.851 15.0676 233.499 15.4257 232.932 15.4257C232.349 15.4257 232.002 14.9137 232.002 13.9995C232.002 12.0463 232.976 10.0481 234.138 10.0481C234.206 10.0481 234.274 10.0526 234.341 10.0616V10.0609V10.0609Z" fill="white"/>
<path d="M195.733 45.6067C202.765 45.6067 208.466 39.9059 208.466 32.8737C208.466 25.8414 202.765 20.1406 195.733 20.1406C188.701 20.1406 183 25.8414 183 32.8737C183 39.9059 188.701 45.6067 195.733 45.6067Z" fill="#6C63FF"/>
<path d="M193.678 37.3652C197.85 37.3652 200.133 33.9082 200.133 30.9156C200.133 30.8188 200.133 30.7207 200.128 30.624C200.573 30.3023 200.956 29.9041 201.261 29.4479C200.846 29.6309 200.406 29.7516 199.956 29.8059C200.43 29.5223 200.785 29.0762 200.956 28.5503C200.51 28.8144 200.022 28.9997 199.513 29.0983C198.655 28.1841 197.218 28.1389 196.304 28.9973C195.714 29.5516 195.463 30.3784 195.647 31.1671C193.823 31.0756 192.123 30.2145 190.971 28.7977C190.37 29.8346 190.678 31.1595 191.674 31.8256C191.315 31.8134 190.963 31.7168 190.647 31.5437V31.5748C190.649 32.6538 191.409 33.5831 192.466 33.7984C192.271 33.852 192.07 33.8787 191.868 33.8778C191.726 33.8783 191.584 33.8651 191.444 33.8384C191.741 34.7622 192.593 35.3946 193.563 35.4118C192.759 36.0432 191.766 36.3857 190.744 36.384C190.564 36.3848 190.384 36.3744 190.205 36.3529C191.243 37.0144 192.448 37.3656 193.678 37.3652H193.678Z" fill="white"/>
<path d="M241.575 106.118C248.607 106.118 254.308 100.418 254.308 93.3854C254.308 86.3531 248.607 80.6523 241.575 80.6523C234.543 80.6523 228.842 86.3531 228.842 93.3854C228.842 100.418 234.543 106.118 241.575 106.118Z" fill="#6C63FF"/>
<path d="M241.575 87.9547C240.101 87.9547 239.916 87.9615 239.337 87.9873C238.758 88.0144 238.363 88.1054 238.018 88.2398C237.655 88.3761 237.327 88.59 237.056 88.8664C236.78 89.1377 236.566 89.4659 236.429 89.8283C236.295 90.1731 236.203 90.5682 236.177 91.1452C236.151 91.7256 236.144 91.9102 236.144 93.386C236.144 94.8604 236.151 95.0451 236.177 95.6241C236.204 96.2025 236.295 96.5969 236.429 96.9424C236.569 97.2995 236.754 97.6022 237.056 97.9043C237.357 98.2064 237.66 98.3924 238.017 98.5309C238.363 98.6653 238.757 98.7569 239.335 98.7834C239.915 98.8092 240.1 98.816 241.575 98.816C243.05 98.816 243.234 98.8092 243.814 98.7834C244.391 98.7562 244.787 98.6653 245.133 98.5309C245.495 98.3945 245.823 98.1806 246.094 97.9043C246.396 97.6022 246.581 97.2995 246.72 96.9424C246.854 96.5969 246.946 96.2025 246.973 95.6241C246.999 95.0451 247.006 94.8604 247.006 93.3853C247.006 91.9102 246.999 91.7256 246.973 91.1459C246.946 90.5682 246.854 90.1731 246.72 89.8283C246.584 89.4659 246.37 89.1377 246.094 88.8664C245.823 88.5899 245.494 88.376 245.132 88.2398C244.786 88.1054 244.391 88.0138 243.813 87.9873C243.233 87.9615 243.049 87.9547 241.574 87.9547H241.575ZM241.088 88.9336H241.576C243.026 88.9336 243.197 88.9383 243.77 88.9648C244.299 88.9886 244.587 89.0775 244.778 89.1515C245.032 89.2499 245.213 89.368 245.403 89.5581C245.593 89.7482 245.71 89.9287 245.809 90.1826C245.883 90.3734 245.972 90.6612 245.995 91.1907C246.022 91.7629 246.027 91.9347 246.027 93.384C246.027 94.8333 246.022 95.0057 245.995 95.578C245.972 96.1074 245.883 96.3946 245.809 96.586C245.722 96.8218 245.583 97.035 245.402 97.2099C245.212 97.3999 245.032 97.5174 244.778 97.6158C244.588 97.6905 244.3 97.7787 243.77 97.8032C243.197 97.829 243.026 97.835 241.576 97.835C240.126 97.835 239.953 97.829 239.381 97.8032C238.851 97.7787 238.564 97.6905 238.373 97.6158C238.137 97.5288 237.924 97.3901 237.748 97.2099C237.568 97.0347 237.428 96.8213 237.341 96.5853C237.267 96.3946 237.178 96.1068 237.154 95.5773C237.129 95.005 237.123 94.8333 237.123 93.3826C237.123 91.9326 237.129 91.7616 237.154 91.1893C237.179 90.6598 237.267 90.372 237.342 90.1806C237.44 89.9274 237.558 89.7461 237.748 89.5561C237.938 89.366 238.119 89.2485 238.373 89.1501C238.564 89.0754 238.851 88.9872 239.381 88.9628C239.882 88.9397 240.076 88.9329 241.088 88.9322V88.9336H241.088ZM244.474 89.8351C244.114 89.8351 243.823 90.1268 243.823 90.4867C243.823 90.8467 244.114 91.1384 244.474 91.1384C244.834 91.1384 245.126 90.8467 245.126 90.4867C245.126 90.1268 244.834 89.8351 244.474 89.8351ZM241.576 90.5967C240.035 90.5727 238.767 91.8019 238.743 93.3422C238.719 94.8825 239.948 96.1506 241.489 96.1746C241.518 96.1751 241.547 96.1751 241.576 96.1746C243.116 96.1506 244.345 94.8825 244.321 93.3422C244.298 91.8357 243.082 90.6202 241.576 90.5967H241.576ZM241.576 91.5749C242.575 91.5745 243.386 92.3847 243.387 93.3846C243.387 94.3844 242.577 95.1953 241.577 95.1958H241.576C240.576 95.1958 239.765 94.3852 239.765 93.3853C239.765 92.3854 240.576 91.5749 241.576 91.5749Z" fill="white"/>
</svg>
