<svg width="388" height="321" viewBox="0 0 388 321" fill="none" xmlns="http://www.w3.org/2000/svg">
<path d="M155.989 216.938C172.603 375.907 236.365 354.52 283.873 129.819C296.373 70.6966 256.125 13.1918 196.753 1.93506C137.382 -9.3217 80.1264 29.683 68.8696 89.0546C57.6129 148.426 149.708 156.836 155.989 216.938Z" fill="#E1E1E1"/>
<path d="M53.4153 261.003C53.4153 281.117 41.4579 288.14 26.7077 288.14C11.9574 288.14 0 281.117 0 261.003C0 240.889 26.7077 215.301 26.7077 215.301C26.7077 215.301 53.4153 240.889 53.4153 261.003Z" fill="#F2F2F2"/>
<path d="M25.7347 285.063L26.0084 268.229L37.3918 247.404L26.0509 265.589L26.1743 258.019L34.0197 242.953L26.2068 256.016L26.4276 242.403L34.8289 230.408L26.4626 240.263L26.601 215.3L25.7322 248.346L25.8039 246.983L17.2622 233.908L25.6668 249.599L24.8709 264.803L24.8472 264.399L15.0005 250.641L24.8172 265.825L24.718 267.726L24.7001 267.755L24.708 267.911L22.6889 306.484H25.3868L25.7105 286.561L35.5035 271.414L25.7347 285.063Z" fill="#F2F2F2"/>
<path d="M53.4153 261.003C53.4153 281.117 41.4579 288.14 26.7077 288.14C11.9574 288.14 0 281.117 0 261.003C0 240.889 26.7077 215.301 26.7077 215.301C26.7077 215.301 53.4153 240.889 53.4153 261.003Z" fill="#C7C6DA"/>
<path d="M25.7347 285.063L26.0084 268.229L37.3918 247.404L26.0509 265.589L26.1743 258.019L34.0197 242.953L26.2068 256.016L26.4276 242.403L34.8289 230.408L26.4626 240.263L26.601 215.3L25.7322 248.346L25.8039 246.983L17.2622 233.908L25.6668 249.599L24.8709 264.803L24.8472 264.399L15.0005 250.641L24.8172 265.825L24.718 267.726L24.7001 267.755L24.708 267.911L22.6889 306.484H25.3868L25.7105 286.561L35.5035 271.414L25.7347 285.063Z" fill="#3F3D56"/>
<path d="M194.666 320.146C301.441 320.146 388 314.456 388 307.437C388 300.419 301.441 294.729 194.666 294.729C87.8904 294.729 1.33179 300.419 1.33179 307.437C1.33179 314.456 87.8904 320.146 194.666 320.146Z" fill="#3F3D56"/>
<path opacity="0.1" d="M90.0822 314.312C116.776 314.312 138.416 310.523 138.416 305.849C138.416 301.175 116.776 297.386 90.0822 297.386C63.3883 297.386 41.7487 301.175 41.7487 305.849C41.7487 310.523 63.3883 314.312 90.0822 314.312Z" fill="black"/>
<path opacity="0.1" d="M292.583 315.146C319.277 315.146 340.916 311.881 340.916 307.854C340.916 303.827 319.277 300.562 292.583 300.562C265.889 300.562 244.249 303.827 244.249 307.854C244.249 311.881 265.889 315.146 292.583 315.146Z" fill="black"/>
<path d="M263.262 308.865L265.258 309.962C265.258 309.962 262.595 311.278 261.901 311.037C261.207 310.796 259.076 309.28 259.076 309.28L257.242 311.256L256.603 309.262L263.262 308.865Z" fill="#3F3D56"/>
<path d="M269.05 306.172C269.05 306.172 262.307 301.941 268.187 302.953C271.794 303.562 275.462 303.737 279.111 303.474L279.975 306.694L269.05 306.172Z" fill="#3F3D56"/>
<path d="M277.561 312.548C277.561 312.548 271.304 311.149 276.158 310.358C279.148 309.859 282.072 309.023 284.874 307.866L286.276 310.057L277.561 312.548Z" fill="#3F3D56"/>
<path d="M190.138 91.667V133.359L192.221 132.357V137.166L194.721 143.085C194.721 143.085 197.221 143.085 197.221 144.195C197.221 145.304 194.721 147.154 194.721 147.154H190.138V166.824L193.055 160.841H198.471L202.221 167.499C202.221 167.499 199.721 168.239 199.721 169.719C199.721 171.198 202.638 174.158 202.221 176.007C201.805 177.857 200.138 180.816 198.888 181.926L193.471 186.735H190.138V315.835H214.305V91.667H190.138Z" fill="#3F3D56"/>
<path d="M190.268 187.29L195.555 190.619C195.555 190.619 206.071 188.943 205.138 187.29C204.205 185.636 208.055 178.597 208.055 178.597L207.43 172.493L195.555 155.477L190.268 164.54L190.268 187.29Z" fill="#3F3D56"/>
<path d="M190.138 148.339V130.878H196.805L203.055 141.314L197.638 149.743L190.138 148.339Z" fill="#3F3D56"/>
<path d="M142.009 311.852L143.734 312.591L201.384 174.292L200.708 174.003L199.558 176.762L184.409 170.272L190.417 156.251L190.209 155.209L124.584 304.387L126.309 305.126L129.173 295.784L146.796 303.334L142.009 311.852ZM183.819 212.293L168.757 205.839L176.131 189.082L191.651 195.73L183.819 212.293ZM184.175 213.664L176.343 230.227L161.717 223.96L168.305 206.865L184.175 213.664ZM176.699 231.598L168.868 248.161L153.628 241.632L160.479 224.649L176.699 231.598ZM169.223 249.532L161.392 266.095L145.802 259.416L152.652 242.433L169.223 249.532ZM161.748 267.466L153.916 284.029L137.976 277.199L144.826 260.217L161.748 267.466ZM199.127 177.796L192.082 194.696L176.583 188.056L183.958 171.298L199.127 177.796ZM130.526 298.922L136.999 278.001L154.272 285.4L142.211 304.415L130.526 298.922Z" fill="#3F3D56"/>
<path d="M176.311 179.288C169.968 179.022 164.614 183.885 164.351 190.151C164.088 196.417 169.129 199.012 175.472 199.278C181.814 199.544 187.055 197.381 187.318 191.115C187.581 184.849 182.653 179.554 176.311 179.288Z" fill="#2F2E41"/>
<path d="M172.158 198.948L168.796 197.11L167.382 204.22L170.789 204.978L172.158 198.948Z" fill="#2F2E41"/>
<path d="M175.867 198.374L179.274 199.132L177.603 206.494L174.196 205.736L175.867 198.374Z" fill="#2F2E41"/>
<path d="M175.781 208.166C174.598 207.09 173.971 205.862 174.379 205.425C174.787 204.987 176.077 205.505 177.259 206.582C178.441 207.658 179.069 208.886 178.66 209.323C178.252 209.761 176.963 209.243 175.781 208.166Z" fill="#2F2E41"/>
<path d="M169.055 206.212C167.873 205.135 167.245 203.908 167.653 203.47C168.062 203.032 169.351 203.55 170.533 204.627C171.715 205.704 172.343 206.931 171.935 207.369C171.527 207.806 170.237 207.288 169.055 206.212Z" fill="#2F2E41"/>
<path d="M176.592 191.769C174.424 191.678 172.74 189.869 172.83 187.727C172.92 185.586 174.75 183.923 176.917 184.014C179.085 184.105 180.769 185.915 180.68 188.057C180.59 190.198 178.76 191.86 176.592 191.769Z" fill="white"/>
<path d="M178.372 187.862C177.65 187.832 177.088 187.229 177.118 186.515C177.148 185.801 177.758 185.247 178.481 185.277C179.203 185.308 179.765 185.911 179.735 186.625C179.705 187.339 179.095 187.893 178.372 187.862Z" fill="#3F3D56"/>
<path d="M167.293 177.911C167.297 173.703 171.11 170.299 175.811 170.308C180.512 170.317 184.319 173.735 184.316 177.942C184.312 182.149 181.01 182.967 176.309 182.958C171.609 182.95 167.29 182.118 167.293 177.911Z" fill="white"/>
<path d="M181.587 191.944C181.079 191.1 182.879 189.102 185.606 187.483C188.333 185.863 190.956 185.234 191.463 186.078C191.97 186.923 190.171 188.92 187.444 190.54C184.716 192.159 182.094 192.788 181.587 191.944Z" fill="#2F2E41"/>
<path d="M158.177 192.801C157.995 191.833 160.377 190.586 163.497 190.016C166.618 189.446 169.295 189.768 169.477 190.736C169.659 191.704 167.278 192.951 164.157 193.521C161.037 194.092 158.36 193.769 158.177 192.801Z" fill="#2F2E41"/>
<path d="M177.703 195.703C177.729 194.274 176.577 193.1 175.131 193.081C173.686 193.061 172.493 194.204 172.468 195.633L172.468 195.639C172.444 197.068 173.611 197.378 175.057 197.396C176.503 197.414 177.68 197.133 177.703 195.703Z" fill="white"/>
<path d="M230.417 95.0004C230.417 102.594 236.574 108.75 244.168 108.75C251.761 108.75 257.918 102.594 257.918 95.0004C257.918 87.4065 251.761 81.2504 244.168 81.2504C236.574 81.2504 230.417 87.4065 230.417 95.0004Z" fill="#6F6F6F"/>
<path d="M244.168 89.1566C246.058 89.1566 246.316 89.1566 247.089 89.1566C247.777 89.1566 248.121 89.3285 248.378 89.4144C248.722 89.5863 248.98 89.6722 249.238 89.9301C249.496 90.1879 249.668 90.4457 249.753 90.7894C249.839 91.0473 249.925 91.391 250.011 92.0785C250.011 92.8519 250.011 93.0238 250.011 95.0004C250.011 96.977 250.011 97.1488 250.011 97.9223C250.011 98.6098 249.839 98.9535 249.753 99.2113C249.582 99.5551 249.496 99.8129 249.238 100.071C248.98 100.329 248.722 100.5 248.378 100.586C248.121 100.672 247.777 100.758 247.089 100.844C246.316 100.844 246.144 100.844 244.168 100.844C242.191 100.844 242.019 100.844 241.246 100.844C240.558 100.844 240.214 100.672 239.957 100.586C239.613 100.414 239.355 100.329 239.097 100.071C238.839 99.8129 238.667 99.5551 238.582 99.2113C238.496 98.9535 238.41 98.6098 238.324 97.9223C238.324 97.1488 238.324 96.977 238.324 95.0004C238.324 93.0238 238.324 92.8519 238.324 92.0785C238.324 91.391 238.496 91.0473 238.582 90.7894C238.753 90.4457 238.839 90.1879 239.097 89.9301C239.355 89.6722 239.613 89.5004 239.957 89.4144C240.214 89.3285 240.558 89.2426 241.246 89.1566C242.019 89.1566 242.277 89.1566 244.168 89.1566ZM244.168 87.8676C242.191 87.8676 242.019 87.8676 241.246 87.8676C240.472 87.8676 239.957 88.0394 239.527 88.2113C239.097 88.3832 238.667 88.641 238.238 89.0707C237.808 89.5004 237.636 89.8441 237.378 90.3598C237.207 90.7894 237.121 91.3051 237.035 92.0785C237.035 92.8519 237.035 93.1098 237.035 95.0004C237.035 96.977 237.035 97.1488 237.035 97.9223C237.035 98.6957 237.207 99.2113 237.378 99.641C237.55 100.071 237.808 100.5 238.238 100.93C238.667 101.36 239.011 101.532 239.527 101.789C239.957 101.961 240.472 102.047 241.246 102.133C242.019 102.133 242.277 102.133 244.168 102.133C246.058 102.133 246.316 102.133 247.089 102.133C247.863 102.133 248.378 101.961 248.808 101.789C249.238 101.618 249.668 101.36 250.097 100.93C250.527 100.5 250.699 100.157 250.957 99.641C251.128 99.2113 251.214 98.6957 251.3 97.9223C251.3 97.1488 251.3 96.891 251.3 95.0004C251.3 93.1098 251.3 92.8519 251.3 92.0785C251.3 91.3051 251.128 90.7894 250.957 90.3598C250.785 89.9301 250.527 89.5004 250.097 89.0707C249.668 88.641 249.324 88.4691 248.808 88.2113C248.378 88.0394 247.863 87.9535 247.089 87.8676C246.316 87.8676 246.144 87.8676 244.168 87.8676Z" fill="white"/>
<path d="M244.168 91.3051C242.105 91.3051 240.472 92.9379 240.472 95.0004C240.472 97.0629 242.105 98.6957 244.168 98.6957C246.23 98.6957 247.863 97.0629 247.863 95.0004C247.863 92.9379 246.23 91.3051 244.168 91.3051ZM244.168 97.4067C242.878 97.4067 241.761 96.3754 241.761 95.0004C241.761 93.7113 242.793 92.5941 244.168 92.5941C245.457 92.5941 246.574 93.6254 246.574 95.0004C246.574 96.2895 245.457 97.4067 244.168 97.4067Z" fill="white"/>
<path d="M247.949 92.0785C248.423 92.0785 248.808 91.6938 248.808 91.2191C248.808 90.7445 248.423 90.3598 247.949 90.3598C247.474 90.3598 247.089 90.7445 247.089 91.2191C247.089 91.6938 247.474 92.0785 247.949 92.0785Z" fill="white"/>
<path d="M216.667 152.917C216.667 160.511 222.824 166.667 230.418 166.667C238.011 166.667 244.168 160.511 244.168 152.917C244.168 145.323 238.011 139.167 230.418 139.167C222.824 139.167 216.667 145.323 216.667 152.917Z" fill="#6F6F6F"/>
<path d="M237.293 152.917C237.293 149.136 234.199 146.042 230.418 146.042C226.636 146.042 223.542 149.136 223.542 152.917C223.542 156.355 226.035 159.191 229.3 159.706V154.894H227.582V152.917H229.3V151.37C229.3 149.652 230.332 148.706 231.878 148.706C232.652 148.706 233.425 148.878 233.425 148.878V150.597H232.566C231.707 150.597 231.449 151.113 231.449 151.628V152.917H233.339L232.996 154.894H231.363V159.792C234.8 159.277 237.293 156.355 237.293 152.917Z" fill="white"/>
<path d="M216.667 260.834C216.667 268.428 222.824 274.584 230.418 274.584C238.011 274.584 244.168 268.428 244.168 260.834C244.168 253.24 238.011 247.084 230.418 247.084C222.824 247.084 216.667 253.24 216.667 260.834Z" fill="#6F6F6F"/>
<path d="M237.293 256.537C236.777 256.795 236.261 256.881 235.66 256.967C236.261 256.623 236.691 256.108 236.863 255.42C236.347 255.764 235.746 255.936 235.058 256.108C234.543 255.592 233.769 255.248 232.996 255.248C231.191 255.248 229.816 256.967 230.246 258.686C227.925 258.6 225.863 257.483 224.402 255.764C223.628 257.053 224.058 258.686 225.261 259.545C224.832 259.545 224.402 259.373 223.972 259.201C223.972 260.49 224.917 261.694 226.207 262.037C225.777 262.123 225.347 262.209 224.917 262.123C225.261 263.24 226.292 264.1 227.582 264.1C226.55 264.873 225.003 265.303 223.542 265.131C224.832 265.904 226.292 266.42 227.839 266.42C233.082 266.42 236.003 262.037 235.832 257.998C236.433 257.654 236.949 257.139 237.293 256.537Z" fill="white"/>
<path d="M265.001 160.834C265.001 168.428 271.157 174.584 278.751 174.584C286.345 174.584 292.501 168.428 292.501 160.834C292.501 153.24 286.345 147.084 278.751 147.084C271.157 147.084 265.001 153.24 265.001 160.834Z" fill="#6F6F6F"/>
<path d="M278.751 153.959C274.97 153.959 271.876 157.053 271.876 160.834C271.876 163.67 273.595 166.076 276.001 167.107C276.001 166.592 276.001 166.076 276.087 165.56C276.259 164.959 276.946 161.779 276.946 161.779C276.946 161.779 276.689 161.349 276.689 160.662C276.689 159.631 277.29 158.857 277.978 158.857C278.579 158.857 278.923 159.287 278.923 159.888C278.923 160.49 278.493 161.435 278.321 162.295C278.149 162.982 278.665 163.584 279.439 163.584C280.728 163.584 281.587 161.951 281.587 159.888C281.587 158.342 280.556 157.224 278.751 157.224C276.688 157.224 275.399 158.771 275.399 160.49C275.399 161.092 275.571 161.521 275.829 161.865C275.915 162.037 276.001 162.037 275.915 162.209C275.915 162.295 275.829 162.638 275.743 162.724C275.657 162.896 275.571 162.982 275.399 162.896C274.454 162.467 274.024 161.435 274.024 160.232C274.024 158.256 275.657 155.935 278.923 155.935C281.587 155.935 283.306 157.826 283.306 159.888C283.306 162.553 281.845 164.615 279.61 164.615C278.837 164.615 278.149 164.185 277.892 163.756C277.892 163.756 277.462 165.303 277.376 165.646C277.204 166.162 276.946 166.678 276.689 167.107C277.29 167.279 277.978 167.365 278.665 167.365C282.446 167.365 285.54 164.271 285.54 160.49C285.626 157.053 282.532 153.959 278.751 153.959Z" fill="white"/>
<path d="M239.168 203.751C239.168 211.345 245.324 217.501 252.918 217.501C260.512 217.501 266.668 211.345 266.668 203.751C266.668 196.157 260.512 190.001 252.918 190.001C245.324 190.001 239.168 196.157 239.168 203.751Z" fill="#6F6F6F"/>
<path d="M249.136 210.626H246.214V201.43H249.136V210.626ZM247.675 200.141C246.73 200.141 246.043 199.454 246.043 198.509C246.043 197.563 246.816 196.876 247.675 196.876C248.621 196.876 249.308 197.563 249.308 198.509C249.308 199.454 248.621 200.141 247.675 200.141ZM259.793 210.626H256.871V205.641C256.871 204.18 256.269 203.751 255.41 203.751C254.55 203.751 253.691 204.438 253.691 205.727V210.626H250.769V201.43H253.519V202.72C253.777 202.118 254.808 201.173 256.269 201.173C257.902 201.173 259.621 202.118 259.621 204.954V210.626H259.793Z" fill="white"/>
<path d="M114.304 259.929C122.757 259.929 128 268.15 128 276.5C128 284.85 122.757 286.57 114.304 286.57C105.852 286.57 101 282.35 101 274C101 265.65 105.852 259.929 114.304 259.929Z" fill="#2F2E41"/>
<path d="M121.151 293.351L116.483 295.41L115.41 285.817L120.016 285.197L121.151 293.351Z" fill="#2F2E41"/>
<path d="M111.432 285.884L106.869 285L105 294.876L109.563 295.76L111.432 285.884Z" fill="#2F2E41"/>
<path d="M108.821 297.376C110.931 297.659 112.72 297.247 112.816 296.456C112.913 295.665 111.28 294.795 109.17 294.512C107.06 294.229 105.271 294.641 105.175 295.432C105.078 296.223 106.711 297.094 108.821 297.376Z" fill="#2F2E41"/>
<path d="M120.139 296.225C122.259 296.029 123.91 295.227 123.828 294.435C123.745 293.642 121.959 293.159 119.839 293.355C117.719 293.552 116.067 294.353 116.15 295.146C116.233 295.938 118.019 296.422 120.139 296.225Z" fill="#2F2E41"/>
<path d="M113.233 276.518C116.122 276.518 118.464 274.204 118.464 271.35C118.464 268.496 116.122 266.183 113.233 266.183C110.344 266.183 108.002 268.496 108.002 271.35C108.002 274.204 110.344 276.518 113.233 276.518Z" fill="white"/>
<path d="M115.744 272.445C116.706 272.445 117.487 271.674 117.487 270.723C117.487 269.771 116.706 269 115.744 269C114.781 269 114 269.771 114 270.723C114 271.674 114.781 272.445 115.744 272.445Z" fill="#3F3D56"/>
<path d="M118.637 280.18C118.535 279.072 117.289 278.105 114.317 278.378C111.346 278.651 110.21 281.056 110.311 282.164C110.413 283.271 111.909 281.828 114.881 281.555C117.853 281.282 118.739 281.288 118.637 280.18Z" fill="white"/>
<path d="M126.377 258.6C126.608 253.003 121.724 248.261 115.47 248.01C109.217 247.759 103.96 252.094 103.73 257.691C103.5 263.289 107.847 264.561 114.101 264.812C120.355 265.063 126.147 264.198 126.377 258.6Z" fill="#CCCCCC"/>
</svg>
