<svg width="503" height="205" viewBox="0 0 503 205" fill="none" xmlns="http://www.w3.org/2000/svg">
<path d="M224.243 198.312L217.461 145.755L217.456 145.674C217.458 144.156 218.062 142.7 219.135 141.627C220.209 140.553 221.664 139.949 223.182 139.948H289.351C290.869 139.949 292.324 140.553 293.398 141.627C294.471 142.7 295.075 144.156 295.077 145.674L290.143 183.929L288.29 198.312C288.277 199.822 287.668 201.267 286.596 202.331C285.524 203.396 284.075 203.994 282.564 203.996H229.969C228.458 203.994 227.009 203.396 225.937 202.331C224.864 201.267 224.256 199.822 224.243 198.312ZM289.351 141.22H223.182C222.008 141.221 220.882 141.686 220.048 142.512C219.215 143.338 218.74 144.46 218.729 145.634L223.652 183.767L225.51 198.187L225.515 198.269C225.516 199.45 225.986 200.582 226.821 201.417C227.656 202.252 228.788 202.722 229.969 202.723H282.564C283.745 202.722 284.877 202.252 285.712 201.417C286.547 200.582 287.016 199.45 287.018 198.269L293.804 145.634C293.792 144.46 293.318 143.338 292.484 142.512C291.651 141.686 290.525 141.221 289.351 141.22Z" fill="#3F3D56"/>
<path d="M256.266 155.854C275.944 155.854 291.896 153.195 291.896 149.915C291.896 146.636 275.944 143.977 256.266 143.977C236.589 143.977 220.637 146.636 220.637 149.915C220.637 153.195 236.589 155.854 256.266 155.854Z" fill="#F2F2F2"/>
<path d="M253.182 147.243C258.105 135.17 260.615 122.249 260.568 109.21C260.557 96.1665 258.088 83.242 253.291 71.1127C250.59 64.3134 247.131 57.8407 242.978 51.8173C242.398 50.9755 243.771 50.1821 244.347 51.0174C251.828 61.9533 257.083 74.2544 259.815 87.2196C262.571 100.114 262.885 113.411 260.742 126.421C259.537 133.707 257.514 140.833 254.71 147.664C254.328 148.595 252.793 148.187 253.182 147.243Z" fill="#CCCCCC"/>
<path d="M259.762 89.3442C261.923 87.0021 262.513 83.7416 262.496 80.6524C262.475 76.9841 261.574 73.392 261.401 69.7341C261.246 66.4609 261.742 63.1504 263.655 60.4143C265.301 58.059 267.897 56.2461 270.876 56.4131C277.231 56.7692 280.189 64.078 281.107 69.4144C282.345 76.3506 281.112 83.5014 277.623 89.6227C274.134 95.744 268.609 100.448 262.01 102.917C261.056 103.281 260.644 101.749 261.589 101.389C267.414 99.17 272.354 95.1062 275.654 89.8176C278.955 84.529 280.434 78.306 279.867 72.098C279.671 69.0389 278.871 66.0491 277.511 63.3017C276.292 60.9962 274.396 58.707 271.732 58.1169C269.109 57.5356 266.649 58.9906 265.133 61.0613C263.221 63.6718 262.822 66.8276 262.999 69.9848C263.377 76.7327 266.109 84.8021 260.882 90.4649C260.189 91.2162 259.07 90.0932 259.762 89.3442Z" fill="#CCCCCC"/>
<path d="M258.526 118.369C253.152 114.862 252.616 108.003 251.938 102.227C251.554 98.956 250.999 95.48 248.991 92.7678C247.34 90.537 244.543 88.6205 241.645 89.1393C239.09 89.5966 237.363 91.7065 236.423 94.0001C235.435 96.6588 235.055 99.5046 235.309 102.329C235.703 108.763 238.22 114.884 242.466 119.734C244.548 122.2 247.002 124.327 249.738 126.037C252.545 127.723 255.679 128.791 258.931 129.171C259.932 129.289 259.944 130.875 258.931 130.756C255.846 130.413 252.851 129.5 250.1 128.063C247.417 126.599 244.978 124.726 242.871 122.512C238.055 117.695 234.928 111.45 233.956 104.708C233.471 101.638 233.579 98.5028 234.276 95.4734C234.953 92.8345 236.306 90.1879 238.64 88.6578C239.893 87.8862 241.34 87.4872 242.811 87.5074C244.283 87.5275 245.718 87.9661 246.949 88.7717C249.795 90.5043 251.589 93.3856 252.498 96.5329C253.614 100.396 253.536 104.461 254.359 108.378C255.05 111.666 256.401 115.091 259.326 117C260.177 117.555 259.384 118.928 258.526 118.369V118.369Z" fill="#CCCCCC"/>
<path d="M207.923 26.7219C207.923 21.4368 209.49 16.2704 212.427 11.876C215.363 7.48163 219.536 4.05662 224.419 2.0341C229.302 0.0115799 234.675 -0.517605 239.858 0.513465C245.042 1.54454 249.803 4.08956 253.54 7.82668C257.278 11.5638 259.822 16.3252 260.854 21.5087C261.885 26.6923 261.355 32.0652 259.333 36.948C257.31 41.8307 253.885 46.0041 249.491 48.9404C245.097 51.8766 239.93 53.4438 234.645 53.4438C227.561 53.4358 220.768 50.6179 215.759 45.6083C210.749 40.5987 207.931 33.8066 207.923 26.7219ZM209.196 26.7219C209.196 31.7554 210.688 36.6757 213.485 40.8609C216.281 45.046 220.256 48.3079 224.906 50.2341C229.556 52.1604 234.673 52.6643 239.61 51.6824C244.547 50.7004 249.081 48.2766 252.641 44.7174C256.2 41.1582 258.624 36.6236 259.606 31.6869C260.588 26.7501 260.084 21.6331 258.157 16.9828C256.231 12.3326 252.969 8.35791 248.784 5.56149C244.599 2.76507 239.679 1.27249 234.645 1.27249C227.898 1.28012 221.429 3.96382 216.658 8.73487C211.887 13.5059 209.203 19.9747 209.196 26.7219Z" fill="#3F3D56"/>
<path d="M219.376 19.4038L216.194 18.7676C216.194 18.7676 218.867 21.7579 219.376 21.9488C219.423 22.5841 219.423 23.2221 219.376 23.8575C225.483 50.0704 248.006 38.4909 248.006 38.4909C239.799 38.6818 239.099 35.3097 239.099 35.3097C243.871 34.6099 244.825 31.4923 244.825 31.4923C244.397 31.7181 243.9 31.7781 243.431 31.6607C242.961 31.5433 242.551 31.2568 242.28 30.8561C247.434 29.52 246.734 24.4937 246.734 24.4937C245.815 25.1569 244.742 25.5731 243.616 25.7026C244.189 25.0027 249.024 19.2129 246.097 16.2226C246.097 16.2226 242.534 22.585 233.182 23.1576L232.546 23.0304C232.654 22.5721 232.697 22.1009 232.673 21.6306C232.673 19.8589 231.969 18.1597 230.716 16.9068C229.463 15.654 227.764 14.9502 225.992 14.9502C221.539 14.9502 220.584 17.4951 220.584 17.4951L217.403 15.5864C217.467 15.5864 217.785 18.7676 219.376 19.4038Z" fill="#6C63FF"/>
<path d="M425.184 203.749H386.588C385.44 203.748 384.338 203.294 383.523 202.486C382.707 201.679 382.243 200.582 382.23 199.434L377.25 160.795C377.251 159.64 377.711 158.532 378.528 157.715C379.345 156.898 380.452 156.439 381.608 156.438H430.165C431.32 156.439 432.428 156.898 433.245 157.715C434.061 158.532 434.521 159.64 434.522 160.795L434.517 160.875L429.542 199.434C429.53 200.582 429.065 201.679 428.25 202.486C427.434 203.294 426.332 203.748 425.184 203.749ZM378.495 160.757L383.475 199.392C383.476 200.217 383.804 201.008 384.388 201.592C384.971 202.175 385.763 202.503 386.588 202.504H425.184C426.01 202.503 426.801 202.175 427.384 201.592C427.968 201.008 428.296 200.217 428.297 199.392L428.302 199.311L433.277 160.757C433.266 159.938 432.933 159.157 432.351 158.582C431.769 158.007 430.983 157.684 430.165 157.683H381.608C380.789 157.684 380.004 158.007 379.421 158.582C378.839 159.157 378.506 159.938 378.495 160.757Z" fill="#3F3D56"/>
<path d="M405.886 168.266C420.326 168.266 432.032 166.315 432.032 163.908C432.032 161.501 420.326 159.55 405.886 159.55C391.446 159.55 379.74 161.501 379.74 163.908C379.74 166.315 391.446 168.266 405.886 168.266Z" fill="#F2F2F2"/>
<path d="M406.595 159.444C402.801 150.138 400.864 140.179 400.895 130.129C400.903 120.076 402.805 110.113 406.502 100.763C408.585 95.5243 411.253 90.5368 414.454 85.8952C415.137 84.9029 413.519 83.968 412.841 84.9526C407.053 93.4201 402.981 102.941 400.858 112.976C398.716 122.97 398.461 133.277 400.106 143.365C401.036 149.05 402.609 154.611 404.794 159.94C405.245 161.037 407.052 160.557 406.595 159.444V159.444Z" fill="#CCCCCC"/>
<path d="M401.424 114.527C397.611 110.346 400.202 103.856 400.271 98.9374C400.401 96.4419 399.69 93.975 398.252 91.9313C396.908 90.1495 394.865 88.8249 392.56 88.97C387.52 89.2873 385.128 94.9545 384.386 99.2294C383.399 104.679 384.359 110.302 387.099 115.116C389.839 119.929 394.183 123.626 399.373 125.56C400.496 125.991 400.982 124.186 399.87 123.759C395.442 122.065 391.688 118.972 389.178 114.95C386.669 110.928 385.541 106.196 385.966 101.474C386.109 99.1144 386.73 96.8082 387.792 94.6957C388.716 92.9818 390.154 91.2443 392.175 90.8845C394.179 90.5276 395.971 91.7978 397.019 93.4124C398.354 95.469 398.522 97.8694 398.341 100.259C397.947 105.472 396.126 111.487 400.104 115.848C400.916 116.738 402.233 115.414 401.424 114.527V114.527Z" fill="#CCCCCC"/>
<path d="M402.315 137.477C406.311 134.838 406.989 129.9 407.478 125.518C407.763 122.958 408.068 120.202 409.505 117.993C410.648 116.239 412.675 114.655 414.879 114.873C419.283 115.311 419.97 121.312 419.791 124.705C419.51 129.617 417.603 134.295 414.368 138.002C411.07 141.789 406.917 144.621 401.84 145.232C400.661 145.374 400.647 147.243 401.84 147.1C411.978 145.879 420.046 136.784 421.443 126.868C422.052 122.543 421.779 116.719 417.766 113.995C416.803 113.378 415.688 113.037 414.545 113.01C413.401 112.983 412.272 113.271 411.28 113.841C409.061 115.13 407.415 117.215 406.678 119.673C405.669 122.709 405.736 125.945 405.132 129.06C404.634 131.631 403.653 134.358 401.372 135.864C400.374 136.523 401.308 138.142 402.315 137.477H402.315Z" fill="#CCCCCC"/>
<path d="M418.949 85.9084C413.777 85.9084 408.722 84.375 404.423 81.502C400.123 78.629 396.772 74.5456 394.793 69.768C392.814 64.9905 392.296 59.7334 393.305 54.6615C394.314 49.5897 396.804 44.9309 400.46 41.2743C404.117 37.6177 408.776 35.1276 413.848 34.1187C418.92 33.1099 424.177 33.6277 428.954 35.6066C433.732 37.5855 437.815 40.9367 440.688 45.2364C443.561 49.5361 445.095 54.5912 445.095 59.7624C445.087 66.6943 442.33 73.3401 437.428 78.2418C432.526 83.1434 425.88 85.9006 418.949 85.9084ZM418.949 34.8614C414.024 34.8614 409.209 36.3218 405.114 39.058C401.019 41.7941 397.828 45.6831 395.943 50.2332C394.058 54.7833 393.565 59.79 394.526 64.6203C395.487 69.4506 397.858 73.8876 401.341 77.37C404.823 80.8525 409.26 83.2241 414.091 84.1849C418.921 85.1457 423.928 84.6526 428.478 82.7679C433.028 80.8832 436.917 77.6916 439.653 73.5966C442.389 69.5017 443.85 64.6873 443.85 59.7624C443.842 53.1605 441.216 46.8312 436.548 42.163C431.88 37.4947 425.55 34.8688 418.949 34.8614Z" fill="#3F3D56"/>
<path fill-rule="evenodd" clip-rule="evenodd" d="M436.041 59.865C436.04 56.5987 435.104 53.401 433.342 50.6504C431.581 47.8999 429.068 45.7116 426.102 44.3447C423.135 42.9777 419.839 42.4895 416.604 42.9376C413.368 43.3857 410.329 44.7515 407.846 46.8732C405.362 48.9949 403.539 51.7838 402.592 54.9095C401.644 58.0353 401.612 61.3672 402.499 64.5107C403.386 67.6541 405.156 70.4776 407.597 72.6468C410.039 74.8159 413.052 76.24 416.278 76.7504V64.8072H411.937V59.865H416.278V56.0986C416.278 51.8156 418.83 49.4479 422.734 49.4479C424.016 49.4658 425.295 49.5775 426.561 49.7821V53.9888H424.404C422.282 53.9888 421.618 55.3058 421.618 56.6594V59.8657H426.359L425.602 64.808H421.618V76.7519C425.639 76.1151 429.301 74.0644 431.945 70.9688C434.588 67.8732 436.041 63.9359 436.041 59.865V59.865Z" fill="#6C63FF"/>
<path d="M503 204.145C502.999 204.309 502.934 204.468 502.817 204.584C502.7 204.701 502.542 204.767 502.377 204.767H0.622525C0.457421 204.767 0.299079 204.701 0.182333 204.585C0.0655868 204.468 0 204.31 0 204.145C0 203.979 0.0655868 203.821 0.182333 203.704C0.299079 203.588 0.457421 203.522 0.622525 203.522H502.377C502.542 203.523 502.7 203.588 502.817 203.705C502.934 203.822 502.999 203.98 503 204.145Z" fill="#3F3D56"/>
<path d="M119.205 204.767H80.6087C79.4607 204.766 78.3594 204.312 77.5437 203.504C76.7279 202.696 76.2636 201.599 76.2512 200.451L71.2709 161.813C71.2722 160.658 71.7317 159.55 72.5486 158.733C73.3656 157.916 74.4732 157.456 75.6285 157.455H124.185C125.341 157.456 126.448 157.916 127.265 158.733C128.082 159.55 128.542 160.658 128.543 161.813L128.538 161.892L123.563 200.451C123.55 201.599 123.086 202.696 122.27 203.504C121.455 204.312 120.353 204.766 119.205 204.767ZM72.5162 161.775L77.4961 200.409C77.4971 201.235 77.8253 202.026 78.4088 202.609C78.9924 203.193 79.7835 203.521 80.6087 203.522H119.205C120.031 203.521 120.822 203.193 121.405 202.609C121.989 202.026 122.317 201.235 122.318 200.409L122.323 200.329L127.298 161.775C127.287 160.956 126.954 160.175 126.372 159.599C125.789 159.024 125.004 158.701 124.185 158.7H75.6285C74.81 158.701 74.0246 159.024 73.4422 159.599C72.8599 160.175 72.5272 160.956 72.5162 161.775Z" fill="#3F3D56"/>
<path d="M99.907 169.283C114.347 169.283 126.053 167.332 126.053 164.925C126.053 162.519 114.347 160.568 99.907 160.568C85.467 160.568 73.761 162.519 73.761 164.925C73.761 167.332 85.467 169.283 99.907 169.283Z" fill="#F2F2F2"/>
<path d="M99.1312 162.825C102.993 153.32 104.952 143.15 104.898 132.89C104.881 122.668 102.941 112.541 99.1785 103.037C97.0567 97.684 94.3417 92.5859 91.0843 87.8378C90.407 86.8542 88.7877 87.7871 89.4717 88.7804C95.149 97.0763 99.1473 106.403 101.241 116.236C103.367 126.063 103.61 136.204 101.958 146.121C101.021 151.679 99.4688 157.115 97.3304 162.329C96.8741 163.44 98.6801 163.924 99.1312 162.825Z" fill="#CCCCCC"/>
<path d="M103.822 118.733C107.193 115.037 106.42 109.88 105.824 105.352C105.495 102.854 105.203 100.154 106.147 97.7504C106.859 95.9384 108.335 94.1437 110.338 93.7732C112.356 93.3997 114.149 94.686 115.292 96.2368C116.566 98.1047 117.395 100.24 117.715 102.479C118.606 107.467 117.729 112.61 115.236 117.021C112.742 121.432 108.789 124.835 104.056 126.644C102.945 127.07 103.427 128.877 104.552 128.445C109.196 126.671 113.18 123.509 115.963 119.391C118.957 114.881 120.312 109.481 119.804 104.092C119.381 99.6387 117.685 93.7931 112.955 92.1568C108.109 90.4804 104.32 95.3487 103.774 99.6509C103.349 102.997 104.239 106.278 104.47 109.599C104.659 112.307 104.414 115.314 102.501 117.412C101.693 118.299 103.01 119.623 103.822 118.733Z" fill="#CCCCCC"/>
<path d="M102.553 138.749C98.0405 135.769 98.7021 129.187 97.7711 124.563C97.2555 122.002 96.204 119.515 94.1722 117.791C92.3759 116.267 89.9405 115.384 87.6193 116.169C83.0142 117.726 82.0297 123.506 82.2735 127.719C82.6012 133.076 84.6987 138.172 88.2366 142.208C91.8914 146.403 96.5013 149.313 102.086 149.985C103.277 150.128 103.266 148.259 102.086 148.117C92.8271 147.003 85.5529 138.333 84.3015 129.38C83.9375 127.155 84.0178 124.88 84.5377 122.687C85.0159 120.896 85.9504 118.995 87.695 118.145C89.6979 117.17 91.904 118.12 93.3723 119.593C95.1626 121.388 95.8147 123.853 96.1848 126.292C96.9423 131.283 96.8895 137.244 101.611 140.362C102.617 141.026 103.553 139.409 102.553 138.749V138.749Z" fill="#CCCCCC"/>
<path d="M87.9369 88.3255C82.7657 88.3255 77.7107 86.7921 73.411 83.9191C69.1113 81.0461 65.7601 76.9627 63.7811 72.1851C61.8022 67.4076 61.2844 62.1505 62.2933 57.0786C63.3021 52.0068 65.7923 47.348 69.4489 43.6914C73.1055 40.0348 77.7643 37.5447 82.8361 36.5358C87.9079 35.527 93.165 36.0447 97.9426 38.0237C102.72 40.0026 106.804 43.3538 109.677 47.6535C112.55 51.9532 114.083 57.0083 114.083 62.1795C114.075 69.1114 111.318 75.7572 106.416 80.6588C101.515 85.5605 94.8689 88.3177 87.9369 88.3255ZM87.9369 37.2785C83.012 37.2785 78.1976 38.7389 74.1027 41.4751C70.0077 44.2112 66.8161 48.1002 64.9314 52.6503C63.0467 57.2003 62.5536 62.2071 63.5144 67.0374C64.4752 71.8677 66.8468 76.3047 70.3293 79.7871C73.8117 83.2696 78.2487 85.6412 83.079 86.602C87.9093 87.5628 92.9161 87.0697 97.4661 85.185C102.016 83.3003 105.905 80.1087 108.641 76.0137C111.378 71.9188 112.838 67.1044 112.838 62.1795C112.83 55.5776 110.205 49.2483 105.536 44.58C100.868 39.9118 94.5388 37.2859 87.9369 37.2785Z" fill="#3F3D56"/>
<path d="M95.0582 49.2451C96.7998 49.2503 98.4686 49.9445 99.7002 51.176C100.932 52.4076 101.626 54.0764 101.631 55.818V68.9625C101.626 70.7041 100.932 72.3729 99.7002 73.6045C98.4686 74.836 96.7998 75.5302 95.0582 75.5354H81.9137C80.1721 75.5302 78.5032 74.836 77.2717 73.6045C76.0402 72.3729 75.346 70.7041 75.3408 68.9625V55.8181C75.346 54.0764 76.0402 52.4076 77.2717 51.176C78.5032 49.9445 80.1721 49.2503 81.9137 49.2451H95.0581L95.0582 49.2451ZM95.0581 46.6164H81.9137C79.4755 46.6235 77.1391 47.5952 75.415 49.3193C73.6909 51.0434 72.7191 53.3798 72.712 55.8181V68.9625C72.7191 71.4007 73.6909 73.7371 75.415 75.4612C77.1391 77.1853 79.4755 78.157 81.9137 78.1641H95.0581C97.4964 78.1571 99.8328 77.1853 101.557 75.4612C103.281 73.7371 104.253 71.4007 104.26 68.9625V55.8181C104.253 53.3798 103.281 51.0434 101.557 49.3193C99.8328 47.5952 97.4964 46.6235 95.0582 46.6164L95.0581 46.6164Z" fill="#6C63FF"/>
<path d="M97.0298 55.8181C96.5083 55.8169 96.0087 55.6089 95.6406 55.2396C95.2724 54.8702 95.066 54.3699 95.0665 53.8484C95.0671 53.327 95.2746 52.8271 95.6435 52.4586C96.0125 52.09 96.5126 51.8831 97.034 51.8831C97.5555 51.8831 98.0556 52.09 98.4245 52.4586C98.7934 52.8271 99.001 53.327 99.0015 53.8484C99.0021 54.3699 98.7956 54.8702 98.4275 55.2396C98.0594 55.6089 97.5597 55.8169 97.0383 55.8181C97.0355 55.8181 97.0326 55.8181 97.0298 55.8181Z" fill="#6C63FF"/>
<path d="M88.4858 57.132C89.5258 57.132 90.5424 57.4404 91.4071 58.0182C92.2718 58.596 92.9458 59.4172 93.3438 60.378C93.7418 61.3388 93.8459 62.3961 93.643 63.4161C93.4401 64.436 92.9393 65.373 92.2039 66.1083C91.4686 66.8437 90.5316 67.3445 89.5117 67.5474C88.4917 67.7503 87.4344 67.6462 86.4736 67.2482C85.5128 66.8502 84.6916 66.1762 84.1138 65.3115C83.536 64.4468 83.2276 63.4302 83.2276 62.3902C83.2276 61.6997 83.3636 61.016 83.6279 60.378C83.8921 59.7401 84.2795 59.1604 84.7677 58.6721C85.256 58.1838 85.8357 57.7965 86.4736 57.5323C87.1116 57.268 87.7953 57.132 88.4858 57.132ZM88.4858 54.5033C86.9259 54.5033 85.4011 54.9658 84.1041 55.8325C82.8071 56.6991 81.7962 57.9309 81.1992 59.372C80.6023 60.8132 80.4461 62.399 80.7504 63.9289C81.0547 65.4588 81.8059 66.8641 82.9089 67.9671C84.0119 69.0702 85.4172 69.8213 86.9472 70.1256C88.4771 70.43 90.0629 70.2738 91.504 69.6768C92.9452 69.0799 94.177 68.069 95.0436 66.772C95.9102 65.475 96.3728 63.9501 96.3728 62.3902C96.3728 61.3545 96.1688 60.3289 95.7724 59.372C95.3761 58.4151 94.7951 57.5457 94.0628 56.8133C93.3304 56.0809 92.4609 55.5 91.504 55.1036C90.5472 54.7073 89.5216 54.5033 88.4858 54.5033V54.5033Z" fill="#6C63FF"/>
<path d="M224.539 117.719C222.069 121.087 223.436 126.286 220.067 123.817C217.303 121.79 216.317 118.24 217.417 115.17L211.79 109.639L215.214 104.97L221.488 110.798C223.88 109.746 226.751 109.964 229.01 111.62C232.378 114.089 227.008 114.35 224.539 117.719Z" fill="#6C63FF"/>
<path d="M213.297 123.211C216.892 113.806 217.413 105.266 214.46 104.138C211.508 103.009 206.2 109.719 202.605 119.124C199.01 128.53 198.489 137.07 201.442 138.198C204.394 139.327 209.702 132.617 213.297 123.211Z" fill="#2F2E41"/>
<path d="M173.918 188.008C194.057 188.008 210.383 171.682 210.383 151.544C210.383 131.405 194.057 115.08 173.918 115.08C153.78 115.08 137.454 131.405 137.454 151.544C137.454 171.682 153.78 188.008 173.918 188.008Z" fill="#2F2E41"/>
<path d="M168.38 180.161H157.302V200.009H168.38V180.161Z" fill="#2F2E41"/>
<path d="M190.535 180.161H179.457V200.009H190.535V180.161Z" fill="#2F2E41"/>
<path d="M166.533 203.701C171.632 203.701 175.765 202.151 175.765 200.239C175.765 198.328 171.632 196.778 166.533 196.778C161.435 196.778 157.302 198.328 157.302 200.239C157.302 202.151 161.435 203.701 166.533 203.701Z" fill="#2F2E41"/>
<path d="M188.689 203.24C193.787 203.24 197.92 201.69 197.92 199.778C197.92 197.866 193.787 196.316 188.689 196.316C183.59 196.316 179.457 197.866 179.457 199.778C179.457 201.69 183.59 203.24 188.689 203.24Z" fill="#2F2E41"/>
<path d="M174.842 154.775C181.724 154.775 187.304 149.195 187.304 142.312C187.304 135.43 181.724 129.85 174.842 129.85C167.959 129.85 162.379 135.43 162.379 142.312C162.379 149.195 167.959 154.775 174.842 154.775Z" fill="white"/>
<path d="M174.842 146.467C177.136 146.467 178.996 144.607 178.996 142.312C178.996 140.018 177.136 138.158 174.842 138.158C172.547 138.158 170.688 140.018 170.688 142.312C170.688 144.607 172.547 146.467 174.842 146.467Z" fill="#3F3D56"/>
<path d="M138.547 117.633C135.603 104.447 145.015 91.1235 159.569 87.8736C174.123 84.6238 188.309 92.6786 191.253 105.865C194.197 119.05 184.552 123.914 169.997 127.164C155.443 130.413 141.491 130.819 138.547 117.633Z" fill="#6C63FF"/>
<path d="M144.665 150.256C146.802 147.926 142.517 140.52 135.096 133.715C127.675 126.909 119.927 123.281 117.79 125.611C115.654 127.941 119.938 135.346 127.359 142.152C134.781 148.957 142.529 152.585 144.665 150.256Z" fill="#2F2E41"/>
<path d="M156.007 164.699C156.007 168.267 165.197 175.315 175.393 175.315C185.59 175.315 195.151 165.267 195.151 161.698C195.151 158.129 185.59 162.391 175.393 162.391C165.197 162.391 156.007 161.13 156.007 164.699Z" fill="white"/>
<ellipse cx="225.354" cy="125.75" rx="1.24505" ry="0.622525" transform="rotate(45.9593 225.354 125.75)" fill="#6C63FF"/>
<ellipse cx="226.667" cy="123.343" rx="1.24505" ry="0.622525" transform="rotate(45.9593 226.667 123.343)" fill="#6C63FF"/>
<ellipse cx="227.289" cy="118.985" rx="1.24505" ry="0.622525" transform="rotate(45.9593 227.289 118.985)" fill="#6C63FF"/>
<ellipse cx="229.78" cy="116.495" rx="1.24505" ry="0.622525" transform="rotate(45.9593 229.78 116.495)" fill="#6C63FF"/>
<ellipse cx="231.025" cy="120.23" rx="1.24505" ry="0.622525" transform="rotate(45.9593 231.025 120.23)" fill="#6C63FF"/>
<ellipse cx="229.78" cy="123.343" rx="1.24505" ry="0.622525" transform="rotate(45.9593 229.78 123.343)" fill="#6C63FF"/>
<ellipse cx="229.78" cy="126.455" rx="1.24505" ry="0.543621" transform="rotate(45.9593 229.78 126.455)" fill="#6C63FF"/>
<ellipse cx="228.478" cy="128.89" rx="1.24505" ry="0.543621" transform="rotate(45.9593 228.478 128.89)" fill="#6C63FF"/>
<ellipse cx="231.59" cy="134.493" rx="1.24505" ry="0.543621" transform="rotate(45.9593 231.59 134.493)" fill="#6C63FF"/>
<ellipse cx="232.213" cy="130.758" rx="1.24505" ry="0.543621" transform="rotate(45.9593 232.213 130.758)" fill="#6C63FF"/>
<ellipse cx="233.458" cy="127.645" rx="1.24505" ry="0.543621" transform="rotate(45.9593 233.458 127.645)" fill="#6C63FF"/>
<ellipse cx="235.326" cy="124.533" rx="1.24505" ry="0.543621" transform="rotate(45.9593 235.326 124.533)" fill="#6C63FF"/>
<ellipse cx="234.703" cy="122.043" rx="1.24505" ry="0.543621" transform="rotate(45.9593 234.703 122.043)" fill="#6C63FF"/>
<ellipse cx="238.438" cy="129.513" rx="1.24505" ry="0.543621" transform="rotate(45.9593 238.438 129.513)" fill="#6C63FF"/>
<ellipse cx="240.928" cy="129.513" rx="1.24505" ry="0.543621" transform="rotate(45.9593 240.928 129.513)" fill="#6C63FF"/>
<ellipse cx="241.551" cy="134.493" rx="1.24505" ry="0.543621" transform="rotate(45.9593 241.551 134.493)" fill="#6C63FF"/>
<ellipse cx="237.193" cy="136.983" rx="1.24505" ry="0.543621" transform="rotate(45.9593 237.193 136.983)" fill="#6C63FF"/>
<ellipse cx="237.193" cy="133.248" rx="1.24505" ry="0.543621" transform="rotate(45.9593 237.193 133.248)" fill="#6C63FF"/>
<ellipse cx="235.326" cy="137.606" rx="1.24505" ry="0.543621" transform="rotate(45.9593 235.326 137.606)" fill="#6C63FF"/>
<ellipse cx="245.286" cy="138.228" rx="1.24505" ry="0.543621" transform="rotate(45.9593 245.286 138.228)" fill="#6C63FF"/>
<ellipse cx="244.663" cy="134.493" rx="1.24505" ry="0.543621" transform="rotate(45.9593 244.663 134.493)" fill="#6C63FF"/>
<ellipse cx="241.551" cy="137.606" rx="1.24505" ry="0.543621" transform="rotate(45.9593 241.551 137.606)" fill="#6C63FF"/>
<ellipse cx="232.835" cy="138.228" rx="1.24505" ry="0.543621" transform="rotate(45.9593 232.835 138.228)" fill="#6C63FF"/>
</svg>
