<svg width="389" height="225" viewBox="0 0 389 225" fill="none" xmlns="http://www.w3.org/2000/svg">
<path d="M290.377 123.172C301.58 123.172 310.661 132.144 310.661 143.212C310.661 154.28 301.58 158.482 290.377 158.482C279.174 158.482 270.092 154.28 270.092 143.212C270.092 132.144 279.174 123.172 290.377 123.172Z" fill="#2F2E41"/>
<path d="M296.244 158.146L302.308 155.153L304.275 167.795L298.211 168.879L296.244 158.146Z" fill="#2F2E41"/>
<path d="M289.746 156.859L283.682 157.944L286.083 171.048L292.147 169.963L289.746 156.859Z" fill="#2F2E41"/>
<path d="M287.16 171.984C289.967 171.694 292.144 170.609 292.023 169.559C291.902 168.51 289.529 167.895 286.722 168.184C283.914 168.474 281.737 169.559 281.858 170.608C281.979 171.657 284.353 172.273 287.16 171.984Z" fill="#2F2E41"/>
<path d="M300.245 171.428C302.92 170.528 304.806 168.991 304.457 167.994C304.108 166.997 301.657 166.918 298.983 167.818C296.308 168.718 294.423 170.255 294.771 171.252C295.12 172.249 297.571 172.328 300.245 171.428Z" fill="#2F2E41"/>
<path d="M288.957 145.159C292.785 145.159 295.889 142.093 295.889 138.31C295.889 134.527 292.785 131.461 288.957 131.461C285.128 131.461 282.024 134.527 282.024 138.31C282.024 142.093 285.128 145.159 288.957 145.159Z" fill="white"/>
<path d="M286.107 138.138C287.383 138.138 288.418 137.116 288.418 135.855C288.418 134.594 287.383 133.572 286.107 133.572C284.831 133.572 283.796 134.594 283.796 135.855C283.796 137.116 284.831 138.138 286.107 138.138Z" fill="#3F3D56"/>
<path d="M306.378 121.411C306.683 113.991 300.211 107.707 291.922 107.375C283.633 107.042 276.666 112.787 276.361 120.206C276.056 127.625 281.818 129.311 290.107 129.643C298.396 129.976 306.073 128.83 306.378 121.411Z" fill="#CCCCCC"/>
<path d="M281.532 141.8C281.925 140.106 277.818 137.731 272.358 136.495C266.898 135.259 262.153 135.629 261.761 137.322C261.368 139.016 265.475 141.391 270.935 142.627C276.395 143.864 281.14 143.493 281.532 141.8Z" fill="#2F2E41"/>
<path d="M321.35 148.342C321.743 146.648 317.636 144.273 312.176 143.037C306.716 141.8 301.971 142.171 301.578 143.864C301.186 145.558 305.293 147.933 310.753 149.169C316.213 150.405 320.957 150.035 321.35 148.342Z" fill="#2F2E41"/>
<path d="M375.948 13.7979C377.68 13.7979 379.085 12.3936 379.085 10.6612C379.085 8.92888 377.68 7.52454 375.948 7.52454C374.216 7.52454 372.811 8.92888 372.811 10.6612C372.811 12.3936 374.216 13.7979 375.948 13.7979Z" fill="#FF6584"/>
<path d="M363.447 13.7979C365.179 13.7979 366.584 12.3936 366.584 10.6612C366.584 8.92888 365.179 7.52454 363.447 7.52454C361.715 7.52454 360.31 8.92888 360.31 10.6612C360.31 12.3936 361.715 13.7979 363.447 13.7979Z" fill="#FF6584"/>
<path d="M350.946 13.7979C352.678 13.7979 354.083 12.3936 354.083 10.6612C354.083 8.92888 352.678 7.52454 350.946 7.52454C349.214 7.52454 347.809 8.92888 347.809 10.6612C347.809 12.3936 349.214 13.7979 350.946 13.7979Z" fill="#FF6584"/>
<path d="M338.445 13.7979C340.177 13.7979 341.582 12.3936 341.582 10.6612C341.582 8.92888 340.177 7.52454 338.445 7.52454C336.713 7.52454 335.308 8.92888 335.308 10.6612C335.308 12.3936 336.713 13.7979 338.445 13.7979Z" fill="#FF6584"/>
<path d="M375.948 26.8939C377.68 26.8939 379.085 25.4895 379.085 23.7572C379.085 22.0248 377.68 20.6205 375.948 20.6205C374.216 20.6205 372.811 22.0248 372.811 23.7572C372.811 25.4895 374.216 26.8939 375.948 26.8939Z" fill="#FF6584"/>
<path d="M363.447 26.8939C365.179 26.8939 366.584 25.4895 366.584 23.7572C366.584 22.0248 365.179 20.6205 363.447 20.6205C361.715 20.6205 360.31 22.0248 360.31 23.7572C360.31 25.4895 361.715 26.8939 363.447 26.8939Z" fill="#FF6584"/>
<path d="M350.946 26.8939C352.678 26.8939 354.083 25.4895 354.083 23.7572C354.083 22.0248 352.678 20.6205 350.946 20.6205C349.214 20.6205 347.809 22.0248 347.809 23.7572C347.809 25.4895 349.214 26.8939 350.946 26.8939Z" fill="#FF6584"/>
<path d="M338.445 26.8939C340.177 26.8939 341.582 25.4895 341.582 23.7572C341.582 22.0248 340.177 20.6205 338.445 20.6205C336.713 20.6205 335.308 22.0248 335.308 23.7572C335.308 25.4895 336.713 26.8939 338.445 26.8939Z" fill="#FF6584"/>
<path d="M375.948 39.99C377.68 39.99 379.085 38.5857 379.085 36.8534C379.085 35.121 377.68 33.7167 375.948 33.7167C374.216 33.7167 372.811 35.121 372.811 36.8534C372.811 38.5857 374.216 39.99 375.948 39.99Z" fill="#FF6584"/>
<path d="M363.447 39.99C365.179 39.99 366.584 38.5857 366.584 36.8534C366.584 35.121 365.179 33.7167 363.447 33.7167C361.715 33.7167 360.31 35.121 360.31 36.8534C360.31 38.5857 361.715 39.99 363.447 39.99Z" fill="#FF6584"/>
<path d="M350.946 39.99C352.678 39.99 354.083 38.5857 354.083 36.8534C354.083 35.121 352.678 33.7167 350.946 33.7167C349.214 33.7167 347.809 35.121 347.809 36.8534C347.809 38.5857 349.214 39.99 350.946 39.99Z" fill="#FF6584"/>
<path d="M338.445 39.99C340.177 39.99 341.582 38.5857 341.582 36.8534C341.582 35.121 340.177 33.7167 338.445 33.7167C336.713 33.7167 335.308 35.121 335.308 36.8534C335.308 38.5857 336.713 39.99 338.445 39.99Z" fill="#FF6584"/>
<path d="M375.948 53.0861C377.68 53.0861 379.085 51.6818 379.085 49.9494C379.085 48.2171 377.68 46.8127 375.948 46.8127C374.216 46.8127 372.811 48.2171 372.811 49.9494C372.811 51.6818 374.216 53.0861 375.948 53.0861Z" fill="#FF6584"/>
<path d="M363.447 53.0861C365.179 53.0861 366.584 51.6818 366.584 49.9494C366.584 48.2171 365.179 46.8127 363.447 46.8127C361.715 46.8127 360.31 48.2171 360.31 49.9494C360.31 51.6818 361.715 53.0861 363.447 53.0861Z" fill="#FF6584"/>
<path d="M350.946 53.0861C352.678 53.0861 354.083 51.6818 354.083 49.9494C354.083 48.2171 352.678 46.8127 350.946 46.8127C349.214 46.8127 347.809 48.2171 347.809 49.9494C347.809 51.6818 349.214 53.0861 350.946 53.0861Z" fill="#FF6584"/>
<path d="M338.445 53.0861C340.177 53.0861 341.582 51.6818 341.582 49.9494C341.582 48.2171 340.177 46.8127 338.445 46.8127C336.713 46.8127 335.308 48.2171 335.308 49.9494C335.308 51.6818 336.713 53.0861 338.445 53.0861Z" fill="#FF6584"/>
<path d="M375.948 66.1821C377.68 66.1821 379.085 64.7777 379.085 63.0454C379.085 61.313 377.68 59.9087 375.948 59.9087C374.216 59.9087 372.811 61.313 372.811 63.0454C372.811 64.7777 374.216 66.1821 375.948 66.1821Z" fill="#FF6584"/>
<path d="M363.447 66.1821C365.179 66.1821 366.584 64.7777 366.584 63.0454C366.584 61.313 365.179 59.9087 363.447 59.9087C361.715 59.9087 360.31 61.313 360.31 63.0454C360.31 64.7777 361.715 66.1821 363.447 66.1821Z" fill="#FF6584"/>
<path d="M350.946 66.1821C352.678 66.1821 354.083 64.7777 354.083 63.0454C354.083 61.313 352.678 59.9087 350.946 59.9087C349.214 59.9087 347.809 61.313 347.809 63.0454C347.809 64.7777 349.214 66.1821 350.946 66.1821Z" fill="#FF6584"/>
<path d="M338.445 66.1821C340.177 66.1821 341.582 64.7777 341.582 63.0454C341.582 61.313 340.177 59.9087 338.445 59.9087C336.713 59.9087 335.308 61.313 335.308 63.0454C335.308 64.7777 336.713 66.1821 338.445 66.1821Z" fill="#FF6584"/>
<path d="M375.948 79.2779C377.68 79.2779 379.085 77.8735 379.085 76.1412C379.085 74.4089 377.68 73.0045 375.948 73.0045C374.216 73.0045 372.811 74.4089 372.811 76.1412C372.811 77.8735 374.216 79.2779 375.948 79.2779Z" fill="#FF6584"/>
<path d="M363.447 79.2779C365.179 79.2779 366.584 77.8735 366.584 76.1412C366.584 74.4089 365.179 73.0045 363.447 73.0045C361.715 73.0045 360.31 74.4089 360.31 76.1412C360.31 77.8735 361.715 79.2779 363.447 79.2779Z" fill="#FF6584"/>
<path d="M350.946 79.2779C352.678 79.2779 354.083 77.8735 354.083 76.1412C354.083 74.4089 352.678 73.0045 350.946 73.0045C349.214 73.0045 347.809 74.4089 347.809 76.1412C347.809 77.8735 349.214 79.2779 350.946 79.2779Z" fill="#FF6584"/>
<path d="M338.445 79.2779C340.177 79.2779 341.582 77.8735 341.582 76.1412C341.582 74.4089 340.177 73.0045 338.445 73.0045C336.713 73.0045 335.308 74.4089 335.308 76.1412C335.308 77.8735 336.713 79.2779 338.445 79.2779Z" fill="#FF6584"/>
<path d="M388.515 216.178H0.485037C0.356397 216.178 0.233026 216.127 0.142064 216.036C0.0511016 215.945 0 215.822 0 215.693C0 215.564 0.0511016 215.441 0.142064 215.35C0.233026 215.259 0.356397 215.208 0.485037 215.208H388.515C388.644 215.208 388.767 215.259 388.858 215.35C388.949 215.441 389 215.564 389 215.693C389 215.822 388.949 215.945 388.858 216.036C388.767 216.127 388.644 216.178 388.515 216.178Z" fill="#3F3D56"/>
<path d="M200.933 92.4204H133.644C132.677 92.4193 131.75 92.0346 131.066 91.3507C130.382 90.6667 129.997 89.7395 129.996 88.7722V3.64817C129.997 2.68095 130.382 1.75366 131.066 1.06974C131.75 0.385811 132.677 0.00110018 133.644 0H200.933C201.9 0.00110148 202.827 0.385813 203.511 1.06975C204.195 1.75368 204.58 2.68097 204.581 3.64819V88.7723C204.58 89.7395 204.195 90.6668 203.511 91.3507C202.827 92.0346 201.9 92.4193 200.933 92.4204ZM133.644 0.81073C132.892 0.811572 132.171 1.11078 131.639 1.64273C131.107 2.17468 130.808 2.89591 130.807 3.64819V88.7723C130.808 89.5245 131.107 90.2458 131.639 90.7777C132.171 91.3097 132.892 91.6089 133.644 91.6097H200.933C201.685 91.6089 202.406 91.3097 202.938 90.7777C203.47 90.2458 203.769 89.5245 203.77 88.7723V3.64819C203.769 2.89591 203.47 2.17468 202.938 1.64274C202.406 1.11079 201.685 0.811573 200.933 0.81073H133.644Z" fill="#3F3D56"/>
<path d="M161.691 40.917H146.88C146.396 40.9165 145.932 40.7241 145.59 40.3821C145.248 40.0402 145.056 39.5765 145.055 39.0929V21.6143C145.056 21.1306 145.248 20.667 145.59 20.325C145.932 19.9831 146.396 19.7907 146.88 19.7902H161.691C162.175 19.7907 162.638 19.9831 162.98 20.325C163.322 20.667 163.515 21.1306 163.515 21.6143V39.0929C163.515 39.5765 163.322 40.0402 162.98 40.3821C162.638 40.7241 162.175 40.9165 161.691 40.917Z" fill="#6C63FF"/>
<path d="M190.471 49.0241H175.66C175.176 49.0235 174.712 48.8312 174.37 48.4892C174.028 48.1472 173.836 47.6836 173.836 47.2V29.7213C173.836 29.2377 174.028 28.774 174.37 28.4321C174.712 28.0901 175.176 27.8978 175.66 27.8972H190.471C190.955 27.8978 191.419 28.0901 191.76 28.4321C192.102 28.774 192.295 29.2377 192.295 29.7213V47.2C192.295 47.6836 192.102 48.1472 191.76 48.4892C191.419 48.8312 190.955 49.0235 190.471 49.0241Z" fill="#CCCCCC"/>
<path d="M167.366 73.7506H152.555C152.071 73.7501 151.607 73.5577 151.265 73.2158C150.923 72.8738 150.731 72.4101 150.73 71.9265V54.4479C150.731 53.9643 150.923 53.5006 151.265 53.1586C151.607 52.8167 152.071 52.6243 152.555 52.6238H167.366C167.85 52.6243 168.313 52.8167 168.655 53.1586C168.997 53.5006 169.19 53.9643 169.19 54.4479V71.9265C169.19 72.4101 168.997 72.8738 168.655 73.2158C168.313 73.5577 167.85 73.7501 167.366 73.7506Z" fill="#FF6584"/>
<path d="M56.2308 8.86993C57.9631 8.86993 59.3675 7.46558 59.3675 5.73324C59.3675 4.0009 57.9631 2.59656 56.2308 2.59656C54.4985 2.59656 53.0941 4.0009 53.0941 5.73324C53.0941 7.46558 54.4985 8.86993 56.2308 8.86993Z" fill="#F2F2F2"/>
<path d="M56.2308 21.371C57.9631 21.371 59.3675 19.9667 59.3675 18.2343C59.3675 16.502 57.9631 15.0977 56.2308 15.0977C54.4985 15.0977 53.0941 16.502 53.0941 18.2343C53.0941 19.9667 54.4985 21.371 56.2308 21.371Z" fill="#F2F2F2"/>
<path d="M56.2308 33.8719C57.9631 33.8719 59.3675 32.4675 59.3675 30.7352C59.3675 29.0029 57.9631 27.5985 56.2308 27.5985C54.4985 27.5985 53.0941 29.0029 53.0941 30.7352C53.0941 32.4675 54.4985 33.8719 56.2308 33.8719Z" fill="#F2F2F2"/>
<path d="M56.2308 46.373C57.9631 46.373 59.3675 44.9686 59.3675 43.2363C59.3675 41.504 57.9631 40.0996 56.2308 40.0996C54.4985 40.0996 53.0941 41.504 53.0941 43.2363C53.0941 44.9686 54.4985 46.373 56.2308 46.373Z" fill="#F2F2F2"/>
<path d="M69.3267 8.86993C71.0591 8.86993 72.4634 7.46558 72.4634 5.73324C72.4634 4.0009 71.0591 2.59656 69.3267 2.59656C67.5944 2.59656 66.1901 4.0009 66.1901 5.73324C66.1901 7.46558 67.5944 8.86993 69.3267 8.86993Z" fill="#F2F2F2"/>
<path d="M69.3267 21.371C71.0591 21.371 72.4634 19.9667 72.4634 18.2343C72.4634 16.502 71.0591 15.0977 69.3267 15.0977C67.5944 15.0977 66.1901 16.502 66.1901 18.2343C66.1901 19.9667 67.5944 21.371 69.3267 21.371Z" fill="#F2F2F2"/>
<path d="M69.3267 33.8719C71.0591 33.8719 72.4634 32.4675 72.4634 30.7352C72.4634 29.0029 71.0591 27.5985 69.3267 27.5985C67.5944 27.5985 66.1901 29.0029 66.1901 30.7352C66.1901 32.4675 67.5944 33.8719 69.3267 33.8719Z" fill="#F2F2F2"/>
<path d="M69.3267 46.373C71.0591 46.373 72.4634 44.9686 72.4634 43.2363C72.4634 41.504 71.0591 40.0996 69.3267 40.0996C67.5944 40.0996 66.1901 41.504 66.1901 43.2363C66.1901 44.9686 67.5944 46.373 69.3267 46.373Z" fill="#F2F2F2"/>
<path d="M82.4228 8.86993C84.1552 8.86993 85.5595 7.46558 85.5595 5.73324C85.5595 4.0009 84.1552 2.59656 82.4228 2.59656C80.6905 2.59656 79.2861 4.0009 79.2861 5.73324C79.2861 7.46558 80.6905 8.86993 82.4228 8.86993Z" fill="#F2F2F2"/>
<path d="M82.4228 21.371C84.1552 21.371 85.5595 19.9667 85.5595 18.2343C85.5595 16.502 84.1552 15.0977 82.4228 15.0977C80.6905 15.0977 79.2861 16.502 79.2861 18.2343C79.2861 19.9667 80.6905 21.371 82.4228 21.371Z" fill="#F2F2F2"/>
<path d="M82.4228 33.8719C84.1552 33.8719 85.5595 32.4675 85.5595 30.7352C85.5595 29.0029 84.1552 27.5985 82.4228 27.5985C80.6905 27.5985 79.2861 29.0029 79.2861 30.7352C79.2861 32.4675 80.6905 33.8719 82.4228 33.8719Z" fill="#F2F2F2"/>
<path d="M82.4228 46.373C84.1552 46.373 85.5595 44.9686 85.5595 43.2363C85.5595 41.504 84.1552 40.0996 82.4228 40.0996C80.6905 40.0996 79.2861 41.504 79.2861 43.2363C79.2861 44.9686 80.6905 46.373 82.4228 46.373Z" fill="#F2F2F2"/>
<path d="M95.5188 8.86993C97.2511 8.86993 98.6554 7.46558 98.6554 5.73324C98.6554 4.0009 97.2511 2.59656 95.5188 2.59656C93.7864 2.59656 92.3821 4.0009 92.3821 5.73324C92.3821 7.46558 93.7864 8.86993 95.5188 8.86993Z" fill="#F2F2F2"/>
<path d="M95.5188 21.371C97.2511 21.371 98.6554 19.9667 98.6554 18.2343C98.6554 16.502 97.2511 15.0977 95.5188 15.0977C93.7864 15.0977 92.3821 16.502 92.3821 18.2343C92.3821 19.9667 93.7864 21.371 95.5188 21.371Z" fill="#F2F2F2"/>
<path d="M95.5188 33.8719C97.2511 33.8719 98.6554 32.4675 98.6554 30.7352C98.6554 29.0029 97.2511 27.5985 95.5188 27.5985C93.7864 27.5985 92.3821 29.0029 92.3821 30.7352C92.3821 32.4675 93.7864 33.8719 95.5188 33.8719Z" fill="#F2F2F2"/>
<path d="M95.5188 46.373C97.2511 46.373 98.6554 44.9686 98.6554 43.2363C98.6554 41.504 97.2511 40.0996 95.5188 40.0996C93.7864 40.0996 92.3821 41.504 92.3821 43.2363C92.3821 44.9686 93.7864 46.373 95.5188 46.373Z" fill="#F2F2F2"/>
<path d="M108.615 8.86993C110.347 8.86993 111.752 7.46558 111.752 5.73324C111.752 4.0009 110.347 2.59656 108.615 2.59656C106.882 2.59656 105.478 4.0009 105.478 5.73324C105.478 7.46558 106.882 8.86993 108.615 8.86993Z" fill="#F2F2F2"/>
<path d="M108.615 21.371C110.347 21.371 111.752 19.9667 111.752 18.2343C111.752 16.502 110.347 15.0977 108.615 15.0977C106.882 15.0977 105.478 16.502 105.478 18.2343C105.478 19.9667 106.882 21.371 108.615 21.371Z" fill="#F2F2F2"/>
<path d="M108.615 33.8719C110.347 33.8719 111.752 32.4675 111.752 30.7352C111.752 29.0029 110.347 27.5985 108.615 27.5985C106.882 27.5985 105.478 29.0029 105.478 30.7352C105.478 32.4675 106.882 33.8719 108.615 33.8719Z" fill="#F2F2F2"/>
<path d="M108.615 46.373C110.347 46.373 111.752 44.9686 111.752 43.2363C111.752 41.504 110.347 40.0996 108.615 40.0996C106.882 40.0996 105.478 41.504 105.478 43.2363C105.478 44.9686 106.882 46.373 108.615 46.373Z" fill="#F2F2F2"/>
<path d="M121.711 8.86993C123.443 8.86993 124.847 7.46558 124.847 5.73324C124.847 4.0009 123.443 2.59656 121.711 2.59656C119.978 2.59656 118.574 4.0009 118.574 5.73324C118.574 7.46558 119.978 8.86993 121.711 8.86993Z" fill="#F2F2F2"/>
<path d="M121.711 21.371C123.443 21.371 124.847 19.9667 124.847 18.2343C124.847 16.502 123.443 15.0977 121.711 15.0977C119.978 15.0977 118.574 16.502 118.574 18.2343C118.574 19.9667 119.978 21.371 121.711 21.371Z" fill="#F2F2F2"/>
<path d="M121.711 33.8719C123.443 33.8719 124.847 32.4675 124.847 30.7352C124.847 29.0029 123.443 27.5985 121.711 27.5985C119.978 27.5985 118.574 29.0029 118.574 30.7352C118.574 32.4675 119.978 33.8719 121.711 33.8719Z" fill="#F2F2F2"/>
<path d="M121.711 46.373C123.443 46.373 124.847 44.9686 124.847 43.2363C124.847 41.504 123.443 40.0996 121.711 40.0996C119.978 40.0996 118.574 41.504 118.574 43.2363C118.574 44.9686 119.978 46.373 121.711 46.373Z" fill="#F2F2F2"/>
<path d="M87.8135 220.417C99.0677 220.417 108.191 211.294 108.191 200.04C108.191 188.786 99.0677 179.662 87.8135 179.662C76.5593 179.662 67.4359 188.786 67.4359 200.04C67.4359 211.294 76.5593 220.417 87.8135 220.417Z" fill="#2F2E41"/>
<path d="M80.0646 213.428L70.1471 218.394L72.9191 223.93L82.8366 218.963L80.0646 213.428Z" fill="#2F2E41"/>
<path d="M74.2265 223.368C74.8147 222.476 73.3632 220.482 70.9845 218.913C68.6059 217.345 66.2008 216.797 65.6126 217.689C65.0245 218.581 66.476 220.575 68.8547 222.143C71.2333 223.712 73.6384 224.26 74.2265 223.368Z" fill="#2F2E41"/>
<path d="M95.5624 213.428L92.7904 218.963L102.708 223.93L105.48 218.395L95.5624 213.428Z" fill="#2F2E41"/>
<path d="M106.772 222.143C109.151 220.575 110.602 218.58 110.014 217.688C109.426 216.796 107.021 217.345 104.642 218.913C102.264 220.482 100.812 222.476 101.4 223.368C101.989 224.26 104.394 223.712 106.772 222.143Z" fill="#2F2E41"/>
<path d="M86.3868 202.02C90.2332 202.02 93.3513 198.902 93.3513 195.055C93.3513 191.209 90.2332 188.091 86.3868 188.091C82.5405 188.091 79.4224 191.209 79.4224 195.055C79.4224 198.902 82.5405 202.02 86.3868 202.02Z" fill="white"/>
<path d="M82.3089 195.224C84.7938 193.331 87.6026 196.14 85.71 198.625C83.2252 200.517 80.4163 197.709 82.3089 195.224Z" fill="#3F3D56"/>
<path d="M103.889 177.871C104.195 170.327 97.6931 163.937 89.3662 163.599C81.0392 163.261 74.0405 169.102 73.734 176.646C73.4276 184.19 79.2159 185.904 87.5428 186.243C95.8698 186.581 103.582 185.415 103.889 177.871Z" fill="#CCCCCC"/>
<path d="M115.635 210.71C116.975 209.56 115.09 205.166 111.425 200.896C107.76 196.626 103.702 194.098 102.361 195.249C101.021 196.399 102.906 200.793 106.571 205.063C110.236 209.332 114.294 211.861 115.635 210.71Z" fill="#2F2E41"/>
<path d="M69.1129 205.063C72.7782 200.793 74.663 196.399 73.3226 195.248C71.9823 194.098 67.9243 196.626 64.259 200.896C60.5937 205.165 58.7089 209.559 60.0493 210.71C61.3896 211.861 65.4475 209.332 69.1129 205.063Z" fill="#2F2E41"/>
<path d="M93.4102 208.07C93.52 208.671 93.5104 209.286 93.3821 209.883C93.2537 210.479 93.0091 211.044 92.6621 211.546C92.3152 212.048 91.8728 212.477 91.3602 212.807C90.8475 213.138 90.2747 213.365 89.6745 213.474C89.0743 213.583 88.4585 213.573 87.8622 213.444C87.2659 213.315 86.7008 213.07 86.1993 212.723C85.6978 212.375 85.2697 211.933 84.9394 211.42C84.6091 210.907 84.3831 210.334 84.2743 209.734L84.2727 209.725C83.8159 207.201 85.7668 206.308 88.29 205.852C90.8133 205.395 92.9534 205.547 93.4102 208.07Z" fill="white"/>
<path d="M256.757 160.306H229.59C230.164 160.306 229.061 160.306 228.694 160.306C228.326 160.306 228.28 160.306 227.958 160.306H202.589C202.212 160.59 200.99 162.128 200.687 162.489C199.775 163.576 199.277 164.95 199.28 166.369V167.339C199.28 168.947 199.919 170.489 201.056 171.626C202.193 172.763 203.735 173.402 205.343 173.402H256.757C258.364 173.401 259.906 172.762 261.042 171.625C262.179 170.488 262.818 168.947 262.82 167.339V166.369C262.817 164.762 262.178 163.221 261.041 162.085C259.905 160.948 258.364 160.309 256.757 160.306Z" fill="#3F3D56"/>
<path d="M311.465 171.337H293.545C293.924 171.337 293.196 171.337 292.953 171.337C292.711 171.337 292.68 171.336 292.468 171.337H275.733C275.484 171.512 274.678 172.462 274.478 172.685C273.877 173.356 273.548 174.205 273.55 175.081V175.681C273.55 176.674 273.972 177.626 274.722 178.328C275.472 179.03 276.489 179.425 277.55 179.425H311.465C312.526 179.425 313.543 179.03 314.293 178.328C315.042 177.625 315.464 176.673 315.465 175.681V175.081C315.464 174.089 315.042 173.137 314.292 172.435C313.542 171.733 312.526 171.338 311.465 171.337Z" fill="#3F3D56"/>
<path d="M234.264 170.601H227.958V215.225H234.264V170.601Z" fill="#3F3D56"/>
<path d="M296.346 175.749H291.934V212.516H296.346V175.749Z" fill="#3F3D56"/>
<path d="M252.258 215.659C252.258 216.34 242.703 215.922 230.916 215.922C219.13 215.922 209.575 216.34 209.575 215.659C209.575 214.977 219.13 209.575 230.916 209.575C242.703 209.575 252.258 214.977 252.258 215.659Z" fill="#3F3D56"/>
<path d="M310.318 215.103C310.318 215.722 303.239 215.342 294.508 215.342C285.776 215.342 278.698 215.722 278.698 215.103C278.698 214.484 285.776 209.575 294.508 209.575C303.239 209.575 310.318 214.484 310.318 215.103Z" fill="#3F3D56"/>
<path d="M274.913 155.626H259.993V125.961C259.992 124.761 259.515 123.611 258.666 122.762C257.818 121.914 256.668 121.437 255.468 121.436H200.14C198.939 121.436 197.788 121.913 196.938 122.761C196.089 123.61 195.611 124.76 195.609 125.961V156.421C195.611 157.622 196.089 158.773 196.938 159.621C197.788 160.47 198.939 160.946 200.14 160.947H274.913C274.991 160.947 275.063 160.942 275.136 160.937C275.204 160.932 275.272 160.918 275.34 160.908C275.835 160.808 276.28 160.54 276.6 160.149C276.92 159.758 277.095 159.269 277.096 158.764V157.809C277.096 157.23 276.866 156.674 276.456 156.265C276.047 155.856 275.492 155.626 274.913 155.626ZM274.913 159.977H200.14C199.196 159.976 198.292 159.602 197.624 158.935C196.957 158.269 196.581 157.365 196.579 156.421V125.961C196.581 125.018 196.957 124.114 197.624 123.447C198.292 122.781 199.196 122.406 200.14 122.406H255.468C256.41 122.407 257.314 122.782 257.98 123.448C258.647 124.115 259.022 125.018 259.023 125.961V156.596H274.913C275.235 156.596 275.543 156.724 275.77 156.951C275.998 157.179 276.125 157.487 276.126 157.809V158.764C276.125 159.086 275.998 159.394 275.77 159.621C275.543 159.849 275.235 159.976 274.913 159.977Z" fill="#3F3D56"/>
<path d="M227.802 144.922C229.862 144.922 231.532 143.252 231.532 141.192C231.532 139.132 229.862 137.462 227.802 137.462C225.742 137.462 224.072 139.132 224.072 141.192C224.072 143.252 225.742 144.922 227.802 144.922Z" fill="#6C63FF"/>
<path d="M259.979 156.14H259.009V160.505H259.979V156.14Z" fill="#3F3D56"/>
<path d="M109.887 126.285C111.946 120.896 112.245 116.004 110.553 115.358C108.862 114.711 105.821 118.555 103.761 123.943C101.702 129.331 101.404 134.224 103.095 134.87C104.787 135.517 107.827 131.673 109.887 126.285Z" fill="#2F2E41"/>
<path d="M108.136 144.235C109.984 132.847 102.25 122.117 90.8623 120.269C79.4744 118.421 68.7446 126.154 66.8966 137.542C65.0486 148.93 72.7822 159.66 84.1701 161.508C95.5579 163.356 106.288 155.622 108.136 144.235Z" fill="#2F2E41"/>
<path d="M84.3432 157.282H77.9971V168.652H84.3432V157.282Z" fill="#2F2E41"/>
<path d="M97.0354 157.282H90.6893V168.652H97.0354V157.282Z" fill="#2F2E41"/>
<path d="M83.2855 170.768C86.2062 170.768 88.5739 169.88 88.5739 168.785C88.5739 167.689 86.2062 166.802 83.2855 166.802C80.3648 166.802 77.9971 167.689 77.9971 168.785C77.9971 169.88 80.3648 170.768 83.2855 170.768Z" fill="#2F2E41"/>
<path d="M95.9778 170.504C98.8985 170.504 101.266 169.616 101.266 168.52C101.266 167.425 98.8985 166.537 95.9778 166.537C93.057 166.537 90.6893 167.425 90.6893 168.52C90.6893 169.616 93.057 170.504 95.9778 170.504Z" fill="#2F2E41"/>
<path d="M88.2548 142.736C92.1961 142.62 95.2972 139.331 95.1814 135.39C95.0656 131.449 91.7766 128.348 87.8354 128.464C83.8941 128.579 80.793 131.868 80.9088 135.81C81.0246 139.751 84.3135 142.852 88.2548 142.736Z" fill="white"/>
<path d="M88.0451 137.98C89.3594 137.98 90.4249 136.914 90.4249 135.6C90.4249 134.285 89.3594 133.22 88.0451 133.22C86.7308 133.22 85.6653 134.285 85.6653 135.6C85.6653 136.914 86.7308 137.98 88.0451 137.98Z" fill="#3F3D56"/>
<path d="M67.2529 121.462C65.5662 113.908 70.958 106.275 79.2957 104.413C87.6335 102.552 95.7599 107.166 97.4466 114.72C99.1333 122.274 93.6076 125.06 85.2698 126.921C76.9321 128.783 68.9396 129.016 67.2529 121.462Z" fill="#6C63FF"/>
<path d="M73.425 135.671C74.201 134.035 70.605 130.705 65.3931 128.233C60.1812 125.761 55.327 125.083 54.551 126.72C53.775 128.356 57.371 131.686 62.5829 134.158C67.7948 136.63 72.649 137.307 73.425 135.671Z" fill="#2F2E41"/>
<path d="M77.2555 148.424C77.2555 150.469 82.5197 154.506 88.3612 154.506C94.2026 154.506 99.6796 148.75 99.6796 146.706C99.6796 144.661 94.2026 147.102 88.3612 147.102C82.5198 147.102 77.2555 146.38 77.2555 148.424Z" fill="white"/>
<path d="M127.828 136.411L112.452 139.412C112.203 139.462 111.946 139.454 111.701 139.389C111.455 139.324 111.228 139.204 111.036 139.038C110.84 138.87 110.685 138.659 110.583 138.422C110.48 138.185 110.433 137.928 110.446 137.67C110.708 131.365 109.482 125.086 106.868 119.342C106.76 119.108 106.706 118.852 106.712 118.594C106.718 118.336 106.782 118.082 106.9 117.853C107.016 117.627 107.182 117.43 107.385 117.278C107.588 117.125 107.823 117.021 108.072 116.973L123.448 113.972C123.841 113.896 124.249 113.962 124.598 114.158C124.947 114.354 125.215 114.668 125.354 115.043C127.628 121.362 128.922 127.991 129.191 134.701C129.203 135.102 129.073 135.493 128.823 135.806C128.574 136.119 128.221 136.333 127.828 136.411Z" fill="#FF6584"/>
<path d="M60.4082 150.477L45.0318 153.478C44.7828 153.528 44.5258 153.52 44.2803 153.455C44.0349 153.39 43.8075 153.27 43.6155 153.104C43.4195 152.936 43.2645 152.725 43.1622 152.488C43.06 152.251 43.0132 151.994 43.0253 151.736C43.2876 145.431 42.0621 139.152 39.4477 133.408C39.3395 133.174 39.2862 132.918 39.2918 132.66C39.2974 132.402 39.3619 132.149 39.4802 131.919C39.5957 131.693 39.7612 131.496 39.9642 131.344C40.1672 131.191 40.4024 131.087 40.6517 131.039L56.0281 128.038C56.4212 127.962 56.8284 128.028 57.1773 128.224C57.5262 128.42 57.7942 128.734 57.9335 129.109C60.208 135.428 61.5021 142.057 61.7708 148.767C61.7828 149.168 61.6525 149.559 61.403 149.872C61.1535 150.185 60.801 150.399 60.4082 150.477Z" fill="#CCCCCC"/>
<path d="M80.8433 221.255L65.4668 224.257C65.2178 224.306 64.9608 224.298 64.7154 224.233C64.4699 224.168 64.2425 224.048 64.0505 223.882C63.8546 223.714 63.6996 223.504 63.5973 223.267C63.495 223.03 63.4482 222.772 63.4604 222.514C63.7227 216.209 62.4971 209.931 59.8828 204.187C59.7745 203.953 59.7212 203.697 59.7268 203.438C59.7325 203.18 59.7969 202.927 59.9153 202.698C60.0307 202.471 60.1963 202.275 60.3993 202.122C60.6023 201.97 60.8374 201.866 61.0868 201.818L76.4632 198.816C76.8562 198.74 77.2635 198.806 77.6124 199.003C77.9613 199.199 78.2293 199.513 78.3686 199.888C80.6431 206.206 81.9371 212.836 82.2058 219.546C82.2179 219.946 82.0876 220.338 81.838 220.651C81.5885 220.964 81.236 221.178 80.8433 221.255Z" fill="#6C63FF"/>
<path d="M279.239 147.339C278.81 148.742 281.556 152.612 285.544 153.832C289.532 155.052 294.479 152.246 294.908 150.843C295.338 149.44 291.086 149.971 287.098 148.751C283.11 147.531 279.668 145.936 279.239 147.339Z" fill="white"/>
</svg>
