<svg width="105" height="104" viewBox="0 0 105 104" fill="none" xmlns="http://www.w3.org/2000/svg">
<path d="M0 51.5C0 22.5051 6.00505 0 35 0C63.9949 0 105 22.5051 105 51.5C105 80.4949 81.495 104 52.5 104C23.5051 104 0 80.4949 0 51.5Z" fill="#E27556"/>
<path d="M29.1034 68.2672V33.681C29.1034 31.1379 31.1379 29.1034 33.681 29.1034H68.0129C70.556 29.1034 72.5905 31.1379 72.5905 33.681V47.6681H78.694V33.681C78.9483 27.8319 74.1164 23 68.0129 23H33.681C27.8319 23 23 27.8319 23 33.681V68.0129C23 73.8621 27.8319 78.694 33.681 78.694H50.9741V72.5905H33.681C31.1379 72.8448 29.1034 70.556 29.1034 68.2672Z" fill="white"/>
<path d="M81.2369 58.0948L75.1335 51.9914C73.8619 50.7198 71.8274 50.7198 70.8102 51.9914L55.2973 67.5043C54.7886 68.0129 54.28 68.7759 54.28 69.7931V75.8966C54.28 77.6767 55.5516 78.9483 57.3318 78.9483H63.4352C64.1981 78.9483 64.9611 78.694 65.724 77.931L81.2369 62.4181C82.2542 61.4009 82.2542 59.3664 81.2369 58.0948Z" fill="white"/>
<path d="M54.0257 60.3837V54.0259H60.3834V47.9225H54.0257V41.5647H47.9222V47.9225H41.5645V54.0259H47.9222V60.3837H54.0257Z" fill="white"/>
</svg>
