<svg width="182" height="224" viewBox="0 0 182 224" fill="none" xmlns="http://www.w3.org/2000/svg">
<path d="M159.372 155.037L4.58302 133.837C2.07039 133.49 0.316213 131.199 0.661541 128.716L18.0625 4.70774C18.4138 2.22533 20.7327 0.492243 23.2462 0.833531L178.035 22.0329C180.548 22.38 182.302 24.6709 181.957 27.1541L164.556 151.162C164.204 153.645 161.885 155.378 159.372 155.037Z" fill="white"/>
<path d="M91.0132 116.551L11.9893 105.728C11.8902 105.715 11.7924 105.694 11.6973 105.664C38.7225 87.1618 54.8088 67.6099 58.0465 46.8253C58.9325 45.68 60.5906 45.4612 61.7498 46.3365C62.1307 46.6242 62.4252 47.0088 62.6018 47.4491L81.6622 93.8049L82.5757 96.0233L91.0132 116.551Z" fill="#BCB8B8"/>
<path opacity="0.2" d="M103.076 116.324L76.0955 112.63L92.0073 95.437L93.1531 94.1987L93.7256 93.5792L94.639 95.7977L103.076 116.324Z" fill="black"/>
<path d="M147.907 126.039L79.5576 116.679L95.4693 99.4861L96.6146 98.2475L117.349 75.8422C118.76 74.5165 120.992 74.5719 122.334 75.9659C122.419 76.055 122.5 76.1484 122.576 76.2459C122.652 76.3549 122.721 76.4685 122.782 76.5862C122.424 94.0358 129.63 110.65 147.907 126.039Z" fill="#BCB8B8"/>
<path d="M91.3763 83.0013C97.9036 83.0013 103.195 77.7737 103.195 71.3252C103.195 64.8766 97.9036 59.649 91.3763 59.649C84.849 59.649 79.5576 64.8766 79.5576 71.3252C79.5576 77.7737 84.849 83.0013 91.3763 83.0013Z" fill="#BD85F0"/>
<path d="M29.7107 23.4769C33.9228 23.4769 37.3373 20.1035 37.3373 15.9422C37.3373 11.7809 33.9228 8.40747 29.7107 8.40747C25.4986 8.40747 22.084 11.7809 22.084 15.9422C22.084 20.1035 25.4986 23.4769 29.7107 23.4769Z" fill="#3F3D56"/>
<path d="M46.2386 167.852C48.5284 166.987 48.1246 160.445 45.3367 153.238C42.5488 146.032 38.4325 140.892 36.1427 141.756C33.8528 142.621 34.2566 149.164 37.0446 156.37C39.8325 163.576 43.9488 168.716 46.2386 167.852Z" fill="#2F2E41"/>
<path d="M56.8886 154.162C72.3043 151.691 86.8291 162.034 89.3307 177.263C91.8323 192.493 81.3634 200.356 65.9478 202.827C50.5321 205.299 36.0073 201.443 33.5056 186.213C31.004 170.983 41.4729 156.634 56.8886 154.162Z" fill="#2F2E41"/>
<path d="M74.304 198.474L65.7139 203.663L67.3947 221.874L74.3191 220.015L74.304 198.474Z" fill="#2F2E41"/>
<path d="M55.5305 199.521H46.8142L48.5196 222.183L55.228 219.724L55.5305 199.521Z" fill="#2F2E41"/>
<path d="M48.422 222.777C52.3652 222.492 55.4742 221.077 55.3661 219.616C55.258 218.155 51.9737 217.201 48.0305 217.486C44.0872 217.771 40.9783 219.186 41.0864 220.647C41.1945 222.108 44.4788 223.061 48.422 222.777Z" fill="#2F2E41"/>
<path d="M60.7026 184.214C66.0402 184.214 70.3671 179.939 70.3671 174.666C70.3671 169.392 66.0402 165.118 60.7026 165.118C55.365 165.118 51.0381 169.392 51.0381 174.666C51.0381 179.939 55.365 184.214 60.7026 184.214Z" fill="white"/>
<path d="M60.7022 177.848C62.4814 177.848 63.9238 176.423 63.9238 174.666C63.9238 172.908 62.4814 171.483 60.7022 171.483C58.923 171.483 57.4807 172.908 57.4807 174.666C57.4807 176.423 58.923 177.848 60.7022 177.848Z" fill="#3F3D56"/>
<path d="M94.8692 164.894C99.5085 158.689 101.671 152.492 99.6991 151.053C97.7273 149.614 92.3679 153.478 87.7286 159.684C83.0893 165.889 80.9269 172.086 82.8987 173.525C84.8705 174.963 90.2299 171.099 94.8692 164.894Z" fill="#2F2E41"/>
<path d="M68.9852 192.536C68.8008 194.782 62.5832 198.736 56.0879 198.203C49.5926 197.67 44.0215 190.846 44.2059 188.601C44.3903 186.355 50.2603 189.536 56.7556 190.069C63.2509 190.603 69.1696 190.29 68.9852 192.536Z" fill="white"/>
<path d="M88.8488 155.758C91.1321 145.656 83.8333 135.448 72.5465 132.958C61.2598 130.468 50.259 136.639 47.9757 146.741C45.6924 156.844 53.1726 160.57 64.4594 163.059C75.7462 165.549 86.5655 165.86 88.8488 155.758V155.758Z" fill="#F2F2F2"/>
<path d="M67.2611 222.732C71.2044 222.447 74.3133 221.032 74.2052 219.571C74.0971 218.11 70.8128 217.156 66.8696 217.441C62.9264 217.726 59.8174 219.141 59.9255 220.602C60.0336 222.063 63.3179 223.016 67.2611 222.732Z" fill="#2F2E41"/>
</svg>
