<svg width="346" height="246" viewBox="0 0 346 246" fill="none" xmlns="http://www.w3.org/2000/svg">
<path d="M278.889 8.55139C281.28 8.55139 283.217 6.63709 283.217 4.27569C283.217 1.91429 281.28 0 278.889 0C276.499 0 274.562 1.91429 274.562 4.27569C274.562 6.63709 276.499 8.55139 278.889 8.55139Z" fill="white"/>
<path d="M344.487 203.088V207.447H132.487L132.646 206.901V203.088H344.487Z" fill="#CCCCCC"/>
<path d="M326.496 245.038H331L327.471 12H325.706L325.776 16.6491H286.224L286.294 12H284.529L281 245.038H285.504L282.994 229.928H329.006L326.496 245.038ZM324.637 77.0878H285.308L285.74 48.6119H326.26L324.637 77.0878ZM326.718 78.8312L325.095 107.307H286.906L285.282 78.8312H326.718ZM327.176 109.051L325.552 137.526H285.763L284.824 109.051H327.176ZM327.633 139.27L326.01 167.746H285.305L284.367 139.27H327.633ZM328.091 169.489L326.468 197.965H284.848L283.909 169.489H328.091ZM325.803 18.3926L326.234 46.8685H285.766L286.197 18.3926H325.803ZM288.943 233.585L283.451 199.709H328.549L319.914 234.281L288.943 233.585Z" fill="#3F3D56"/>
<path d="M302.344 37.6013C317.579 37.6013 329.929 49.8026 329.929 64.8536C329.929 79.9047 317.579 85.6192 302.344 85.6192C287.109 85.6192 274.759 79.9047 274.759 64.8536C274.759 49.8026 287.109 37.6013 302.344 37.6013Z" fill="#2F2E41"/>
<path d="M310.323 85.162L318.569 81.0925L321.244 98.2835L312.998 99.7583L310.323 85.162Z" fill="#2F2E41"/>
<path d="M301.486 83.4125L293.24 84.8873L296.506 102.708L304.752 101.233L301.486 83.4125Z" fill="#2F2E41"/>
<path d="M300.708 106.901C303.652 104.439 305.28 101.558 304.345 100.468C303.41 99.3775 300.267 100.49 297.323 102.952C294.38 105.415 292.752 108.295 293.687 109.386C294.621 110.476 297.765 109.364 300.708 106.901Z" fill="#2F2E41"/>
<path d="M317.032 102.892C319.975 100.429 321.603 97.5488 320.669 96.4584C319.734 95.368 316.59 96.4803 313.647 98.9429C310.704 101.405 309.076 104.286 310.01 105.376C310.945 106.467 314.089 105.354 317.032 102.892Z" fill="#2F2E41"/>
<path d="M300.413 67.5016C305.62 67.5016 309.841 63.3315 309.841 58.1875C309.841 53.0435 305.62 48.8734 300.413 48.8734C295.206 48.8734 290.985 53.0435 290.985 58.1875C290.985 63.3315 295.206 67.5016 300.413 67.5016Z" fill="white"/>
<path d="M296.538 57.9538C298.273 57.9538 299.68 56.5638 299.68 54.8491C299.68 53.1344 298.273 51.7444 296.538 51.7444C294.802 51.7444 293.395 53.1344 293.395 54.8491C293.395 56.5638 294.802 57.9538 296.538 57.9538Z" fill="#3F3D56"/>
<path d="M324.105 35.2061C324.519 25.1168 315.718 16.5712 304.446 16.1189C293.174 15.6665 283.699 23.4787 283.285 33.5679C282.87 43.6572 290.705 45.9495 301.977 46.4019C313.25 46.8542 323.69 45.2953 324.105 35.2061Z" fill="white"/>
<path d="M290.317 62.9331C290.851 60.6304 285.265 57.4006 277.84 55.7192C270.415 54.0378 263.963 54.5416 263.429 56.8444C262.895 59.1471 268.481 62.3769 275.906 64.0583C283.33 65.7397 289.782 65.2359 290.317 62.9331Z" fill="#2F2E41"/>
<path d="M344.465 71.8294C344.999 69.5266 339.413 66.2968 331.988 64.6155C324.564 62.9341 318.112 63.4378 317.577 65.7406C317.043 68.0434 322.629 71.2732 330.054 72.9545C337.479 74.6359 343.931 74.1322 344.465 71.8294Z" fill="#2F2E41"/>
<path d="M309.92 75.5934C310.542 78.9673 308.277 82.2003 304.862 82.8145C301.447 83.4287 298.175 81.1915 297.553 77.8176L297.551 77.8056C296.933 74.4311 299.573 73.237 302.989 72.6261C306.405 72.0152 309.302 72.2189 309.92 75.5934Z" fill="white"/>
<path d="M208.915 157.413C211.703 150.207 212.107 143.664 209.817 142.8C207.527 141.935 203.411 147.076 200.623 154.282C197.835 161.488 197.431 168.03 199.721 168.895C202.011 169.76 206.127 164.619 208.915 157.413Z" fill="#2F2E41"/>
<path d="M150.719 172.468C153.221 157.239 167.745 146.896 183.161 149.367C198.577 151.839 209.046 166.189 206.544 181.418C204.043 196.648 189.518 200.504 174.102 198.033C158.686 195.561 148.217 187.698 150.719 172.468Z" fill="#2F2E41"/>
<path d="M165.745 193.679L174.336 198.868V214.074H165.745V193.679Z" fill="#2F2E41"/>
<path d="M191.757 196.987H183.041V214.42H191.757V196.987Z" fill="#2F2E41"/>
<path d="M172.904 216.904C176.858 216.904 180.063 215.716 180.063 214.251C180.063 212.787 176.858 211.599 172.904 211.599C168.951 211.599 165.745 212.787 165.745 214.251C165.745 215.716 168.951 216.904 172.904 216.904Z" fill="#2F2E41"/>
<path d="M190.2 217.109C194.154 217.109 197.359 215.922 197.359 214.457C197.359 212.992 194.154 211.805 190.2 211.805C186.246 211.805 183.041 212.992 183.041 214.457C183.041 215.922 186.246 217.109 190.2 217.109Z" fill="#2F2E41"/>
<path d="M151.201 150.963C148.918 140.861 156.217 130.653 167.504 128.163C178.79 125.673 189.791 131.844 192.074 141.946C194.358 152.049 186.877 155.775 175.591 158.265C164.304 160.754 153.485 161.065 151.201 150.963H151.201Z" fill="white"/>
<path d="M159.556 169.967C160.607 167.778 155.739 163.325 148.683 160.019C141.628 156.713 135.057 155.807 134.007 157.995C132.956 160.183 137.824 164.637 144.879 167.943C151.935 171.249 158.506 172.155 159.556 169.967Z" fill="#2F2E41"/>
<path d="M56.1913 177.294C71.8086 177.294 84.469 189.801 84.469 205.231C84.469 220.66 71.8086 226.68 56.1913 226.68C40.5739 226.68 27.9136 220.66 27.9136 205.231C27.9136 189.801 40.5739 177.294 56.1913 177.294Z" fill="#2F2E41"/>
<path d="M43.3054 221.966L51.8961 227.155V242.361H43.3054V221.966Z" fill="#2F2E41"/>
<path d="M68.8583 224.007H60.1421V242.312H68.8583V224.007Z" fill="#2F2E41"/>
<path d="M50.4643 245.191C54.4181 245.191 57.6233 244.003 57.6233 242.538C57.6233 241.074 54.4181 239.886 50.4643 239.886C46.5106 239.886 43.3054 241.074 43.3054 242.538C43.3054 244.003 46.5106 245.191 50.4643 245.191Z" fill="#2F2E41"/>
<path d="M67.301 245.001C71.2548 245.001 74.4599 243.814 74.4599 242.349C74.4599 240.884 71.2548 239.697 67.301 239.697C63.3473 239.697 60.1421 240.884 60.1421 242.349C60.1421 243.814 63.3473 245.001 67.301 245.001Z" fill="#2F2E41"/>
<path d="M56.9075 207.706C62.245 207.706 66.572 203.431 66.572 198.158C66.572 192.885 62.245 188.61 56.9075 188.61C51.5699 188.61 47.2429 192.885 47.2429 198.158C47.2429 203.431 51.5699 207.706 56.9075 207.706Z" fill="white"/>
<path d="M56.9076 201.341C58.6868 201.341 60.1291 199.916 60.1291 198.158C60.1291 196.4 58.6868 194.975 56.9076 194.975C55.1284 194.975 53.686 196.4 53.686 198.158C53.686 199.916 55.1284 201.341 56.9076 201.341Z" fill="#3F3D56"/>
<path d="M28.7613 179.25C26.478 169.148 33.7768 158.94 45.0636 156.45C56.3504 153.96 67.3511 160.131 69.6344 170.234C71.9177 180.336 64.4375 184.062 53.1507 186.552C41.8639 189.041 31.0446 189.352 28.7613 179.25L28.7613 179.25Z" fill="#E6E6E6"/>
<path d="M76.8101 105.426C79.598 98.22 80.0018 91.6774 77.712 90.8127C75.4222 89.9481 71.3059 95.0888 68.518 102.295C65.73 109.501 65.3262 116.044 67.616 116.908C69.9059 117.773 74.0222 112.632 76.8101 105.426Z" fill="#2F2E41"/>
<path d="M18.6143 120.482C21.1159 105.252 35.6408 94.9094 51.0564 97.3808C66.4721 99.8523 76.941 114.202 74.4394 129.432C71.9378 144.662 57.4129 148.517 41.9973 146.046C26.5816 143.575 16.1127 135.712 18.6143 120.482Z" fill="#2F2E41"/>
<path d="M33.6411 141.692L42.2318 146.882V162.088H33.6411V141.692Z" fill="#2F2E41"/>
<path d="M59.2704 145.561H50.5542V162.122H59.2704V145.561Z" fill="#2F2E41"/>
<path d="M40.8 164.917C44.7538 164.917 47.959 163.729 47.959 162.265C47.959 160.8 44.7538 159.612 40.8 159.612C36.8463 159.612 33.6411 160.8 33.6411 162.265C33.6411 163.729 36.8463 164.917 40.8 164.917Z" fill="#2F2E41"/>
<path d="M57.7131 164.812C61.6669 164.812 64.872 163.624 64.872 162.159C64.872 160.695 61.6669 159.507 57.7131 159.507C53.7594 159.507 50.5542 160.695 50.5542 162.159C50.5542 163.624 53.7594 164.812 57.7131 164.812Z" fill="#2F2E41"/>
<path d="M47.2429 127.432C52.5805 127.432 56.9074 123.157 56.9074 117.884C56.9074 112.611 52.5805 108.336 47.2429 108.336C41.9053 108.336 37.5784 112.611 37.5784 117.884C37.5784 123.157 41.9053 127.432 47.2429 127.432Z" fill="white"/>
<path d="M47.243 121.067C49.0222 121.067 50.4645 119.642 50.4645 117.884C50.4645 116.126 49.0222 114.701 47.243 114.701C45.4638 114.701 44.0215 116.126 44.0215 117.884C44.0215 119.642 45.4638 121.067 47.243 121.067Z" fill="#3F3D56"/>
<path d="M19.0968 98.9764C16.8135 88.8741 24.1123 78.6661 35.399 76.1763C46.6858 73.6864 57.6866 79.8576 59.9699 89.9599C62.2531 100.062 54.773 103.788 43.4862 106.278C32.1994 108.768 21.38 109.079 19.0968 98.9764H19.0968Z" fill="white"/>
<path d="M27.4518 117.98C28.5023 115.792 23.6344 111.338 16.579 108.032C9.52365 104.726 2.95256 103.82 1.90208 106.008C0.851588 108.196 5.7195 112.65 12.7749 115.956C19.8302 119.262 26.4013 120.168 27.4518 117.98Z" fill="#2F2E41"/>
<path d="M32.6372 135.035C32.6372 137.769 39.7634 143.168 47.6709 143.168C55.5784 143.168 62.9926 135.471 62.9926 132.736C62.9926 130.002 55.5784 133.267 47.6709 133.267C39.7634 133.267 32.6372 132.301 32.6372 135.035Z" fill="white"/>
<path d="M74.3287 18.286C73.2413 18.2871 72.3601 19.1577 72.3589 20.232V100.668C72.3601 101.742 73.2413 102.612 74.3287 102.614H262.771C263.858 102.612 264.739 101.742 264.741 100.668V20.232C264.739 19.1577 263.858 18.2871 262.771 18.286L74.3287 18.2859V18.286Z" fill="white"/>
<path d="M125.211 79.3399C135.771 79.3399 144.331 70.8825 144.331 60.4498C144.331 50.0171 135.771 41.5597 125.211 41.5597C114.651 41.5597 106.09 50.0171 106.09 60.4498C106.09 70.8825 114.651 79.3399 125.211 79.3399Z" fill="#DCA9FF"/>
<path d="M168.365 57.9366C167.131 57.9566 166.146 58.9617 166.167 60.1815C166.186 61.3731 167.159 62.3343 168.365 62.3538H228.736C229.971 62.3739 230.988 61.4013 231.009 60.1815C231.029 58.9617 230.044 57.9566 228.81 57.9366C228.785 57.9362 228.761 57.9362 228.736 57.9366H168.365H168.365Z" fill="#DCA9FF"/>
<path d="M168.365 45.1401C167.131 45.1601 166.146 46.1652 166.167 47.385C166.186 48.5765 167.159 49.5378 168.365 49.5573H198.513C199.748 49.5777 200.766 48.6054 200.786 47.3856C200.807 46.1659 199.823 45.1605 198.588 45.1401L198.587 45.1401C198.562 45.1397 198.538 45.1397 198.513 45.1401H168.365Z" fill="#DCA9FF"/>
<path d="M168.365 71.3424C167.131 71.3624 166.146 72.3675 166.167 73.5873C166.186 74.7788 167.159 75.7401 168.365 75.7596H228.736C229.971 75.7797 230.988 74.8071 231.009 73.5873C231.029 72.3675 230.044 71.3624 228.81 71.3424C228.785 71.3419 228.761 71.3419 228.736 71.3424H168.365H168.365Z" fill="#DCA9FF"/>
<path d="M183.687 54.0055C187.899 54.0055 191.314 50.632 191.314 46.4707C191.314 42.3094 187.899 38.936 183.687 38.936C179.475 38.936 176.061 42.3094 176.061 46.4707C176.061 50.632 179.475 54.0055 183.687 54.0055Z" fill="#3F3D56"/>
<path d="M203.863 67.4235C208.075 67.4235 211.489 64.0501 211.489 59.8888C211.489 55.7275 208.075 52.3541 203.863 52.3541C199.651 52.3541 196.236 55.7275 196.236 59.8888C196.236 64.0501 199.651 67.4235 203.863 67.4235Z" fill="#3F3D56"/>
<path d="M220.896 81.0858C225.108 81.0858 228.523 77.7124 228.523 73.5511C228.523 69.3898 225.108 66.0164 220.896 66.0164C216.684 66.0164 213.27 69.3898 213.27 73.5511C213.27 77.7124 216.684 81.0858 220.896 81.0858Z" fill="#3F3D56"/>
</svg>
