<svg width="105" height="96" viewBox="0 0 105 96" fill="none" xmlns="http://www.w3.org/2000/svg">
<path d="M14.2557 56.5125C13.8584 56.5118 13.479 56.3517 13.2013 56.0673L6.69059 49.5566C-4.83261 38.0574 0.0157536 22.1068 10.0168 11.4045C13.0021 8.14686 16.4698 5.36684 20.2981 3.16021C25.7784 0.138316 40.7451 -3.25744 50.4881 6.20455L70.0676 25.762C71.0689 26.5593 71.6716 27.7546 71.7167 29.0336C71.7613 30.3126 71.245 31.547 70.3022 32.4128C67.0704 35.6686 58.4747 36.7456 53.2043 31.5464L48.2862 26.698C45.7568 24.3558 42.923 25.0821 38.5431 26.417C33.5545 27.9159 27.3482 29.7896 20.5556 24.4264C20.248 24.1865 20.0493 23.833 20.0055 23.445C19.9616 23.0577 20.0752 22.6683 20.3211 22.3653C20.8214 21.7288 21.741 21.6138 22.3821 22.1082C27.9799 26.5345 32.9213 25.0357 37.6992 23.5839C41.9616 22.2956 46.3647 20.984 50.2995 24.544L55.2647 29.4388H55.2654C56.9969 31.046 59.2267 32.0108 61.5835 32.1729C63.9408 32.335 66.2817 31.6838 68.2172 30.3284C68.8025 29.743 69.1773 29.04 68.0065 27.846L48.427 8.31241C39.8313 -0.0023002 26.5053 3.04221 21.7512 5.71252C18.1812 7.77423 14.9508 10.3728 12.1715 13.418C3.83413 22.3646 -2.06797 36.6749 8.77553 47.4946L15.2869 54.006C15.5673 54.2751 15.7261 54.6471 15.7261 55.0358C15.7261 55.4252 15.5673 55.7973 15.2869 56.0664C15.0218 56.3541 14.6471 56.5155 14.2564 56.5115L14.2557 56.5125Z" fill="#B89A00"/>
<path d="M90.4188 53.4218C90.0268 53.4205 89.6501 53.2696 89.365 53.0005C88.8029 52.4192 88.8029 51.4969 89.365 50.9162L95.8757 44.4986C106.181 34.1932 101.942 20.4217 93.5335 11.9902C85.1258 3.55861 70.8396 -1.40677 60.042 9.08599L55.6621 13.4419C55.0721 13.9037 54.2302 13.8505 53.7033 13.3177C53.1764 12.7848 53.1325 11.9423 53.601 11.3577L57.9809 7.02488C69.6915 -4.38146 85.8287 -0.165505 95.7111 9.88195C105.08 19.2504 109.764 34.8024 98.0533 46.5117L91.3545 52.9999C91.104 53.2498 90.7712 53.3999 90.4177 53.4212L90.4188 53.4218Z" fill="#B89A00"/>
<path d="M18.1666 69.2779C16.3168 69.258 14.5493 68.5092 13.2485 67.1936C11.6558 65.7418 10.6984 63.7213 10.5848 61.5686C10.4705 59.4166 11.2087 57.3062 12.6392 55.6937L37.8403 29.2747C38.4137 28.7903 39.2602 28.8136 39.8057 29.3292C40.3519 29.8455 40.423 30.6886 39.9719 31.2887L14.7707 57.7077C13.8764 58.7615 13.4299 60.1228 13.5262 61.5016C13.6226 62.8797 14.2545 64.166 15.2864 65.0855C16.1674 65.9772 17.4006 66.431 18.6503 66.322C19.8995 66.2137 21.0362 65.5539 21.7506 64.5234L33.4613 52.3444H33.4606C34.0367 51.7696 34.9695 51.7696 35.5456 52.3444C36.1077 52.9251 36.1077 53.8473 35.5456 54.4287L23.835 66.6078C22.3898 68.235 20.3414 69.1997 18.1668 69.2774L18.1666 69.2779Z" fill="#B89A00"/>
<path d="M27.7678 78.1535C25.4709 78.1196 23.2743 77.2061 21.6312 75.6008C20.0598 74.1882 19.1621 72.1742 19.1621 70.0615C19.1621 67.9487 20.0597 65.9347 21.6312 64.5229L34.4195 51.5239C34.9949 50.9492 35.9278 50.9492 36.5039 51.5239C36.7843 51.7937 36.9431 52.1658 36.9431 52.5545C36.9431 52.9432 36.7843 53.3159 36.5039 53.585L23.8332 66.7008C22.7914 67.5313 22.1695 68.7798 22.1336 70.112C22.0971 71.4435 22.6506 72.7238 23.6459 73.6095C24.5482 74.6128 25.8112 75.2174 27.1586 75.2925C28.5061 75.3669 29.8283 74.9051 30.8356 74.0082L43.8105 60.6816H43.8112C44.3872 60.1069 45.3194 60.1069 45.8955 60.6816C46.1772 60.9547 46.3367 61.3308 46.3367 61.7234C46.3367 62.1161 46.1772 62.4922 45.8955 62.7659L32.9206 76.1156C31.5545 77.4717 29.6922 78.2086 27.7679 78.1533L27.7678 78.1535Z" fill="#B89A00"/>
<path d="M38.1437 86.1174C35.9199 86.0868 33.791 85.2071 32.195 83.6577C30.6369 82.2278 29.7685 80.1973 29.8085 78.0832C29.849 75.9689 30.7945 73.973 32.4058 72.6036C32.9872 72.0415 33.9094 72.0415 34.4901 72.6036C35.0649 73.1796 35.0649 74.1118 34.4901 74.6879C33.4516 75.4926 32.8191 76.7124 32.7606 78.0253C32.7015 79.3376 33.2231 80.6092 34.1858 81.5036C35.0888 82.4577 36.3293 83.0211 37.6414 83.0736C38.9544 83.1261 40.2354 82.663 41.212 81.784L47.6996 75.226V75.2267C48.281 74.6646 49.2032 74.6646 49.7839 75.2267C50.0663 75.4998 50.2251 75.8758 50.2251 76.2685C50.2251 76.6612 50.0663 77.0372 49.7839 77.311L43.2964 83.8457V83.845C41.9542 85.2649 40.0971 86.0841 38.1437 86.1173L38.1437 86.1174Z" fill="#B89A00"/>
<path d="M57.3016 95.2514C55.3176 95.262 53.4114 94.4773 52.0088 93.0734L45.9897 87.0542C44.5824 85.6523 43.791 83.7474 43.791 81.7607C43.791 79.7747 44.5823 77.8698 45.9897 76.4679L46.692 75.7656V75.765C47.9776 74.456 49.7084 73.6786 51.5403 73.5869C50.438 72.1378 49.8979 70.3391 50.0181 68.5227C50.1384 66.7062 50.9124 64.9946 52.1962 63.7036L52.8985 63.0245C54.2612 61.6804 56.0911 60.9162 58.0047 60.8931C56.6712 59.5104 55.9311 57.6613 55.9437 55.7404C55.9317 53.7485 56.7164 51.8349 58.1217 50.4236L58.824 49.7446H58.8247C60.22 48.3273 62.1282 47.5334 64.1175 47.5434C66.1127 47.5354 68.0283 48.3281 69.4343 49.7446L71.0502 51.3605C71.0994 49.4643 71.8801 47.6596 73.2282 46.3253L73.9312 45.6224C75.3332 44.2184 77.2394 43.4338 79.224 43.4443C81.2087 43.4337 83.1149 44.2184 84.5168 45.6224L93.4873 54.5928C94.8958 55.9987 95.6879 57.9069 95.6879 59.8977C95.6879 61.8876 94.8959 63.7966 93.4873 65.2026L92.8082 65.9049C91.397 67.3108 89.4834 68.0948 87.4914 68.0829C86.9087 68.0803 86.328 68.0172 85.7585 67.8962C85.8522 68.366 85.8994 68.845 85.8987 69.3247C85.9107 71.316 85.1266 73.2303 83.7206 74.6409L83.0183 75.3199L83.0177 75.3206C82.0529 76.286 80.8437 76.9704 79.5188 77.3C78.1946 77.6302 76.8053 77.5936 75.4997 77.1943C75.8213 79.5079 75.0412 81.8394 73.3921 83.4944L72.6897 84.1967H72.6891C71.7549 85.1276 70.5915 85.7947 69.3171 86.1322C68.0421 86.4691 66.7013 86.4644 65.429 86.1176C65.4522 86.4605 65.4522 86.8046 65.429 87.1482C65.417 89.1143 64.635 90.9979 63.2509 92.3945L62.5719 93.0736C61.1692 94.4636 59.2763 95.2457 57.3017 95.2516L57.3016 95.2514ZM48.753 77.8508L48.074 78.5298C47.2175 79.3823 46.7358 80.541 46.7358 81.7504C46.7358 82.959 47.2175 84.1178 48.074 84.9703L54.0931 90.9894V90.9901C54.9376 91.8512 56.0956 92.3329 57.3016 92.3249C58.5155 92.3342 59.6808 91.8525 60.534 90.9901L61.2131 90.311V90.3103C62.0715 89.4546 62.5519 88.2905 62.5479 87.0786C62.5566 85.8719 62.0749 84.7146 61.2131 83.8701L55.194 77.8509C54.3415 76.9938 53.1821 76.5121 51.9734 76.5121C50.7648 76.5121 49.606 76.9938 48.7528 77.8509L48.753 77.8508ZM58.2856 63.7981C57.0763 63.8094 55.9182 64.2871 55.0531 65.133L54.3741 65.812C53.5156 66.6685 53.0352 67.8319 53.0392 69.0445C53.0306 70.2504 53.513 71.4084 54.3741 72.253L64.1645 81.9723C65.017 82.8294 66.1757 83.3111 67.3844 83.3111C68.5937 83.3111 69.7524 82.8294 70.605 81.9723L71.3073 81.27H71.3079C72.1644 80.4176 72.6461 79.2581 72.6461 78.0495C72.6461 76.8408 72.1644 75.6821 71.3079 74.8289L61.4943 65.1095C60.6485 64.2504 59.4918 63.7687 58.2859 63.7747L58.2856 63.7981ZM64.1173 50.4485C62.916 50.4418 61.7611 50.9136 60.9088 51.76L60.2065 52.4623H60.2058C59.3693 53.3308 58.8995 54.4882 58.8942 55.6941C58.8876 56.8961 59.36 58.0503 60.2058 58.9033L74.4924 73.1898H74.493C75.3641 74.0204 76.5216 74.4835 77.7248 74.4835C78.9281 74.4835 80.0855 74.0204 80.9566 73.1898L81.6356 72.5108H81.6363C82.4987 71.6577 82.9804 70.4916 82.9712 69.2783C82.9791 68.0724 82.4974 66.9143 81.6363 66.0698L67.3498 51.76H67.3491C66.4813 50.9228 65.3233 50.453 64.1173 50.4484L64.1173 50.4485ZM79.2237 46.3264C78.0111 46.3224 76.8476 46.8028 75.9919 47.6612L75.3128 48.3635H75.3121C74.4623 49.1967 73.982 50.3356 73.9773 51.5256C73.9733 52.7382 74.4537 53.9016 75.3121 54.7574L84.3292 63.7511C85.1823 64.5976 86.3371 65.0693 87.5383 65.0627C88.7443 65.058 89.9018 64.5883 90.7701 63.7511L91.4724 63.0488H91.4731C92.2963 62.1791 92.7555 61.0262 92.7555 59.8282C92.7555 58.6303 92.2963 57.4782 91.4731 56.6077L82.4794 47.6373V47.6379C81.6236 46.7642 80.4462 46.2818 79.2236 46.3024L79.2237 46.3264Z" fill="#B89A00"/>
</svg>
