<svg width="64" height="62" viewBox="0 0 64 62" fill="none" xmlns="http://www.w3.org/2000/svg">
<path fill-rule="evenodd" clip-rule="evenodd" d="M15.863 40.5966C15.0936 34.8508 13.7703 29.1644 12.4605 23.6649C12.1759 22.482 11.3097 21.7666 10.5556 22.1488C9.77405 22.4511 9.3781 23.6777 9.63579 24.7803C10.9081 30.1089 12.2044 35.6164 12.9285 41.0988C13.0794 42.2693 13.867 43.1329 14.6806 43.0051C15.4937 42.8776 16.0133 41.7676 15.863 40.5966Z" fill="url(#paint0_linear_86_463)"/>
<path fill-rule="evenodd" clip-rule="evenodd" d="M27.9292 47.4158C30.7417 35.5921 32.4848 23.182 35.501 11.4236C35.7943 10.3602 35.392 9.05725 34.6225 8.57247C33.8524 8.08803 32.9837 8.54358 32.7172 9.68729C29.6846 21.4562 27.9255 33.8764 25.0966 45.7105C24.8429 46.8461 25.2664 48.1352 26.0503 48.6109C26.8067 49.0066 27.6756 48.5513 27.9292 47.4158Z" fill="url(#paint1_linear_86_463)"/>
<path fill-rule="evenodd" clip-rule="evenodd" d="M45.8788 46.1288C42.7619 48.4036 39.6449 50.6779 36.5274 52.953C35.795 53.4189 35.5528 54.7426 35.9656 55.844C36.3788 56.9451 37.2715 57.351 38.0045 56.8848C41.1267 54.6066 44.2485 52.3293 47.3702 50.0515C48.0757 49.5053 48.3143 48.1843 47.8973 47.0856C47.5072 46.0671 46.5838 45.583 45.8788 46.1288Z" fill="url(#paint2_linear_86_463)"/>
<defs>
<linearGradient id="paint0_linear_86_463" x1="10.3614" y1="34.3448" x2="16.4524" y2="32.0529" gradientUnits="userSpaceOnUse">
<stop offset="0.291341" stop-color="#7562E8"/>
<stop offset="1" stop-color="#AA41D1"/>
</linearGradient>
<linearGradient id="paint1_linear_86_463" x1="20.1693" y1="35.4653" x2="45.3504" y2="24.0849" gradientUnits="userSpaceOnUse">
<stop offset="0.291341" stop-color="#7562E8"/>
<stop offset="1" stop-color="#AA41D1"/>
</linearGradient>
<linearGradient id="paint2_linear_86_463" x1="35.295" y1="55.8031" x2="48.4374" y2="43.7259" gradientUnits="userSpaceOnUse">
<stop offset="0.291341" stop-color="#7562E8"/>
<stop offset="1" stop-color="#AA41D1"/>
</linearGradient>
</defs>
</svg>
