<svg width="105" height="105" viewBox="0 0 105 105" fill="none" xmlns="http://www.w3.org/2000/svg">
<circle cx="52.5" cy="52.5" r="52.5" fill="#2B77EA"/>
<path d="M82.4329 21.6549C74.3229 13.456 63.5397 9 52.0433 9C48.0331 9 44.2006 9.53462 40.5472 10.6038H40.3688L40.993 13.9011L41.2603 13.9017C44.8247 12.9214 48.4788 12.3868 52.044 12.3868C73.8782 12.3868 91.702 30.1215 91.702 52.0448C91.702 73.9681 73.8782 91.6137 52.044 91.6137C30.2098 91.5248 12.386 73.7007 12.386 51.8665C12.386 43.5788 14.8813 35.736 19.6941 28.9629L19.8725 28.7845L16.9315 27.0911L16.8426 27.2695C11.7625 34.488 9 43.0437 9 51.9555C8.99938 75.6612 28.2497 94.9109 51.9554 94.9109C75.6611 94.9109 95 75.6612 95 52.0446C95 40.5479 90.544 29.7648 82.434 21.655L82.4329 21.6549Z" fill="white"/>
<path d="M54.3605 51.7773C62.2031 51.7773 68.4413 45.4495 68.4413 37.6964V36.092L70.5803 38.231C71.1149 38.7656 72.1841 38.7656 72.8083 38.231C73.0756 37.9637 73.254 37.5179 73.254 37.1617C73.254 36.8055 73.0756 36.3598 72.8083 36.0925L67.9955 31.1901C67.4609 30.6555 66.4806 30.6555 65.8565 31.1901L60.6876 36.0023C60.4203 36.2696 60.2419 36.6264 60.2419 37.0715C60.2419 37.4277 60.3308 37.8734 60.5981 38.1407C61.1327 38.7649 62.2019 38.7649 62.8261 38.2296L65.4998 35.8233V37.6951C65.4998 43.7549 60.5981 48.746 54.4489 48.746H49.191C41.9725 48.746 35.8231 54.2712 35.1102 61.4897V61.6682H34.9318C32.4364 62.3812 30.7432 64.698 30.7432 67.2828C30.7432 70.5801 33.4169 73.1648 36.6252 73.1648C39.9224 73.1648 42.5072 70.4911 42.5072 67.2828C42.5072 64.7875 40.9034 62.5595 38.497 61.6682L38.3186 61.5793V61.4008C38.9427 55.8756 43.6661 51.687 49.1911 51.687L54.3605 51.7773ZM39.3881 67.3731C39.3881 68.8881 38.1405 70.2252 36.536 70.2252C35.0211 70.2252 33.6839 68.9776 33.6839 67.3731C33.6839 65.8582 34.9315 64.521 36.536 64.521C38.1405 64.6099 39.3881 65.8575 39.3881 67.3731Z" fill="white"/>
<path d="M63.8071 67.8186L61.3117 65.4122L63.8071 63.0059C64.0744 62.7386 64.2528 62.3817 64.2528 61.9366C64.2528 61.4909 64.1639 61.1347 63.8071 60.8674C63.2725 60.2433 62.2033 60.2433 61.5791 60.8674L58.995 63.3627L56.4102 60.8674C55.7861 60.3328 54.8064 60.3328 54.1822 60.8674C53.9149 61.1347 53.7365 61.5804 53.7365 61.9366C53.7365 62.2928 53.9149 62.7386 54.1822 63.0059L56.6775 65.4122L54.1822 67.8186C53.5581 68.3532 53.5581 69.4225 54.1822 70.0466C54.7168 70.6707 55.786 70.6707 56.4102 70.0466L58.9943 67.5513L61.5785 70.0466C62.1131 70.5812 63.1823 70.5812 63.8064 70.0466C64.4306 69.4231 64.4306 68.4428 63.8071 67.8186H63.8071Z" fill="white"/>
<path d="M48.4784 40.37L45.983 37.9637L48.4784 35.5573C49.1025 35.0227 49.1025 33.9535 48.4784 33.3293C47.9438 32.7052 46.8745 32.7052 46.2504 33.3293L43.6663 35.8246L41.1703 33.4189C40.5461 32.8843 39.5665 32.8843 38.9423 33.4189C38.4077 34.043 38.4077 35.0227 38.9423 35.6469L41.4376 38.0533L38.9423 40.4596C38.675 40.7269 38.4966 41.0838 38.4966 41.5289C38.4966 41.8851 38.5855 42.3308 38.9423 42.5981C39.4769 43.2223 40.5461 43.2223 41.1703 42.5981L43.7544 40.1028L46.3386 42.5981C46.8732 43.1327 47.9424 43.1327 48.5665 42.5981C48.8338 42.3308 49.0123 41.8851 49.0123 41.5289C49.0129 41.0832 48.8345 40.7269 48.4783 40.3701L48.4784 40.37Z" fill="white"/>
</svg>
