<svg width="224" height="161" viewBox="0 0 224 161" fill="none" xmlns="http://www.w3.org/2000/svg">
<path d="M51.0678 48.1544C51.5406 48.4485 52.0049 48.7481 52.4684 49.0576C57.3655 61.3781 60.1615 74.4327 60.7401 87.6782C60.8115 89.21 60.8477 90.7394 60.8487 92.2665C60.8909 103.718 59.2244 115.111 55.9043 126.071C55.7291 126.648 55.5501 127.222 55.3673 127.795C55.2363 128.205 55.103 128.62 54.9583 129.028C54.8045 129.236 54.653 129.442 54.5015 129.646C54.4908 129.655 54.4815 129.671 54.4707 129.68C54.4096 129.763 54.3486 129.845 54.2937 129.927C54.0318 130.278 53.766 130.628 53.5041 130.979L53.7247 130.994L54.2776 131.029L54.2753 131.033C54.0897 131.029 53.9003 131.023 53.7131 131.013C53.6451 131.013 53.571 131.015 53.5016 131.009C53.4396 131.008 53.374 131.004 53.312 131.003C45.3403 130.787 37.1821 130.389 29.9279 127.129C22.335 123.714 15.8942 116.33 16.2215 108.014C16.2676 106.925 16.4329 105.844 16.7144 104.791C16.8319 104.351 16.9707 103.919 17.1195 103.488C18.0249 100.847 19.6172 98.4958 21.7327 96.6748C23.8482 94.8539 26.4104 93.6291 29.1561 93.1266C31.9018 92.6241 34.7318 92.8619 37.3551 93.8155C39.9784 94.7692 42.3003 96.4043 44.0823 98.5528C41.9062 90.0011 32.5646 85.6373 24.1508 82.9842C15.7309 80.3327 6.25768 77.5591 1.956 69.8539C-0.445708 65.566 -0.503536 60.5703 1.06361 55.957C1.11132 55.8192 1.16143 55.6775 1.2153 55.5381C3.18904 50.1102 7.1382 45.6269 12.2737 42.9841C21.8958 38.2202 33.5878 39.9011 43.4468 44.1531C46.0846 45.2923 48.6322 46.6299 51.0678 48.1544Z" fill="#F2F2F2"/>
<path d="M23.4891 103.523C31.052 104.218 38.1906 107.329 43.8496 112.394C48.6693 116.756 52.2257 122.336 54.1454 128.547C54.2571 128.902 54.3588 129.256 54.4544 129.613C54.6455 129.249 54.8311 128.877 55.0146 128.509C55.1326 128.273 55.2531 128.033 55.3673 127.795C55.2363 128.206 55.103 128.62 54.9583 129.028C54.8045 129.237 54.653 129.442 54.5015 129.647C54.4908 129.656 54.4815 129.671 54.4707 129.68C54.4096 129.763 54.3486 129.846 54.2937 129.927C54.0318 130.278 53.766 130.628 53.5041 130.979L53.7247 130.994L54.2776 131.029L54.2753 131.033C54.0897 131.029 53.9003 131.023 53.7131 131.013C53.6451 131.013 53.571 131.015 53.5016 131.009C53.4787 130.901 53.4498 130.795 53.421 130.688C51.4614 122.667 46.665 115.625 39.9178 110.865C33.1706 106.105 24.9285 103.947 16.7144 104.791C16.8319 104.351 16.9707 103.919 17.1195 103.488C19.2397 103.314 21.3709 103.326 23.4891 103.523Z" fill="white"/>
<path d="M48.6175 71.8918C51.6521 74.1654 54.3382 76.87 56.5908 79.9201C57.7646 81.5461 58.7843 83.2778 59.6368 85.0929C60.041 85.9351 60.4089 86.8022 60.7401 87.6783C60.8114 89.2101 60.8476 90.7395 60.8487 92.2666C60.5674 91.1122 60.2247 89.9736 59.8219 88.8557C59.6123 88.2419 59.3797 87.6403 59.1324 87.0455C56.3593 80.3844 51.3351 75.125 45.4096 71.1264C39.06 66.8479 31.9016 63.6359 24.647 61.2476C17.2122 58.7886 9.50407 57.2502 1.69496 56.6669C1.5186 56.6526 1.35454 56.5708 1.23695 56.4386C1.11936 56.3064 1.0573 56.134 1.06368 55.9571C1.05768 55.8031 1.11211 55.6527 1.21537 55.5382C1.27023 55.4844 1.33692 55.4443 1.4101 55.421C1.48327 55.3978 1.56089 55.392 1.63671 55.4041C2.60039 55.4762 3.56157 55.5524 4.5227 55.6543C12.5198 56.478 20.3834 58.2932 27.9324 61.0579C35.2198 63.717 42.4321 67.1653 48.6175 71.8918Z" fill="white"/>
<path d="M8.99328 35.0517C10.4695 35.0517 11.6662 33.855 11.6662 32.3788C11.6662 30.9025 10.4695 29.7058 8.99328 29.7058C7.51704 29.7058 6.32031 30.9025 6.32031 32.3788C6.32031 33.855 7.51704 35.0517 8.99328 35.0517Z" fill="#F2F2F2"/>
<path d="M173.203 57.0548H51.8665V160.403H173.203V57.0548Z" fill="white"/>
<path d="M173.556 160.755H51.5139V56.7021H173.556V160.755ZM52.2194 160.05H172.851V57.4076H52.2194V160.05Z" fill="#3F3D56"/>
<path d="M127.702 77.1599H97.3679V160.402H127.702V77.1599Z" fill="white"/>
<path d="M127.702 77.1599H97.3679V160.402H127.702V77.1599Z" fill="white"/>
<path opacity="0.2" d="M52.2192 64.6382V81.4059L173.203 89.1524L172.847 68.4624L52.2192 64.6382Z" fill="black"/>
<path d="M180.258 47.5312H44.812V77.16H180.258V47.5312Z" fill="white"/>
<path d="M180.61 77.5128H44.4595V47.1786H180.61V77.5128ZM45.1649 76.8073H179.905V47.884H45.1649V76.8073Z" fill="#3F3D56"/>
<path d="M127.702 44.7095H97.3679V76.8073H127.702V44.7095Z" fill="white"/>
<path d="M109.287 16.723C117.294 28.5927 109.75 47.6834 109.75 47.6834C109.75 47.6834 89.2232 47.5296 81.2159 35.6599C73.2086 23.7902 80.753 4.69946 80.753 4.69946C80.753 4.69946 101.28 4.85334 109.287 16.723Z" fill="white"/>
<path d="M112.961 16.723C104.954 28.5927 112.498 47.6834 112.498 47.6834C112.498 47.6834 133.025 47.5296 141.032 35.6599C149.039 23.7902 141.495 4.69946 141.495 4.69946C141.495 4.69946 120.968 4.85334 112.961 16.723Z" fill="white"/>
<path d="M91.3715 25.6625C93.1248 25.6625 94.546 24.2412 94.546 22.488C94.546 20.7348 93.1248 19.3135 91.3715 19.3135C89.6183 19.3135 88.197 20.7348 88.197 22.488C88.197 24.2412 89.6183 25.6625 91.3715 25.6625Z" fill="#3F3D56"/>
<path d="M110.419 57.7601C112.172 57.7601 113.593 56.3389 113.593 54.5856C113.593 52.8324 112.172 51.4111 110.419 51.4111C108.665 51.4111 107.244 52.8324 107.244 54.5856C107.244 56.3389 108.665 57.7601 110.419 57.7601Z" fill="#3F3D56"/>
<path d="M110.419 127.247C112.172 127.247 113.593 125.825 113.593 124.072C113.593 122.319 112.172 120.898 110.419 120.898C108.665 120.898 107.244 122.319 107.244 124.072C107.244 125.825 108.665 127.247 110.419 127.247Z" fill="#3F3D56"/>
<path d="M99.837 36.244C101.006 36.244 101.953 35.2965 101.953 34.1277C101.953 32.9589 101.006 32.0114 99.837 32.0114C98.6682 32.0114 97.7207 32.9589 97.7207 34.1277C97.7207 35.2965 98.6682 36.244 99.837 36.244Z" fill="#3F3D56"/>
<path d="M131.582 18.2553C132.751 18.2553 133.698 17.3077 133.698 16.1389C133.698 14.9701 132.751 14.0226 131.582 14.0226C130.413 14.0226 129.466 14.9701 129.466 16.1389C129.466 17.3077 130.413 18.2553 131.582 18.2553Z" fill="#3F3D56"/>
<path d="M117.826 67.9891C118.995 67.9891 119.942 67.0416 119.942 65.8728C119.942 64.704 118.995 63.7565 117.826 63.7565C116.657 63.7565 115.709 64.704 115.709 65.8728C115.709 67.0416 116.657 67.9891 117.826 67.9891Z" fill="#3F3D56"/>
<path d="M105.128 95.5015C106.296 95.5015 107.244 94.554 107.244 93.3851C107.244 92.2163 106.296 91.2688 105.128 91.2688C103.959 91.2688 103.011 92.2163 103.011 93.3851C103.011 94.554 103.959 95.5015 105.128 95.5015Z" fill="#3F3D56"/>
<path d="M116.062 105.025C117.231 105.025 118.178 104.078 118.178 102.909C118.178 101.74 117.231 100.792 116.062 100.792C114.893 100.792 113.946 101.74 113.946 102.909C113.946 104.078 114.893 105.025 116.062 105.025Z" fill="#3F3D56"/>
<path d="M113.593 144.883C114.762 144.883 115.709 143.935 115.709 142.766C115.709 141.598 114.762 140.65 113.593 140.65C112.424 140.65 111.477 141.598 111.477 142.766C111.477 143.935 112.424 144.883 113.593 144.883Z" fill="#3F3D56"/>
<path d="M219.484 105.578H154.923V160.568H219.484V105.578Z" fill="white"/>
<path d="M219.672 160.755H154.735V105.39H219.672V160.755ZM155.111 160.38H219.297V105.766H155.111V160.38Z" fill="#3F3D56"/>
<path d="M195.274 116.276H179.133V160.568H195.274V116.276Z" fill="white"/>
<path d="M195.274 116.276H179.133V160.568H195.274V116.276Z" fill="white"/>
<path opacity="0.2" d="M155.11 109.613V118.535L219.484 122.657L219.294 111.648L155.11 109.613Z" fill="black"/>
<path d="M223.238 100.511H151.169V116.276H223.238V100.511Z" fill="white"/>
<path d="M223.425 116.463H150.982V100.323H223.425V116.463ZM151.357 116.088H223.05V100.698H151.357V116.088Z" fill="#3F3D56"/>
<path d="M195.274 99.0093H179.133V116.088H195.274V99.0093Z" fill="white"/>
<path d="M185.475 84.1182C189.736 90.4339 185.722 100.592 185.722 100.592C185.722 100.592 174.8 100.51 170.539 94.1942C166.279 87.8785 170.293 77.7207 170.293 77.7207C170.293 77.7207 181.215 77.8026 185.475 84.1182Z" fill="white"/>
<path d="M187.43 84.1182C183.17 90.4339 187.184 100.592 187.184 100.592C187.184 100.592 198.106 100.51 202.367 94.1942C206.627 87.8785 202.613 77.7207 202.613 77.7207C202.613 77.7207 191.691 77.8026 187.43 84.1182Z" fill="white"/>
<path d="M175.943 88.8748C176.876 88.8748 177.632 88.1186 177.632 87.1857C177.632 86.2528 176.876 85.4966 175.943 85.4966C175.01 85.4966 174.254 86.2528 174.254 87.1857C174.254 88.1186 175.01 88.8748 175.943 88.8748Z" fill="#3F3D56"/>
<path d="M186.077 105.953C187.01 105.953 187.766 105.197 187.766 104.264C187.766 103.331 187.01 102.575 186.077 102.575C185.144 102.575 184.388 103.331 184.388 104.264C184.388 105.197 185.144 105.953 186.077 105.953Z" fill="#3F3D56"/>
<path d="M186.077 142.926C187.01 142.926 187.766 142.17 187.766 141.237C187.766 140.304 187.01 139.548 186.077 139.548C185.144 139.548 184.388 140.304 184.388 141.237C184.388 142.17 185.144 142.926 186.077 142.926Z" fill="#3F3D56"/>
<path d="M180.447 94.5049C181.069 94.5049 181.573 94.0008 181.573 93.3789C181.573 92.757 181.069 92.2528 180.447 92.2528C179.825 92.2528 179.321 92.757 179.321 93.3789C179.321 94.0008 179.825 94.5049 180.447 94.5049Z" fill="#3F3D56"/>
<path d="M197.338 84.9334C197.96 84.9334 198.464 84.4293 198.464 83.8073C198.464 83.1854 197.96 82.6813 197.338 82.6813C196.716 82.6813 196.212 83.1854 196.212 83.8073C196.212 84.4293 196.716 84.9334 197.338 84.9334Z" fill="#3F3D56"/>
<path d="M190.019 111.396C190.641 111.396 191.145 110.892 191.145 110.27C191.145 109.648 190.641 109.144 190.019 109.144C189.397 109.144 188.893 109.648 188.893 110.27C188.893 110.892 189.397 111.396 190.019 111.396Z" fill="#3F3D56"/>
<path d="M183.262 126.035C183.884 126.035 184.388 125.531 184.388 124.909C184.388 124.287 183.884 123.783 183.262 123.783C182.64 123.783 182.136 124.287 182.136 124.909C182.136 125.531 182.64 126.035 183.262 126.035Z" fill="#3F3D56"/>
<path d="M189.08 131.102C189.702 131.102 190.206 130.598 190.206 129.976C190.206 129.354 189.702 128.85 189.08 128.85C188.458 128.85 187.954 129.354 187.954 129.976C187.954 130.598 188.458 131.102 189.08 131.102Z" fill="#3F3D56"/>
<path d="M187.767 152.31C188.389 152.31 188.893 151.806 188.893 151.184C188.893 150.562 188.389 150.058 187.767 150.058C187.145 150.058 186.641 150.562 186.641 151.184C186.641 151.806 187.145 152.31 187.767 152.31Z" fill="#3F3D56"/>
<path d="M108.396 135.233C108.96 134.043 106.345 131.621 102.555 129.824C98.7646 128.026 95.2346 127.533 94.6702 128.723C94.1059 129.913 96.721 132.335 100.511 134.132C104.301 135.93 107.831 136.423 108.396 135.233Z" fill="#2F2E41"/>
<path d="M139.676 147.488C140.686 146.643 139.321 143.35 136.628 140.134C133.935 136.917 130.934 134.995 129.924 135.841C128.914 136.686 130.279 139.979 132.972 143.195C135.665 146.411 138.666 148.333 139.676 147.488Z" fill="#2F2E41"/>
<path d="M118.643 154.217C127.032 154.217 133.834 147.416 133.834 139.027C133.834 130.637 127.032 123.836 118.643 123.836C110.253 123.836 103.452 130.637 103.452 139.027C103.452 147.416 110.253 154.217 118.643 154.217Z" fill="#2F2E41"/>
<path d="M125.072 150.948H120.458V159.217H125.072V150.948Z" fill="#2F2E41"/>
<path d="M115.842 150.948H111.228V159.217H115.842V150.948Z" fill="#2F2E41"/>
<path d="M121.227 160.755C123.351 160.755 125.072 160.109 125.072 159.313C125.072 158.517 123.351 157.871 121.227 157.871C119.103 157.871 117.381 158.517 117.381 159.313C117.381 160.109 119.103 160.755 121.227 160.755Z" fill="#2F2E41"/>
<path d="M111.997 160.563C114.121 160.563 115.842 159.917 115.842 159.121C115.842 158.324 114.121 157.679 111.997 157.679C109.873 157.679 108.151 158.324 108.151 159.121C108.151 159.917 109.873 160.563 111.997 160.563Z" fill="#2F2E41"/>
<path d="M113.873 119.931C115.229 114.469 121.217 111.254 127.246 112.751C133.276 114.248 137.064 119.89 135.708 125.353C134.351 130.816 129.851 130.833 123.822 129.336C117.792 127.839 112.517 125.394 113.873 119.931Z" fill="#E6E6E6"/>
<path d="M116.372 140.886C119.169 140.886 121.436 138.618 121.436 135.821C121.436 133.024 119.169 130.757 116.372 130.757C113.575 130.757 111.307 133.024 111.307 135.821C111.307 138.618 113.575 140.886 116.372 140.886Z" fill="white"/>
<path d="M114.29 135.694C115.223 135.694 115.978 134.938 115.978 134.006C115.978 133.073 115.223 132.318 114.29 132.318C113.358 132.318 112.602 133.073 112.602 134.006C112.602 134.938 113.358 135.694 114.29 135.694Z" fill="#3F3D56"/>
<path d="M119.549 146.373C119.628 146.809 119.621 147.257 119.527 147.69C119.434 148.124 119.256 148.535 119.003 148.899C118.751 149.264 118.429 149.575 118.057 149.815C117.684 150.056 117.268 150.22 116.832 150.3C116.395 150.379 115.948 150.372 115.514 150.278C115.081 150.185 114.67 150.007 114.306 149.754C113.941 149.502 113.63 149.18 113.389 148.808C113.149 148.435 112.985 148.019 112.905 147.583L112.904 147.576C112.572 145.741 113.99 145.092 115.825 144.76C117.66 144.427 119.217 144.538 119.549 146.373Z" fill="white"/>
<path d="M149.355 24.6197C153.232 23.0183 155.968 20.7334 155.465 19.5162C154.962 18.2991 151.412 18.6106 147.535 20.212C143.657 21.8134 140.922 24.0983 141.425 25.3154C141.927 26.5326 145.478 26.2211 149.355 24.6197Z" fill="#2F2E41"/>
<path d="M186.588 35.1041C187.598 34.2587 186.233 30.966 183.54 27.7497C180.847 24.5333 177.846 22.6113 176.836 23.4567C175.826 24.3021 177.191 27.5948 179.884 30.8111C182.577 34.0274 185.578 35.9495 186.588 35.1041Z" fill="#2F2E41"/>
<path d="M165.555 41.8337C173.944 41.8337 180.746 35.0325 180.746 26.6429C180.746 18.2532 173.944 11.452 165.555 11.452C157.165 11.452 150.364 18.2532 150.364 26.6429C150.364 35.0325 157.165 41.8337 165.555 41.8337Z" fill="#2F2E41"/>
<path d="M171.985 38.5647H167.37V46.8331H171.985V38.5647Z" fill="#2F2E41"/>
<path d="M162.755 38.5647H158.14V46.8331H162.755V38.5647Z" fill="#2F2E41"/>
<path d="M168.139 48.3714C170.263 48.3714 171.985 47.7257 171.985 46.9292C171.985 46.1327 170.263 45.4871 168.139 45.4871C166.015 45.4871 164.293 46.1327 164.293 46.9292C164.293 47.7257 166.015 48.3714 168.139 48.3714Z" fill="#2F2E41"/>
<path d="M158.909 48.1791C161.033 48.1791 162.755 47.5335 162.755 46.737C162.755 45.9405 161.033 45.2948 158.909 45.2948C156.785 45.2948 155.063 45.9405 155.063 46.737C155.063 47.5335 156.785 48.1791 158.909 48.1791Z" fill="#2F2E41"/>
<path d="M160.785 7.54743C162.142 2.08481 168.129 -1.12982 174.159 0.367344C180.188 1.86451 183.976 7.50655 182.62 12.9692C181.263 18.4318 176.763 18.4494 170.734 16.9522C164.704 15.4551 159.429 13.01 160.785 7.54743Z" fill="white"/>
<path d="M163.284 28.502C166.081 28.502 168.348 26.2345 168.348 23.4374C168.348 20.6403 166.081 18.3728 163.284 18.3728C160.487 18.3728 158.219 20.6403 158.219 23.4374C158.219 26.2345 160.487 28.502 163.284 28.502Z" fill="white"/>
<path d="M161.202 25.7792C162.135 25.7792 162.891 25.0234 162.891 24.091C162.891 23.1587 162.135 22.4028 161.202 22.4028C160.27 22.4028 159.514 23.1587 159.514 24.091C159.514 25.0234 160.27 25.7792 161.202 25.7792Z" fill="#3F3D56"/>
<path d="M166.461 33.9892C166.621 34.8702 166.425 35.7789 165.916 36.5152C165.406 37.2516 164.625 37.7554 163.744 37.9158C162.863 38.0761 161.954 37.88 161.218 37.3704C160.481 36.8609 159.978 36.0797 159.817 35.1987L159.816 35.1921C159.484 33.3572 160.903 32.7079 162.737 32.3757C164.572 32.0436 166.129 32.1543 166.461 33.9892Z" fill="white"/>
<path d="M35.5844 154.217C43.974 154.217 50.7752 147.416 50.7752 139.027C50.7752 130.637 43.974 123.836 35.5844 123.836C27.1947 123.836 20.3936 130.637 20.3936 139.027C20.3936 147.416 27.1947 154.217 35.5844 154.217Z" fill="#2F2E41"/>
<path d="M33.2768 150.948H28.6619V159.217H33.2768V150.948Z" fill="#2F2E41"/>
<path d="M42.5068 150.948H37.8918V159.217H42.5068V150.948Z" fill="#2F2E41"/>
<path d="M32.5077 160.755C34.6316 160.755 36.3534 160.109 36.3534 159.313C36.3534 158.517 34.6316 157.871 32.5077 157.871C30.3837 157.871 28.6619 158.517 28.6619 159.313C28.6619 160.109 30.3837 160.755 32.5077 160.755Z" fill="#2F2E41"/>
<path d="M41.7376 160.563C43.8616 160.563 45.5834 159.917 45.5834 159.121C45.5834 158.324 43.8616 157.679 41.7376 157.679C39.6137 157.679 37.8918 158.324 37.8918 159.121C37.8918 159.917 39.6137 160.563 41.7376 160.563Z" fill="#2F2E41"/>
<path d="M20.8488 124.9C19.6223 119.406 23.5432 113.856 29.6065 112.502C35.6698 111.148 41.5794 114.504 42.806 119.997C44.0325 125.49 40.0142 127.516 33.9509 128.87C27.8876 130.224 22.0754 130.393 20.8488 124.9Z" fill="white"/>
<path d="M51.9541 132.389C55.2439 129.096 57.073 125.59 56.0394 124.557C55.0058 123.524 51.501 125.356 48.2112 128.648C44.9213 131.941 43.0923 135.447 44.1258 136.48C45.1594 137.513 48.6642 135.681 51.9541 132.389Z" fill="#2F2E41"/>
<path d="M23.3399 137.538C24.3735 136.505 22.5445 132.999 19.2546 129.707C15.9648 126.414 12.46 124.583 11.4264 125.615C10.3928 126.648 12.2219 130.154 15.5117 133.447C18.8016 136.739 22.3064 138.571 23.3399 137.538Z" fill="#2F2E41"/>
<path d="M34.9452 142.066C37.8126 142.066 40.137 139.741 40.137 136.874C40.137 134.006 37.8126 131.682 34.9452 131.682C32.0779 131.682 29.7534 134.006 29.7534 136.874C29.7534 139.741 32.0779 142.066 34.9452 142.066Z" fill="white"/>
<path d="M34.9452 138.605C35.901 138.605 36.6758 137.83 36.6758 136.874C36.6758 135.918 35.901 135.143 34.9452 135.143C33.9894 135.143 33.2146 135.918 33.2146 136.874C33.2146 137.83 33.9894 138.605 34.9452 138.605Z" fill="#3F3D56"/>
<path d="M39.0666 146.476C39.146 146.912 39.1387 147.36 39.0452 147.793C38.9516 148.227 38.7736 148.637 38.5213 149.002C38.269 149.367 37.9473 149.678 37.5747 149.918C37.202 150.159 36.7857 150.323 36.3495 150.402C35.9133 150.482 35.4657 150.475 35.0323 150.381C34.5988 150.287 34.1881 150.109 33.8235 149.857C33.4589 149.605 33.1475 149.283 32.9072 148.911C32.6669 148.538 32.5024 148.122 32.4229 147.685L32.4218 147.679C32.0896 145.844 33.5083 145.195 35.3432 144.862C37.1781 144.53 38.7344 144.641 39.0666 146.476Z" fill="white"/>
</svg>
