<svg width="411" height="371" viewBox="0 0 411 371" fill="none" xmlns="http://www.w3.org/2000/svg">
<path d="M101.831 93.9267C94.7644 72.8014 72.9404 61.0602 58.5833 65.8631C44.2262 70.6661 33.8603 93.1758 40.9274 114.301C47.4689 133.855 67.2905 145.144 80.9263 143.129C80.828 143.3 80.7632 143.489 80.7356 143.684L80.3187 147.161C80.2869 147.427 80.3234 147.695 80.4247 147.942C80.5261 148.189 80.6889 148.406 80.8976 148.573C81.1064 148.739 81.3543 148.85 81.6177 148.893C81.8811 148.937 82.1513 148.912 82.4026 148.822L89.4266 146.304C89.678 146.214 89.9021 146.061 90.0778 145.86C90.2534 145.659 90.3747 145.416 90.4302 145.155C90.4857 144.894 90.4735 144.623 90.3948 144.367C90.3161 144.112 90.1735 143.882 89.9805 143.697L87.4485 141.277C87.3585 141.194 87.2591 141.123 87.1523 141.064C99.3142 134.51 108.387 113.523 101.831 93.9267Z" fill="#F2F2F2"/>
<path d="M76.2475 78.3844C82.1164 81.4134 86.5984 86.5799 88.7684 92.8177C90.9384 99.0555 90.6307 105.888 87.9088 111.906C87.301 113.289 89.5361 114.017 90.1399 112.642C92.9977 106.132 93.2884 98.7809 90.9536 92.0646C88.6188 85.3484 83.8312 79.7631 77.5509 76.4289C76.2253 75.7264 74.9121 77.6768 76.2475 78.3844Z" fill="white"/>
<path d="M387.953 63.1333C380.886 42.008 359.062 30.2668 344.705 35.0698C330.348 39.8727 319.982 62.3824 327.049 83.5077C333.591 103.062 353.412 114.35 367.048 112.336C366.95 112.507 366.885 112.695 366.857 112.891L366.44 116.368C366.409 116.633 366.445 116.902 366.547 117.149C366.648 117.396 366.811 117.613 367.019 117.779C367.228 117.946 367.476 118.056 367.74 118.1C368.003 118.143 368.273 118.119 368.524 118.029L375.548 115.51C375.8 115.42 376.024 115.267 376.2 115.066C376.375 114.865 376.497 114.623 376.552 114.361C376.608 114.1 376.595 113.829 376.517 113.574C376.438 113.319 376.295 113.088 376.102 112.904L373.57 110.483C373.48 110.401 373.381 110.33 373.274 110.271C385.436 103.716 394.509 82.7299 387.953 63.1333Z" fill="#F2F2F2"/>
<path d="M362.369 47.591C368.238 50.62 372.72 55.7865 374.89 62.0243C377.06 68.2621 376.752 75.095 374.031 81.1124C373.423 82.496 375.658 83.2236 376.262 81.8491C379.12 75.3382 379.41 67.9875 377.075 61.2712C374.741 54.555 369.953 48.9697 363.673 45.6355C362.347 44.933 361.034 46.8834 362.369 47.591Z" fill="white"/>
<path d="M221.797 29.1323C214.73 8.00698 192.906 -3.73417 178.549 1.06875C164.192 5.87167 153.826 28.3814 160.893 49.5067C167.435 69.0608 187.256 80.3494 200.892 78.3349C200.794 78.5059 200.729 78.6942 200.702 78.8895L200.285 82.3671C200.253 82.6322 200.289 82.901 200.391 83.148C200.492 83.395 200.655 83.612 200.864 83.7785C201.072 83.9449 201.32 84.0551 201.584 84.0988C201.847 84.1425 202.117 84.1181 202.369 84.028L209.393 81.5094C209.644 81.4193 209.868 81.2664 210.044 81.0653C210.219 80.8642 210.341 80.6216 210.396 80.3604C210.452 80.0992 210.439 79.8282 210.361 79.5731C210.282 79.3179 210.139 79.0871 209.946 78.9026L207.414 76.4824C207.324 76.4 207.225 76.3286 207.118 76.2695C219.28 69.7154 228.353 48.7289 221.797 29.1323Z" fill="#F2F2F2"/>
<path d="M196.213 13.59C202.082 16.6189 206.564 21.7855 208.734 28.0233C210.904 34.2611 210.597 41.0939 207.875 47.1114C207.267 48.495 209.502 49.2226 210.106 47.8481C212.964 41.3371 213.254 33.9865 210.92 27.2702C208.585 20.554 203.797 14.9687 197.517 11.6345C196.191 10.932 194.878 12.8824 196.213 13.59Z" fill="white"/>
<path d="M186.353 130.783C187.283 130.783 188.036 130.03 188.036 129.1C188.036 128.17 187.283 127.416 186.353 127.416C185.423 127.416 184.669 128.17 184.669 129.1C184.669 130.03 185.423 130.783 186.353 130.783Z" fill="#AA41D1"/>
<path d="M182.764 198.323C184.601 198.323 186.09 196.834 186.09 194.997C186.09 193.16 184.601 191.671 182.764 191.671C180.927 191.671 179.438 193.16 179.438 194.997C179.438 196.834 180.927 198.323 182.764 198.323Z" fill="#AA41D1"/>
<path d="M127.082 185.516C128.144 185.516 129.004 184.655 129.004 183.594C129.004 182.533 128.144 181.672 127.082 181.672C126.021 181.672 125.16 182.533 125.16 183.594C125.16 184.655 126.021 185.516 127.082 185.516Z" fill="#AA41D1"/>
<path d="M156.28 154.047C157.43 154.047 158.361 153.115 158.361 151.965C158.361 150.816 157.43 149.884 156.28 149.884C155.131 149.884 154.199 150.816 154.199 151.965C154.199 153.115 155.131 154.047 156.28 154.047Z" fill="#AA41D1"/>
<path d="M258.697 275.903C259.627 275.903 260.38 275.149 260.38 274.219C260.38 273.29 259.627 272.536 258.697 272.536C257.767 272.536 257.013 273.29 257.013 274.219C257.013 275.149 257.767 275.903 258.697 275.903Z" fill="#AA41D1"/>
<path d="M203.557 241.283C205.394 241.283 206.883 239.794 206.883 237.957C206.883 236.12 205.394 234.631 203.557 234.631C201.721 234.631 200.231 236.12 200.231 237.957C200.231 239.794 201.721 241.283 203.557 241.283Z" fill="#AA41D1"/>
<path d="M241.432 197.499C242.494 197.499 243.354 196.639 243.354 195.578C243.354 194.516 242.494 193.656 241.432 193.656C240.371 193.656 239.51 194.516 239.51 195.578C239.51 196.639 240.371 197.499 241.432 197.499Z" fill="#AA41D1"/>
<path d="M254.071 238.807C255.221 238.807 256.153 237.875 256.153 236.725C256.153 235.576 255.221 234.644 254.071 234.644C252.922 234.644 251.99 235.576 251.99 236.725C251.99 237.875 252.922 238.807 254.071 238.807Z" fill="#AA41D1"/>
<path d="M366.176 346.003C368.013 344.466 365.531 338.477 360.633 332.627C355.735 326.777 350.276 323.281 348.44 324.819C346.603 326.357 349.085 332.345 353.983 338.195C358.881 344.045 364.34 347.541 366.176 346.003Z" fill="#2F2E41"/>
<path d="M327.922 358.243C343.181 358.243 355.55 345.873 355.55 330.614C355.55 315.355 343.181 302.985 327.922 302.985C312.662 302.985 300.293 315.355 300.293 330.614C300.293 345.873 312.662 358.243 327.922 358.243Z" fill="#2F2E41"/>
<path d="M339.616 352.297H331.222V367.336H339.616V352.297Z" fill="#2F2E41"/>
<path d="M322.829 352.297H314.435V367.336H322.829V352.297Z" fill="#2F2E41"/>
<path d="M332.621 370.134C336.484 370.134 339.616 368.959 339.616 367.511C339.616 366.062 336.484 364.888 332.621 364.888C328.758 364.888 325.626 366.062 325.626 367.511C325.626 368.959 328.758 370.134 332.621 370.134Z" fill="#2F2E41"/>
<path d="M315.834 369.784C319.697 369.784 322.828 368.609 322.828 367.161C322.828 365.712 319.697 364.538 315.834 364.538C311.971 364.538 308.839 365.712 308.839 367.161C308.839 368.609 311.971 369.784 315.834 369.784Z" fill="#2F2E41"/>
<path d="M319.246 295.883C321.713 285.948 332.603 280.101 343.57 282.824C354.536 285.547 361.426 295.809 358.959 305.744C356.492 315.68 348.307 315.712 337.341 312.989C326.374 310.266 316.779 305.819 319.246 295.883Z" fill="#6C63FF"/>
<path d="M309.284 323.714C310.31 321.55 305.554 317.145 298.661 313.875C291.767 310.606 285.347 309.71 284.32 311.874C283.294 314.038 288.05 318.443 294.944 321.712C301.837 324.982 308.258 325.878 309.284 323.714Z" fill="#2F2E41"/>
<path d="M323.791 333.995C328.878 333.995 333.002 329.871 333.002 324.784C333.002 319.696 328.878 315.572 323.791 315.572C318.704 315.572 314.579 319.696 314.579 324.784C314.579 329.871 318.704 333.995 323.791 333.995Z" fill="white"/>
<path d="M320.005 324.553C321.701 324.553 323.075 323.178 323.075 321.482C323.075 319.786 321.701 318.412 320.005 318.412C318.309 318.412 316.934 319.786 316.934 321.482C316.934 323.178 318.309 324.553 320.005 324.553Z" fill="#3F3D56"/>
<path d="M329.569 343.975C329.714 344.769 329.701 345.583 329.53 346.371C329.36 347.159 329.036 347.906 328.577 348.57C328.119 349.233 327.534 349.799 326.856 350.236C326.178 350.673 325.421 350.972 324.627 351.117C323.834 351.261 323.02 351.248 322.232 351.078C321.443 350.908 320.696 350.584 320.033 350.125C319.37 349.666 318.804 349.081 318.367 348.403C317.93 347.726 317.63 346.968 317.486 346.175L317.484 346.163C316.88 342.826 319.46 341.645 322.797 341.041C326.135 340.437 328.965 340.638 329.569 343.975Z" fill="white"/>
<path d="M100.772 311.298C103.496 304.172 103.89 297.701 101.653 296.846C99.4158 295.991 95.3939 301.075 92.67 308.201C89.946 315.328 89.5515 321.799 91.7887 322.654C94.026 323.509 98.0479 318.425 100.772 311.298Z" fill="#2F2E41"/>
<path d="M71.1834 358.243C86.4424 358.243 98.8123 345.873 98.8123 330.614C98.8123 315.355 86.4424 302.985 71.1834 302.985C55.9243 302.985 43.5544 315.355 43.5544 330.614C43.5544 345.873 55.9243 358.243 71.1834 358.243Z" fill="#2F2E41"/>
<path d="M66.9866 352.297H58.593V367.336H66.9866V352.297Z" fill="#2F2E41"/>
<path d="M83.7738 352.297H75.3802V367.336H83.7738V352.297Z" fill="#2F2E41"/>
<path d="M65.5877 370.134C69.4507 370.134 72.5824 368.959 72.5824 367.511C72.5824 366.062 69.4507 364.888 65.5877 364.888C61.7246 364.888 58.593 366.062 58.593 367.511C58.593 368.959 61.7246 370.134 65.5877 370.134Z" fill="#2F2E41"/>
<path d="M82.3749 369.784C86.238 369.784 89.3696 368.609 89.3696 367.161C89.3696 365.712 86.238 364.538 82.3749 364.538C78.5119 364.538 75.3802 365.712 75.3802 367.161C75.3802 368.609 78.5119 369.784 82.3749 369.784Z" fill="#2F2E41"/>
<path d="M71.8829 333.062C77.098 333.062 81.3257 328.834 81.3257 323.619C81.3257 318.404 77.098 314.176 71.8829 314.176C66.6677 314.176 62.4401 318.404 62.4401 323.619C62.4401 328.834 66.6677 333.062 71.8829 333.062Z" fill="white"/>
<path d="M71.883 326.767C73.6213 326.767 75.0306 325.357 75.0306 323.619C75.0306 321.881 73.6213 320.471 71.883 320.471C70.1446 320.471 68.7354 321.881 68.7354 323.619C68.7354 325.357 70.1446 326.767 71.883 326.767Z" fill="#3F3D56"/>
<path d="M44.3825 304.92C42.1516 294.928 49.2829 284.833 60.3107 282.371C71.3386 279.908 82.0869 286.011 84.3178 296.002C86.5487 305.993 79.2402 309.678 68.2123 312.141C57.1845 314.603 46.6134 314.911 44.3825 304.92Z" fill="#6C63FF"/>
<path d="M52.5459 323.714C53.5722 321.55 48.816 317.145 41.9225 313.875C35.029 310.606 28.6087 309.71 27.5823 311.874C26.5559 314.038 31.3122 318.443 38.2056 321.712C45.0991 324.982 51.5195 325.878 52.5459 323.714Z" fill="#2F2E41"/>
<path d="M57.6123 340.581C57.6123 343.285 64.575 348.625 72.3011 348.625C80.0272 348.625 87.2713 341.012 87.2713 338.308C87.2713 335.604 80.0272 338.832 72.3011 338.832C64.575 338.832 57.6123 337.877 57.6123 340.581Z" fill="white"/>
<path d="M203.158 331.94C218.417 331.94 230.787 319.57 230.787 304.311C230.787 289.052 218.417 276.682 203.158 276.682C187.899 276.682 175.529 289.052 175.529 304.311C175.529 319.57 187.899 331.94 203.158 331.94Z" fill="#2F2E41"/>
<path d="M198.961 325.994H190.568V341.033H198.961V325.994Z" fill="#2F2E41"/>
<path d="M215.749 325.994H207.355V341.033H215.749V325.994Z" fill="#2F2E41"/>
<path d="M197.563 343.831C201.426 343.831 204.557 342.657 204.557 341.208C204.557 339.759 201.426 338.585 197.563 338.585C193.699 338.585 190.568 339.759 190.568 341.208C190.568 342.657 193.699 343.831 197.563 343.831Z" fill="#2F2E41"/>
<path d="M214.35 343.481C218.213 343.481 221.344 342.307 221.344 340.858C221.344 339.41 218.213 338.235 214.35 338.235C210.487 338.235 207.355 339.41 207.355 340.858C207.355 342.307 210.487 343.481 214.35 343.481Z" fill="#2F2E41"/>
<path d="M176.357 278.617C174.126 268.626 181.258 258.53 192.286 256.068C203.313 253.606 214.062 259.709 216.293 269.7C218.524 279.691 211.215 283.376 200.187 285.838C189.159 288.3 178.588 288.608 176.357 278.617Z" fill="#E6E6E6"/>
<path d="M232.931 292.238C238.915 286.25 242.241 279.872 240.361 277.994C238.482 276.116 232.107 279.447 226.124 285.435C220.14 291.424 216.813 297.801 218.693 299.679C220.573 301.557 226.948 298.226 232.931 292.238Z" fill="#2F2E41"/>
<path d="M180.888 301.604C182.768 299.725 179.442 293.348 173.458 287.36C167.475 281.372 161.1 278.04 159.22 279.919C157.34 281.797 160.667 288.174 166.651 294.162C172.634 300.151 179.009 303.482 180.888 301.604Z" fill="#2F2E41"/>
<path d="M371.129 128.961C370.211 100.631 350.808 78.2695 327.79 79.0147C276.562 80.5326 275.311 174.475 324.77 181.223L323.723 189.547L338.999 189.053L337.415 180.814C357.311 176.416 371.96 154.645 371.129 128.961Z" fill="#FF6584"/>
<path d="M302.316 144.668L296.545 144.855C294.283 134.1 293.925 123.032 295.486 112.154L301.257 111.967C299.126 123.354 299.479 134.255 302.316 144.668Z" fill="white"/>
<path d="M339.747 180.684L322.435 181.245L322.559 185.092L339.872 184.531L339.747 180.684Z" fill="#3F3D56"/>
<path d="M289.463 327.996L287.72 327.18L330.582 181.828L332.325 182.644L289.463 327.996Z" fill="#3F3D56"/>
<path d="M406.604 152.917C417.071 126.576 408.207 98.3279 386.805 89.8232C339.229 70.7663 300.583 156.401 343.237 182.33L338.955 189.544L353.158 195.188L354.995 187.002C374.992 190.912 397.114 176.798 406.604 152.917Z" fill="#6C63FF"/>
<path d="M337.241 139.85L331.875 137.718C334.094 126.955 338.184 116.664 343.958 107.313L349.323 109.445C342.824 119.035 338.796 129.17 337.241 139.85Z" fill="white"/>
<path d="M341.088 181.418L339.666 184.995L355.763 191.391L357.185 187.814L341.088 181.418Z" fill="#3F3D56"/>
<path d="M289.124 324.17L287.452 323.218L347.292 186.657L348.965 187.609L289.124 324.17Z" fill="#3F3D56"/>
<path d="M81.3408 130.791C70.0159 104.807 43.7207 91.2026 22.6089 100.404C-24.4291 120.752 9.13626 208.502 57.5863 196.489L59.6906 204.61L73.701 198.504L69.1841 191.434C86.0452 179.993 91.6082 154.349 81.3408 130.791Z" fill="#6C63FF"/>
<path d="M23.2089 170.824L17.916 173.131C11.8384 163.974 7.41399 153.823 4.84375 143.138L10.1366 140.831C12.3658 152.199 16.7232 162.197 23.2089 170.824Z" fill="white"/>
<path d="M71.3028 190.451L55.4242 197.372L56.9621 200.901L72.8408 193.98L71.3028 190.451Z" fill="#3F3D56"/>
<path d="M108.041 328.368C107.793 328.43 107.531 328.39 107.313 328.258C107.094 328.127 106.937 327.914 106.875 327.666L65.0428 195.116L66.9107 194.652L108.743 327.202C108.774 327.325 108.78 327.453 108.761 327.577C108.742 327.702 108.699 327.823 108.633 327.931C108.568 328.039 108.482 328.133 108.381 328.208C108.279 328.283 108.163 328.338 108.041 328.368Z" fill="#3F3D56"/>
<path d="M119.221 370.277H18.5009C18.3308 370.277 18.1676 370.209 18.0473 370.089C17.927 369.969 17.8594 369.805 17.8594 369.635C17.8594 369.465 17.927 369.302 18.0473 369.182C18.1676 369.061 18.3308 368.994 18.5009 368.994H119.221C119.391 368.994 119.554 369.061 119.675 369.182C119.795 369.302 119.862 369.465 119.862 369.635C119.862 369.805 119.795 369.969 119.675 370.089C119.554 370.209 119.391 370.277 119.221 370.277Z" fill="#CCCCCC"/>
<path d="M375.191 370.277H274.471C274.301 370.277 274.138 370.209 274.017 370.089C273.897 369.969 273.829 369.805 273.829 369.635C273.829 369.465 273.897 369.302 274.017 369.182C274.138 369.061 274.301 368.994 274.471 368.994H375.191C375.361 368.994 375.524 369.061 375.644 369.182C375.765 369.302 375.832 369.465 375.832 369.635C375.832 369.805 375.765 369.969 375.644 370.089C375.524 370.209 375.361 370.277 375.191 370.277Z" fill="#CCCCCC"/>
<path d="M255.225 343.974H154.505C154.335 343.974 154.172 343.906 154.051 343.786C153.931 343.666 153.864 343.503 153.864 343.333C153.864 343.162 153.931 342.999 154.051 342.879C154.172 342.759 154.335 342.691 154.505 342.691H255.225C255.395 342.691 255.558 342.759 255.679 342.879C255.799 342.999 255.867 343.162 255.867 343.333C255.867 343.503 255.799 343.666 255.679 343.786C255.558 343.906 255.395 343.974 255.225 343.974Z" fill="#CCCCCC"/>
<path d="M201.996 309.838C207.211 309.838 211.439 305.611 211.439 300.396C211.439 295.181 207.211 290.953 201.996 290.953C196.781 290.953 192.553 295.181 192.553 300.396C192.553 305.611 196.781 309.838 201.996 309.838Z" fill="white"/>
<path d="M201.996 303.543C203.734 303.543 205.143 302.134 205.143 300.396C205.143 298.657 203.734 297.248 201.996 297.248C200.257 297.248 198.848 298.657 198.848 300.396C198.848 302.134 200.257 303.543 201.996 303.543Z" fill="#3F3D56"/>
<path d="M209.492 317.86C209.783 319.462 209.427 321.115 208.5 322.454C207.573 323.793 206.152 324.709 204.55 325.001C202.948 325.293 201.295 324.936 199.956 324.009C198.616 323.083 197.7 321.662 197.408 320.059L197.406 320.047C196.802 316.71 199.382 315.529 202.72 314.925C206.057 314.321 208.888 314.522 209.492 317.86Z" fill="white"/>
</svg>
