<svg width="93" height="88" viewBox="0 0 93 88" fill="none" xmlns="http://www.w3.org/2000/svg">
<path d="M4.48365 65.0129C4.48365 66.5936 4.48365 67.8954 4.48365 69.1972C4.48365 70.406 4.11276 71.4289 2.72193 71.5218C1.3311 71.6148 0.682048 70.685 0.589326 69.4762C0.31116 66.3147 -0.337894 63.0602 0.218438 59.9917C1.23838 54.0407 1.42382 47.9966 2.35104 42.0456C4.57637 28.0978 10.7887 16.2887 21.8227 7.36219C26.0879 3.92174 31.0021 1.50413 36.38 0.29533C36.8436 0.202345 37.3072 0.0163748 37.8636 0.0163748C38.8835 -0.0766102 39.8107 0.202345 40.1816 1.31816C40.5525 2.61995 39.8107 3.36383 38.6981 3.73577C37.4927 4.10771 36.1946 4.38667 34.9892 4.75861C29.3331 6.71129 24.6043 9.96577 20.5245 14.2431C15.1467 19.8222 11.3451 26.3311 9.21247 33.8629C9.58336 33.398 9.95424 32.9331 10.3251 32.4681C10.696 31.9102 11.0669 31.2593 11.4378 30.7014C17.1866 21.5889 24.9752 15.0799 35.1746 11.3605C53.719 4.85159 74.1178 12.5693 84.1318 23.7275C93.3113 34.0489 95.4439 45.672 90.1587 58.5039C87.4698 65.1059 83.39 70.685 77.734 75.0553C63.4548 86.0275 47.4139 89.9329 29.704 85.5626C18.8556 82.866 10.696 76.4501 5.59631 66.4077C5.41087 66.0357 5.22542 65.7568 5.03998 65.3848C5.03998 65.3848 4.94726 65.2918 4.48365 65.0129ZM43.056 82.866C52.1427 82.773 61.1368 80.3554 69.389 75.5202C76.9922 71.0569 82.741 65.0129 86.079 56.8302C90.6224 45.765 88.8606 35.7226 80.9793 26.7031C77.2704 22.4258 72.6343 19.4502 67.5346 17.2186C49.3611 9.1289 29.4259 13.9641 17.7429 29.3066C12.9213 35.6296 9.39791 42.6965 6.8017 50.3213C6.33809 51.623 6.24537 53.1108 6.43081 54.4126C8.19253 65.2918 13.7558 73.4745 23.6771 78.5887C29.5186 81.7502 35.9164 82.866 43.056 82.866Z" fill="#7562E8"/>
</svg>
