<svg width="414" height="428" viewBox="0 0 414 428" fill="none" xmlns="http://www.w3.org/2000/svg">
<path d="M346.991 242.24C301.25 290.702 250.959 329.829 196.118 359.62C141.276 389.412 94.8997 384.442 56.988 344.712C19.0764 304.982 11.6117 257.442 34.5941 202.091C57.5765 146.741 88.4689 98.3675 127.271 56.9706C166.074 15.5737 207.995 2.27733 253.033 17.0816C298.072 31.8858 336.426 60.9977 368.097 104.417C399.767 147.837 392.732 193.778 346.991 242.24Z" fill="url(#paint0_linear_2_230)"/>
<path d="M255.799 159.98V119.073C255.799 112.794 253.305 106.772 248.865 102.332C244.425 97.8923 238.403 95.3979 232.124 95.3979H145.458C142.349 95.3979 139.27 96.0102 136.398 97.2C133.525 98.3898 130.915 100.134 128.717 102.332C126.518 104.531 124.774 107.141 123.584 110.013C122.394 112.886 121.782 115.964 121.782 119.073V146.241H120.259V155.813H121.782V166.024H120.259V180.701H121.782V187.083H120.259V201.76H121.782V343.49C121.782 346.599 122.394 349.677 123.584 352.55C124.774 355.422 126.518 358.032 128.716 360.231C130.915 362.429 133.525 364.173 136.397 365.363C139.27 366.553 142.348 367.165 145.458 367.165H232.123C235.233 367.165 238.311 366.553 241.184 365.363C244.056 364.173 246.666 362.429 248.865 360.231C251.063 358.032 252.807 355.422 253.997 352.55C255.187 349.678 255.799 346.599 255.799 343.49V189.098H257.292V159.98H255.799Z" fill="#3F3D56"/>
<path d="M233.079 101.557H221.766C222.286 102.833 222.485 104.217 222.344 105.587C222.204 106.957 221.728 108.272 220.96 109.415C220.192 110.559 219.154 111.495 217.938 112.143C216.723 112.791 215.366 113.13 213.989 113.13H164.339C162.962 113.13 161.605 112.791 160.39 112.143C159.174 111.495 158.136 110.559 157.368 109.415C156.599 108.272 156.124 106.957 155.983 105.587C155.843 104.217 156.041 102.833 156.562 101.557H145.996C141.306 101.557 136.809 103.42 133.493 106.736C130.178 110.052 128.315 114.549 128.315 119.238V343.325C128.315 345.647 128.772 347.946 129.661 350.091C130.549 352.236 131.852 354.185 133.493 355.827C135.135 357.469 137.084 358.771 139.229 359.66C141.375 360.548 143.674 361.006 145.996 361.006H233.079C237.768 361.006 242.265 359.143 245.581 355.827C248.897 352.511 250.76 348.014 250.76 343.325V119.238C250.76 116.916 250.302 114.617 249.414 112.472C248.525 110.327 247.223 108.378 245.581 106.736C243.939 105.094 241.99 103.792 239.845 102.903C237.7 102.015 235.401 101.557 233.079 101.557Z" fill="white"/>
<path d="M235.269 179.542H143.805C143.168 179.541 142.557 179.288 142.106 178.837C141.655 178.386 141.402 177.775 141.401 177.138V140.026C141.402 139.388 141.655 138.777 142.106 138.327C142.557 137.876 143.168 137.622 143.805 137.622H235.269C235.907 137.622 236.518 137.876 236.968 138.327C237.419 138.777 237.673 139.388 237.673 140.026V177.138C237.673 177.775 237.419 178.386 236.968 178.837C236.518 179.288 235.907 179.541 235.269 179.542Z" fill="#B7B3EF"/>
<path d="M226.56 197.104H152.514C151.813 197.104 151.14 196.826 150.644 196.33C150.148 195.834 149.87 195.161 149.87 194.46C149.87 193.759 150.148 193.086 150.644 192.59C151.14 192.094 151.813 191.815 152.514 191.815H226.56C227.261 191.815 227.934 192.094 228.43 192.59C228.926 193.086 229.205 193.759 229.205 194.46C229.205 195.161 228.926 195.834 228.43 196.33C227.934 196.826 227.261 197.104 226.56 197.104Z" fill="#6C63FF"/>
<path d="M226.56 210.567H152.514C151.749 210.567 151.015 210.263 150.474 209.722C149.933 209.181 149.629 208.448 149.629 207.682C149.629 206.917 149.933 206.184 150.474 205.643C151.015 205.101 151.749 204.798 152.514 204.798H226.56C227.325 204.798 228.059 205.101 228.6 205.643C229.141 206.184 229.445 206.917 229.445 207.682C229.445 208.448 229.141 209.181 228.6 209.722C228.059 210.263 227.325 210.567 226.56 210.567Z" fill="#E4E4E4"/>
<path d="M226.56 223.79H152.514C151.749 223.79 151.015 223.486 150.474 222.945C149.933 222.404 149.629 221.67 149.629 220.905C149.629 220.14 149.933 219.406 150.474 218.865C151.015 218.324 151.749 218.02 152.514 218.02H226.56C227.325 218.02 228.059 218.324 228.6 218.865C229.141 219.406 229.445 220.14 229.445 220.905C229.445 221.67 229.141 222.404 228.6 222.945C228.059 223.486 227.325 223.79 226.56 223.79Z" fill="#E4E4E4"/>
<path d="M235.269 290.611H143.805C143.168 290.61 142.557 290.357 142.106 289.906C141.655 289.455 141.402 288.844 141.401 288.207V251.095C141.402 250.457 141.655 249.846 142.106 249.395C142.557 248.945 143.168 248.691 143.805 248.69H235.269C235.907 248.691 236.518 248.945 236.968 249.395C237.419 249.846 237.673 250.457 237.673 251.095V288.207C237.673 288.844 237.419 289.455 236.968 289.906C236.518 290.357 235.907 290.61 235.269 290.611Z" fill="#E4E4E4"/>
<path d="M226.56 308.414H152.514C151.749 308.414 151.015 308.11 150.474 307.569C149.933 307.028 149.629 306.294 149.629 305.529C149.629 304.764 149.933 304.03 150.474 303.489C151.015 302.948 151.749 302.644 152.514 302.644H226.56C227.325 302.644 228.059 302.948 228.6 303.489C229.141 304.03 229.445 304.764 229.445 305.529C229.445 306.294 229.141 307.028 228.6 307.569C228.059 308.11 227.325 308.414 226.56 308.414Z" fill="#E4E4E4"/>
<path d="M226.56 321.636H152.514C151.749 321.636 151.015 321.332 150.474 320.791C149.933 320.25 149.629 319.516 149.629 318.751C149.629 317.986 149.933 317.252 150.474 316.711C151.015 316.17 151.749 315.866 152.514 315.866H226.56C227.325 315.866 228.059 316.17 228.6 316.711C229.141 317.252 229.445 317.986 229.445 318.751C229.445 319.516 229.141 320.25 228.6 320.791C228.059 321.332 227.325 321.636 226.56 321.636Z" fill="#E4E4E4"/>
<path d="M226.56 334.859H152.514C151.749 334.859 151.015 334.555 150.474 334.014C149.933 333.473 149.629 332.739 149.629 331.974C149.629 331.209 149.933 330.475 150.474 329.934C151.015 329.393 151.749 329.089 152.514 329.089H226.56C227.325 329.089 228.059 329.393 228.6 329.934C229.141 330.475 229.445 331.209 229.445 331.974C229.445 332.739 229.141 333.473 228.6 334.014C228.059 334.555 227.325 334.859 226.56 334.859Z" fill="#E4E4E4"/>
<path d="M192.783 105.749H179.801C179.545 105.749 179.301 105.648 179.121 105.467C178.94 105.287 178.839 105.042 178.839 104.787C178.839 104.532 178.94 104.288 179.121 104.107C179.301 103.927 179.545 103.826 179.801 103.826H192.783C193.038 103.826 193.282 103.927 193.463 104.107C193.643 104.288 193.744 104.532 193.744 104.787C193.744 105.042 193.643 105.287 193.463 105.467C193.282 105.648 193.038 105.749 192.783 105.749Z" fill="white"/>
<path d="M199.274 105.749C199.805 105.749 200.235 105.319 200.235 104.787C200.235 104.256 199.805 103.826 199.274 103.826C198.743 103.826 198.312 104.256 198.312 104.787C198.312 105.319 198.743 105.749 199.274 105.749Z" fill="white"/>
<g filter="url(#filter0_d_2_230)">
<path d="M265.544 216.265C264.602 209.36 263.422 201.946 258.551 196.961C257.006 195.379 255.156 194.127 253.114 193.279C251.071 192.432 248.878 192.007 246.667 192.029C244.456 192.052 242.272 192.523 240.247 193.412C238.223 194.302 236.399 195.592 234.887 197.206C231.342 200.988 229.776 206.299 229.633 211.481C229.489 216.663 230.644 221.788 231.924 226.811C238.699 226.946 245.425 225.623 251.644 222.93C253.168 222.186 254.749 221.565 256.372 221.073C258.015 220.655 259.186 221.708 260.714 222.441L261.553 220.835C262.24 222.113 264.366 221.734 265.138 220.505C265.909 219.276 265.74 217.703 265.544 216.265Z" fill="#282929"/>
<path d="M327.607 405.413L322.63 408.704L307.568 391.075L314.912 386.218L327.607 405.413Z" fill="#FFB8B8"/>
<path d="M332.067 409.397L316.02 420.009L315.886 419.806C314.791 418.15 314.398 416.126 314.795 414.18C315.192 412.235 316.345 410.526 318.001 409.43L318.002 409.43L327.802 402.949L332.067 409.397Z" fill="#8A9499"/>
<path d="M263.367 414.226H257.4L254.562 391.213L263.368 391.213L263.367 414.226Z" fill="#FFB8B8"/>
<path d="M264.888 420.009L245.65 420.008V419.765C245.65 417.779 246.439 415.875 247.843 414.471C249.247 413.066 251.152 412.277 253.138 412.277H253.138L264.888 412.278L264.888 420.009Z" fill="#8A9499"/>
<path d="M220.917 256.078L198.39 239.987C198.489 239.144 198.341 238.29 197.964 237.53C197.587 236.769 196.997 236.135 196.266 235.703C195.535 235.272 194.694 235.063 193.847 235.1C192.999 235.138 192.18 235.422 191.49 235.916C190.8 236.411 190.269 237.095 189.961 237.886C189.653 238.677 189.582 239.54 189.755 240.371C189.929 241.202 190.341 241.964 190.94 242.566C191.539 243.167 192.3 243.581 193.13 243.758C195.946 246.122 216.513 266.576 219.458 265.497C222.447 264.402 235.514 262.42 235.514 262.42L235.878 250.012L220.917 256.078Z" fill="#FFB8B8"/>
<path d="M238.616 285.356L238.828 313.668C238.828 313.668 243.703 355.618 245.501 362.705C247.299 369.792 254.598 402.584 254.598 402.584L266.462 400.67L258.821 357.797L261.131 322.263L274.448 357.875L308.263 393.223L316.833 386.307L287.4 343.053L278.41 307.619C278.41 307.619 279.528 289.292 269.455 282.234L238.616 285.356Z" fill="#8A9499"/>
<path d="M245.431 223.097C252.612 223.097 258.434 217.275 258.434 210.094C258.434 202.912 252.612 197.09 245.431 197.09C238.249 197.09 232.427 202.912 232.427 210.094C232.427 217.275 238.249 223.097 245.431 223.097Z" fill="#FFB8B8"/>
<path d="M248.815 289.924L243.981 300.713L258.006 306.996L262.84 296.207L248.815 289.924Z" fill="#8A9499"/>
<path d="M266.258 235.114C264.726 232.064 263.981 228.297 260.714 227.308C258.508 226.64 249.585 227.641 247.574 228.768C244.23 230.643 247.261 234.156 245.288 237.443C243.143 241.017 240.998 244.591 238.853 248.165C237.378 250.621 235.888 253.113 235.091 255.866C234.294 258.618 234.255 261.707 235.614 264.23C236.829 266.488 239.031 268.09 240.254 270.344C241.525 272.689 239.243 283.159 238.06 285.549L238.628 285.811C246.495 286.273 254.387 286.008 262.205 285.018C264.146 284.772 266.16 284.451 267.759 283.325C270.115 281.666 271.046 278.655 271.628 275.834C274.428 262.042 272.538 247.709 266.258 235.114Z" fill="#FFD940"/>
<path d="M239.645 264.65C243.168 261.188 246.709 257.705 249.61 253.706C252.51 249.707 254.765 245.131 255.395 240.231C255.664 238.668 255.557 237.063 255.083 235.55C254.542 234.066 253.346 232.749 251.803 232.411C249.335 231.869 247.091 233.839 245.33 235.651C240.136 240.993 234.943 246.336 229.75 251.679C233.058 256.033 236.366 260.388 239.674 264.742L239.645 264.65Z" fill="#FFD940"/>
<path d="M278.044 267.317C276.949 264.328 274.967 251.261 274.967 251.261L262.56 250.897L268.626 265.858L252.073 289.031C252.073 289.031 252.103 289.082 252.159 289.173C251.289 289.033 250.397 289.159 249.599 289.535C248.802 289.911 248.137 290.518 247.69 291.279C247.244 292.039 247.038 292.916 247.098 293.795C247.159 294.675 247.483 295.515 248.029 296.207C248.575 296.899 249.318 297.41 250.159 297.673C251 297.936 251.901 297.939 252.744 297.682C253.587 297.424 254.333 296.918 254.883 296.23C255.434 295.542 255.764 294.704 255.831 293.825C255.892 293.86 255.963 293.872 256.032 293.86C256.101 293.848 256.164 293.813 256.21 293.76C258.052 291.448 279.139 270.306 278.044 267.317Z" fill="#FFB8B8"/>
<path d="M279.306 259.065C278.167 254.258 277.02 249.425 275.1 244.874C273.18 240.323 270.431 236.024 266.565 232.95C265.367 231.91 263.939 231.171 262.398 230.793C260.849 230.488 259.103 230.83 258.014 231.974C256.273 233.806 256.797 236.745 257.436 239.19C259.319 246.399 261.202 253.608 263.085 260.817C268.523 260.241 273.961 259.665 279.399 259.088L279.306 259.065Z" fill="#FFD940"/>
<path d="M261.687 211.105C261.281 207.959 260.856 204.787 259.901 201.825C258.946 198.863 257.406 196.088 255.198 194.41C251.701 191.754 247.174 192.266 243.253 193.794C240.222 194.976 237.262 196.772 235.124 199.66C232.986 202.548 231.785 206.669 232.58 210.445C236.762 209.281 240.944 208.117 245.126 206.953L244.668 207.334C247.382 208.863 249.443 212.027 250.059 215.61C250.678 219.179 249.886 222.85 247.851 225.848C250.703 224.656 253.555 223.464 256.407 222.272C258.168 221.537 260.052 220.689 261.096 218.802C262.306 216.615 262.025 213.715 261.687 211.105Z" fill="#282929"/>
<path d="M200.291 231.491L191.926 244.046C191.726 244.347 191.455 244.594 191.136 244.764C190.816 244.934 190.46 245.022 190.098 245.02C189.668 245.02 189.247 244.893 188.889 244.654C188.531 244.415 188.252 244.076 188.086 243.679C188.027 243.545 187.983 243.405 187.955 243.262C187.842 242.692 187.959 242.101 188.281 241.617L196.646 229.063C196.806 228.823 197.011 228.618 197.25 228.458C197.489 228.297 197.757 228.186 198.039 228.13C198.321 228.073 198.611 228.073 198.893 228.128C199.175 228.184 199.444 228.295 199.683 228.454C199.922 228.614 200.128 228.819 200.288 229.058C200.448 229.297 200.56 229.565 200.616 229.847C200.673 230.129 200.673 230.419 200.617 230.701C200.561 230.983 200.451 231.252 200.291 231.491Z" fill="#F9D959"/>
<path d="M192.601 243.033L190.907 245.559L187.911 248.2C187.714 248.374 187.465 248.478 187.203 248.496C186.94 248.514 186.679 248.444 186.461 248.299C186.242 248.153 186.077 247.939 185.993 247.69C185.908 247.441 185.908 247.171 185.993 246.922L187.304 243.083L188.956 240.605L192.601 243.033Z" fill="#3F3D56"/>
<path d="M200.661 224.907L196.469 228.602C196.331 228.723 196.224 228.874 196.154 229.043C196.084 229.212 196.054 229.395 196.067 229.578C196.079 229.76 196.133 229.938 196.225 230.096C196.317 230.254 196.444 230.389 196.596 230.491L197.389 231.019L195.095 234.462C195.06 234.515 195.035 234.575 195.023 234.637C195.011 234.7 195.011 234.765 195.023 234.827C195.036 234.89 195.06 234.949 195.096 235.003C195.132 235.056 195.177 235.101 195.23 235.137C195.284 235.172 195.343 235.197 195.406 235.209C195.469 235.221 195.533 235.221 195.596 235.209C195.659 235.196 195.718 235.172 195.771 235.136C195.824 235.1 195.87 235.055 195.905 235.001L198.199 231.559L198.992 232.088C199.255 232.263 199.577 232.326 199.887 232.265C200.197 232.203 200.47 232.021 200.646 231.759C200.704 231.672 200.751 231.577 200.784 231.478L202.58 226.186C202.664 225.937 202.664 225.667 202.58 225.418C202.495 225.169 202.33 224.955 202.112 224.809C201.893 224.664 201.632 224.594 201.369 224.612C201.107 224.63 200.858 224.733 200.661 224.907L200.661 224.907Z" fill="#6359D7"/>
</g>
<defs>
<filter id="filter0_d_2_230" x="184.991" y="190.152" width="155.519" height="237.362" filterUnits="userSpaceOnUse" color-interpolation-filters="sRGB">
<feFlood flood-opacity="0" result="BackgroundImageFix"/>
<feColorMatrix in="SourceAlpha" type="matrix" values="0 0 0 0 0 0 0 0 0 0 0 0 0 0 0 0 0 0 127 0" result="hardAlpha"/>
<feOffset dx="3.75263" dy="2.81447"/>
<feGaussianBlur stdDeviation="2.34539"/>
<feComposite in2="hardAlpha" operator="out"/>
<feColorMatrix type="matrix" values="0 0 0 0 0 0 0 0 0 0 0 0 0 0 0 0 0 0 0.25 0"/>
<feBlend mode="normal" in2="BackgroundImageFix" result="effect1_dropShadow_2_230"/>
<feBlend mode="normal" in="SourceGraphic" in2="effect1_dropShadow_2_230" result="shape"/>
</filter>
<linearGradient id="paint0_linear_2_230" x1="103.808" y1="-60.0103" x2="416.87" y2="-318.244" gradientUnits="userSpaceOnUse">
<stop stop-color="#FFF8DD" stop-opacity="0.51"/>
<stop offset="1" stop-color="#FFCD00" stop-opacity="0.41"/>
</linearGradient>
</defs>
</svg>
