<svg width="420" height="424" viewBox="0 0 420 424" fill="none" xmlns="http://www.w3.org/2000/svg">
<path d="M159.656 317.238C106.796 300.183 76.318 261.864 68.2217 202.282C60.1255 142.7 68.3917 96.0036 93.0203 62.1919C117.649 28.3801 150.021 10.0775 190.137 7.2841C230.253 4.49069 268.914 21.6523 306.12 58.7689C343.326 95.8854 359.67 139.953 355.151 190.972C350.632 241.991 330.134 280.054 293.659 305.161C257.183 330.267 212.516 334.293 159.656 317.238Z" fill="url(#paint0_linear_13_267)"/>
<path d="M212.34 263.654C212.203 263.654 212.067 263.625 211.942 263.569C211.816 263.514 211.704 263.433 211.611 263.331L200.676 251.401C200.552 251.266 200.401 251.158 200.233 251.085C200.065 251.011 199.884 250.972 199.701 250.972H141.914C141.037 250.971 140.196 250.622 139.576 250.002C138.956 249.382 138.607 248.542 138.606 247.665V226.825C138.607 225.948 138.956 225.108 139.576 224.488C140.196 223.867 141.037 223.519 141.914 223.518H216.781C217.658 223.519 218.499 223.867 219.119 224.488C219.739 225.108 220.088 225.948 220.088 226.825V247.665C220.088 248.542 219.739 249.382 219.119 250.002C218.499 250.622 217.658 250.971 216.781 250.972H214.658C214.307 250.973 213.971 251.112 213.723 251.36C213.475 251.608 213.335 251.945 213.335 252.296V262.661C213.336 262.861 213.276 263.056 213.163 263.221C213.05 263.387 212.889 263.513 212.703 263.585C212.587 263.63 212.464 263.654 212.34 263.654ZM141.914 223.958C141.154 223.959 140.425 224.262 139.888 224.799C139.35 225.337 139.048 226.065 139.047 226.825V247.665C139.048 248.425 139.35 249.153 139.888 249.691C140.425 250.228 141.154 250.531 141.914 250.531H199.701C199.945 250.532 200.187 250.583 200.411 250.681C200.634 250.78 200.835 250.923 201.001 251.104L211.936 263.033C212.011 263.115 212.109 263.172 212.218 263.198C212.326 263.223 212.439 263.215 212.543 263.174C212.646 263.134 212.735 263.064 212.798 262.972C212.861 262.88 212.894 262.772 212.894 262.661V252.296C212.895 251.828 213.081 251.379 213.412 251.049C213.742 250.718 214.191 250.532 214.658 250.531H216.781C217.541 250.531 218.27 250.228 218.807 249.691C219.345 249.153 219.647 248.425 219.648 247.665V226.825C219.647 226.065 219.345 225.337 218.807 224.799C218.27 224.262 217.541 223.959 216.781 223.958H141.914Z" fill="#3F3D56"/>
<path d="M146.72 232.71C148.318 232.71 149.614 231.414 149.614 229.815C149.614 228.217 148.318 226.921 146.72 226.921C145.121 226.921 143.825 228.217 143.825 229.815C143.825 231.414 145.121 232.71 146.72 232.71Z" fill="#6C63FF"/>
<path d="M213.404 245.832H145.291C145.088 245.832 144.887 245.792 144.699 245.715C144.512 245.637 144.341 245.523 144.198 245.38C144.054 245.237 143.94 245.066 143.863 244.879C143.785 244.692 143.745 244.491 143.745 244.288C143.745 244.085 143.785 243.884 143.863 243.697C143.94 243.509 144.054 243.339 144.198 243.196C144.341 243.052 144.512 242.939 144.699 242.861C144.887 242.784 145.088 242.744 145.291 242.744H213.404C213.813 242.745 214.205 242.908 214.494 243.197C214.784 243.486 214.946 243.879 214.946 244.288C214.946 244.697 214.784 245.089 214.494 245.379C214.205 245.668 213.813 245.831 213.404 245.832Z" fill="#B6B6B6"/>
<path d="M191.214 239.271H145.291C145.088 239.271 144.887 239.232 144.699 239.154C144.512 239.077 144.341 238.963 144.198 238.82C144.054 238.676 143.94 238.506 143.863 238.319C143.785 238.131 143.745 237.93 143.745 237.727C143.745 237.524 143.785 237.324 143.863 237.136C143.94 236.949 144.054 236.779 144.198 236.635C144.341 236.492 144.512 236.378 144.699 236.301C144.887 236.223 145.088 236.183 145.291 236.184H191.214C191.624 236.184 192.016 236.346 192.306 236.636C192.595 236.925 192.758 237.318 192.758 237.727C192.758 238.137 192.595 238.529 192.306 238.819C192.016 239.108 191.624 239.271 191.214 239.271Z" fill="#B6B6B6"/>
<path d="M170.645 90.0043C168.968 90.0043 167.329 90.5015 165.935 91.433C164.541 92.3645 163.455 93.6884 162.813 95.2374C162.171 96.7864 162.004 98.4909 162.331 100.135C162.658 101.78 163.465 103.29 164.651 104.476C165.836 105.661 167.347 106.469 168.991 106.796C170.635 107.123 172.34 106.955 173.889 106.313C175.438 105.672 176.762 104.585 177.693 103.191C178.625 101.797 179.122 100.158 179.122 98.4815C179.122 96.2332 178.229 94.077 176.639 92.4872C175.049 90.8975 172.893 90.0043 170.645 90.0043ZM168.615 102.183C168.615 102.246 168.59 102.307 168.545 102.352C168.5 102.396 168.44 102.422 168.376 102.422H166.466C166.403 102.422 166.342 102.396 166.297 102.352C166.252 102.307 166.227 102.246 166.227 102.183V97.6457C166.227 97.5824 166.252 97.5216 166.297 97.4768C166.342 97.4321 166.403 97.4069 166.466 97.4069H168.376C168.44 97.4069 168.5 97.4321 168.545 97.4768C168.59 97.5216 168.615 97.5824 168.615 97.6457V102.183ZM175.063 98.6009C175.063 98.7909 174.987 98.9731 174.853 99.1074C174.718 99.2418 174.536 99.3173 174.346 99.3173V99.3293C174.481 99.3568 174.602 99.4301 174.689 99.5367C174.776 99.6433 174.824 99.7767 174.824 99.9143C174.824 100.052 174.776 100.185 174.689 100.292C174.602 100.398 174.481 100.472 174.346 100.499V100.75C174.473 100.75 174.594 100.8 174.684 100.89C174.773 100.979 174.824 101.101 174.824 101.228C174.824 101.354 174.773 101.476 174.684 101.565C174.594 101.655 174.473 101.705 174.346 101.705H169.57C169.507 101.705 169.446 101.68 169.401 101.635C169.357 101.59 169.332 101.53 169.332 101.466V97.6457C169.332 96.4517 171.242 94.7802 171.242 94.7802V94.198C171.242 94.021 171.306 93.8501 171.424 93.7177C171.541 93.5852 171.703 93.5005 171.879 93.4796C172.055 93.4587 172.232 93.5031 172.378 93.6042C172.523 93.7054 172.626 93.8564 172.667 94.0285L172.675 94.0638C172.767 94.9053 172.562 95.7526 172.095 96.4583H173.565C173.586 96.4563 173.607 96.4518 173.63 96.4518H174.346C174.156 96.8318 174.125 97.2717 174.259 97.6747C174.394 98.0777 174.683 98.4109 175.063 98.6009Z" fill="#5E90FF"/>
<path d="M200.542 191.121C198.195 191.121 195.9 191.817 193.948 193.121C191.997 194.425 190.475 196.279 189.577 198.447C188.679 200.616 188.444 203.002 188.902 205.304C189.36 207.606 190.49 209.721 192.15 211.381C193.81 213.041 195.924 214.171 198.227 214.629C200.529 215.087 202.915 214.852 205.084 213.954C207.252 213.055 209.106 211.534 210.41 209.582C211.714 207.631 212.41 205.336 212.41 202.989C212.41 199.841 211.159 196.823 208.934 194.597C206.708 192.371 203.689 191.121 200.542 191.121ZM197.7 208.171C197.7 208.259 197.665 208.344 197.602 208.407C197.54 208.47 197.455 208.505 197.366 208.505H194.691C194.603 208.505 194.518 208.47 194.455 208.407C194.392 208.344 194.357 208.259 194.357 208.171V201.819C194.357 201.73 194.392 201.645 194.455 201.582C194.518 201.52 194.603 201.485 194.691 201.485H197.366C197.455 201.485 197.54 201.52 197.602 201.582C197.665 201.645 197.7 201.73 197.7 201.819V208.171ZM206.727 203.156C206.727 203.422 206.621 203.677 206.433 203.865C206.245 204.053 205.99 204.159 205.724 204.159V204.176C205.912 204.214 206.082 204.317 206.204 204.466C206.326 204.615 206.392 204.802 206.392 204.995C206.392 205.187 206.326 205.374 206.204 205.523C206.082 205.673 205.912 205.775 205.724 205.814V206.165C205.901 206.165 206.071 206.235 206.196 206.361C206.322 206.486 206.392 206.656 206.392 206.833C206.392 207.011 206.322 207.181 206.196 207.306C206.071 207.432 205.901 207.502 205.724 207.502H199.037C198.949 207.502 198.864 207.467 198.801 207.404C198.738 207.341 198.703 207.256 198.703 207.168V201.819C198.703 200.147 201.378 197.807 201.378 197.807V196.992C201.377 196.744 201.468 196.505 201.632 196.32C201.797 196.134 202.024 196.016 202.27 195.986C202.516 195.957 202.764 196.019 202.968 196.161C203.171 196.302 203.315 196.514 203.373 196.755C203.377 196.771 203.38 196.787 203.384 196.804C203.718 198.476 202.571 200.156 202.571 200.156H204.63C204.66 200.154 204.689 200.147 204.721 200.147H205.724C205.99 200.147 206.245 200.253 206.433 200.441C206.621 200.629 206.727 200.884 206.727 201.15C206.727 201.416 206.621 201.671 206.433 201.859C206.245 202.047 205.99 202.153 205.724 202.153C205.99 202.153 206.245 202.259 206.433 202.447C206.621 202.635 206.727 202.89 206.727 203.156V203.156Z" fill="#5E90FF"/>
<path d="M151.818 125.649C151.703 125.756 151.552 125.816 151.395 125.816C151.238 125.816 151.087 125.756 150.973 125.649L150.648 125.356C147.993 122.92 146.46 121.337 146.46 119.364C146.46 117.754 147.479 116.511 149.076 116.511C149.519 116.513 149.955 116.612 150.356 116.8C150.756 116.988 151.111 117.261 151.396 117.599C151.681 117.261 152.035 116.988 152.436 116.8C152.836 116.612 153.272 116.513 153.714 116.511C155.314 116.511 156.33 117.75 156.33 119.364C156.33 121.333 154.797 122.916 152.142 125.356L151.818 125.649Z" fill="#FF6584"/>
<path d="M183.232 155.619C183.012 155.824 182.723 155.938 182.423 155.938C182.122 155.938 181.833 155.824 181.613 155.619L180.992 155.057C175.904 150.389 172.967 147.357 172.967 143.576C172.967 140.492 174.918 138.108 177.979 138.108C178.827 138.113 179.663 138.302 180.431 138.663C181.199 139.023 181.879 139.546 182.425 140.195C182.97 139.546 183.649 139.023 184.416 138.663C185.183 138.302 186.019 138.113 186.867 138.108C189.931 138.108 191.879 140.484 191.879 143.576C191.879 147.349 188.941 150.381 183.854 155.057L183.232 155.619Z" fill="#FF6584"/>
<path d="M171.574 190.303C171.289 190.569 170.913 190.717 170.523 190.717C170.132 190.717 169.757 190.569 169.471 190.303L168.664 189.573C162.056 183.511 158.241 179.572 158.241 174.661C158.241 170.655 160.776 167.56 164.751 167.56C165.852 167.566 166.939 167.812 167.936 168.28C168.933 168.747 169.816 169.426 170.525 170.27C171.233 169.427 172.115 168.748 173.112 168.28C174.108 167.812 175.194 167.566 176.295 167.56C180.275 167.56 182.804 170.645 182.804 174.661C182.804 179.561 178.989 183.5 172.381 189.573L171.574 190.303Z" fill="#FF6584"/>
<g filter="url(#filter0_d_13_267)">
<path d="M234.308 318.076C235.172 317.875 235.982 317.487 236.681 316.939C237.379 316.391 237.949 315.697 238.35 314.906C238.751 314.114 238.974 313.244 239.002 312.357C239.031 311.47 238.865 310.587 238.515 309.771L260.896 259.207L248.093 255.982L230.119 306.699C228.787 307.377 227.751 308.52 227.205 309.911C226.66 311.303 226.644 312.846 227.16 314.248C227.677 315.65 228.689 316.814 230.007 317.52C231.324 318.225 232.854 318.423 234.308 318.076V318.076Z" fill="#CE965F"/>
<path d="M254.475 275.031L242.023 269.203C241.669 269.037 241.355 268.797 241.102 268.498C240.849 268.2 240.663 267.851 240.557 267.474C240.451 267.097 240.428 266.703 240.488 266.316C240.549 265.93 240.692 265.561 240.908 265.234L248.475 253.806C249.335 251.999 250.875 250.607 252.76 249.934C254.644 249.261 256.718 249.362 258.527 250.216C260.337 251.069 261.734 252.605 262.413 254.487C263.093 256.369 262.998 258.444 262.151 260.256L258.237 273.346C258.125 273.721 257.934 274.067 257.676 274.361C257.418 274.655 257.099 274.89 256.742 275.05C256.385 275.21 255.998 275.291 255.607 275.288C255.216 275.285 254.83 275.197 254.475 275.031H254.475Z" fill="#5A83FF"/>
<path d="M211.182 268.529L224.91 278.248C225.086 278.376 225.298 278.444 225.515 278.444C225.732 278.444 225.944 278.376 226.12 278.248L229.83 275.462C229.953 275.372 230.054 275.255 230.126 275.121C230.198 274.986 230.239 274.837 230.245 274.684C230.252 274.531 230.224 274.379 230.163 274.239C230.103 274.099 230.011 273.974 229.896 273.874L219.332 264.453C219.193 264.332 219.025 264.25 218.844 264.215C218.663 264.18 218.476 264.193 218.302 264.254L211.428 266.714C211.251 266.779 211.096 266.891 210.978 267.038C210.86 267.185 210.785 267.361 210.759 267.547C210.734 267.734 210.76 267.924 210.834 268.096C210.909 268.269 211.029 268.419 211.182 268.529H211.182Z" fill="#3F3D56"/>
<path d="M212.43 267.779L224.801 276.538C224.864 276.585 224.939 276.61 225.017 276.611C225.095 276.612 225.171 276.587 225.234 276.542L228.57 274.037C228.608 274.01 228.64 273.975 228.665 273.936C228.69 273.896 228.706 273.852 228.714 273.806C228.722 273.76 228.72 273.712 228.709 273.667C228.699 273.621 228.679 273.578 228.652 273.541C228.636 273.52 228.619 273.501 228.6 273.484L219.071 264.987C219.022 264.945 218.962 264.916 218.897 264.904C218.833 264.892 218.767 264.897 218.705 264.919L212.513 267.135C212.451 267.159 212.397 267.199 212.356 267.251C212.315 267.304 212.288 267.366 212.28 267.432C212.271 267.498 212.281 267.565 212.307 267.626C212.333 267.687 212.376 267.74 212.43 267.779V267.779Z" fill="white"/>
<path d="M261.216 413.434L254.288 413.434L250.992 386.709L261.217 386.71L261.216 413.434Z" fill="#CE965F"/>
<path d="M262.983 420.15L240.643 420.15V419.867C240.643 418.725 240.867 417.594 241.304 416.539C241.741 415.484 242.382 414.526 243.189 413.718C243.997 412.911 244.956 412.27 246.011 411.833C247.066 411.396 248.196 411.172 249.338 411.172H249.339L262.983 411.172L262.983 420.15Z" fill="#292F33"/>
<path d="M284.387 413.434L277.458 413.434L274.162 386.709L284.388 386.71L284.387 413.434Z" fill="#CE965F"/>
<path d="M286.154 420.15L263.813 420.15V419.867C263.813 418.725 264.038 417.594 264.475 416.539C264.912 415.484 265.553 414.526 266.36 413.718C267.168 412.911 268.126 412.27 269.181 411.833C270.236 411.396 271.367 411.172 272.509 411.172H272.51L286.154 411.172L286.154 420.15Z" fill="#292F33"/>
<path d="M284.07 406C284.007 406 283.945 405.997 283.882 405.993L275.914 405.403C275.368 405.36 274.85 405.143 274.437 404.784C274.023 404.425 273.736 403.942 273.617 403.408L259.782 327.468C259.736 327.258 259.613 327.074 259.436 326.951C259.259 326.829 259.042 326.779 258.83 326.81C258.617 326.842 258.425 326.953 258.291 327.121C258.157 327.289 258.092 327.501 258.109 327.716L263.021 402.536C263.049 402.886 263.003 403.238 262.888 403.569C262.774 403.9 262.591 404.205 262.353 404.462C262.115 404.72 261.826 404.925 261.505 405.066C261.183 405.206 260.837 405.279 260.486 405.279H254.418C253.907 405.279 253.407 405.125 252.984 404.836C252.561 404.548 252.236 404.139 252.049 403.662C236.79 363.703 242.316 285.408 242.36 284.62L242.925 284.055L273.317 289.303L273.381 289.365C283.766 296.993 288.26 386.316 286.608 403.307C286.598 404.029 286.332 404.724 285.857 405.267C285.381 405.737 284.739 406 284.07 406Z" fill="#292F33"/>
<path d="M245.866 238.253C253.532 238.253 259.746 232.039 259.746 224.373C259.746 216.707 253.532 210.492 245.866 210.492C238.2 210.492 231.985 216.707 231.985 224.373C231.985 232.039 238.2 238.253 245.866 238.253Z" fill="#CE965F"/>
<path d="M277.7 302.198C277.559 302.198 277.418 302.184 277.279 302.156L241.631 297.581C240.355 297.324 239.444 295.962 239.513 294.412L242.925 275.578C238.403 269.926 242.676 255.331 245.438 251.641L244.37 248.75C244.094 247.999 244.078 247.178 244.322 246.416C244.532 245.699 245.014 245.093 245.665 244.727L260.132 237.04C261.415 236.358 262.92 237.056 263.488 238.593L266.325 246.271L266.281 246.294C273.075 249.935 279.094 253.537 274.573 272.752L280.241 299.289C280.222 300.126 279.885 300.924 279.298 301.521C278.874 301.946 278.301 302.189 277.7 302.198Z" fill="#5A83FF"/>
<path d="M227.402 271.087C227.63 271.301 227.84 271.533 228.032 271.78L255.992 269.848L258.992 263.736L268.808 267.057L264.55 278.394C264.206 279.31 263.574 280.089 262.749 280.616C261.924 281.142 260.951 281.386 259.976 281.312L228.181 278.901C227.477 279.879 226.492 280.619 225.357 281.023C224.222 281.428 222.991 281.477 221.828 281.164C220.664 280.852 219.623 280.193 218.844 279.274C218.064 278.356 217.583 277.222 217.463 276.023C217.344 274.824 217.592 273.618 218.175 272.563C218.758 271.509 219.648 270.658 220.727 270.122C221.806 269.586 223.023 269.391 224.215 269.564C225.407 269.736 226.519 270.267 227.402 271.087Z" fill="#CE965F"/>
<path d="M255.488 268.501C255.348 268.163 255.284 267.799 255.298 267.434C255.312 267.068 255.405 266.711 255.57 266.385L261.336 254.997C261.926 253.223 263.196 251.756 264.867 250.916C266.538 250.077 268.473 249.934 270.249 250.52C272.024 251.105 273.495 252.371 274.339 254.039C275.184 255.707 275.332 257.642 274.751 259.42L272.531 272.031C272.467 272.391 272.327 272.733 272.119 273.034C271.912 273.335 271.642 273.587 271.328 273.774C271.014 273.961 270.664 274.079 270.3 274.118C269.937 274.158 269.569 274.118 269.223 274.003L257.036 269.946C256.689 269.83 256.371 269.642 256.104 269.392C255.837 269.143 255.627 268.839 255.488 268.501Z" fill="#5A83FF"/>
<path d="M253.662 213.412C259.905 213.412 264.965 208.352 264.965 202.109C264.965 195.867 259.905 190.806 253.662 190.806C247.42 190.806 242.36 195.867 242.36 202.109C242.36 208.352 247.42 213.412 253.662 213.412Z" fill="#292F33"/>
<path d="M232.726 226.089C231.621 226.205 230.447 226.31 229.454 225.814C228.922 225.513 228.469 225.09 228.132 224.581C227.794 224.072 227.582 223.49 227.511 222.883C225.405 208.891 237.303 210.042 238.711 209.436C239.657 209.028 240.354 208.208 241.199 207.62C243.048 206.333 245.447 206.239 247.7 206.19C250.374 206.133 253.145 206.093 255.599 207.156C257.806 208.19 259.64 209.88 260.85 211.996C262.047 214.102 262.925 216.375 263.453 218.74C264.134 221.445 264.597 224.307 263.896 227.007C263.318 229.059 262.113 230.879 260.449 232.213C258.785 233.546 256.746 234.326 254.617 234.443C255.53 231.218 253.537 227.643 250.58 226.065C248.194 224.891 245.479 224.568 242.885 225.148C241.202 225.489 239.495 225.702 237.78 225.784C236.097 225.847 234.077 225.946 232.726 226.089Z" fill="#292F33"/>
</g>
<defs>
<filter id="filter0_d_13_267" x="209.768" y="183.934" width="86.009" height="239.161" filterUnits="userSpaceOnUse" color-interpolation-filters="sRGB">
<feFlood flood-opacity="0" result="BackgroundImageFix"/>
<feColorMatrix in="SourceAlpha" type="matrix" values="0 0 0 0 0 0 0 0 0 0 0 0 0 0 0 0 0 0 127 0" result="hardAlpha"/>
<feOffset dx="3.92686" dy="-1.96343"/>
<feGaussianBlur stdDeviation="2.45429"/>
<feComposite in2="hardAlpha" operator="out"/>
<feColorMatrix type="matrix" values="0 0 0 0 0 0 0 0 0 0 0 0 0 0 0 0 0 0 0.25 0"/>
<feBlend mode="normal" in2="BackgroundImageFix" result="effect1_dropShadow_13_267"/>
<feBlend mode="normal" in="SourceGraphic" in2="effect1_dropShadow_13_267" result="shape"/>
</filter>
<linearGradient id="paint0_linear_13_267" x1="401.159" y1="29.2363" x2="661.7" y2="216.962" gradientUnits="userSpaceOnUse">
<stop stop-color="#DCE5FF" stop-opacity="0.39"/>
<stop offset="1" stop-color="#003FFF" stop-opacity="0.38"/>
</linearGradient>
</defs>
</svg>
