<svg width="800" height="446" viewBox="0 0 800 446" fill="none" xmlns="http://www.w3.org/2000/svg">
<path d="M779.097 172.613L770.622 194.296L776.631 196.645L785.106 174.962L779.097 172.613Z" fill="#367CFF"/>
<path d="M249.665 119.442L244.859 123.747L260.391 141.089L265.197 136.785L249.665 119.442Z" fill="#7C64E7"/>
<path d="M320.874 197.064L302.241 211.021L306.109 216.185L324.743 202.228L320.874 197.064Z" fill="#367CFF"/>
<path d="M536.387 36.9003L531.966 41.5986L548.921 57.5535L553.342 52.8552L536.387 36.9003Z" fill="#367CFF"/>
<path d="M413.102 42.0884L401.498 62.2725L407.091 65.4879L418.695 45.3038L413.102 42.0884Z" fill="#7C64E7"/>
<path d="M581.599 214.695L576.143 218.138L588.567 237.826L594.023 234.383L581.599 214.695Z" fill="#7C64E7"/>
<path d="M328.61 310.568L322.838 313.452L333.243 334.278L339.014 331.395L328.61 310.568Z" fill="#7C64E7"/>
<path d="M244.173 255.77L237.488 278.07L243.667 279.923L250.352 257.622L244.173 255.77Z" fill="#367CFF"/>
<path d="M648.034 325.26L628.698 338.227L632.291 343.585L651.627 330.619L648.034 325.26Z" fill="#367CFF"/>
<path d="M650.929 0.00199301L639.327 20.1855L644.92 23.4008L656.523 3.21729L650.929 0.00199301Z" fill="#7C64E7"/>
<path d="M6.00877 165.126L0 167.475L8.47538 189.158L14.4841 186.809L6.00877 165.126Z" fill="#7C64E7"/>
<path d="M629.759 138.338L625.891 143.502L644.524 157.459L648.392 152.295L629.759 138.338Z" fill="#7C64E7"/>
<path d="M106.353 43.2135L89.3975 59.1685L93.8186 63.8668L110.774 47.9119L106.353 43.2135Z" fill="#367CFF"/>
<path d="M294.151 24.2138L288.558 27.4292L300.162 47.6133L305.755 44.3979L294.151 24.2138Z" fill="#367CFF"/>
<path d="M66.0209 277.635L53.5964 297.323L59.0524 300.766L71.4768 281.078L66.0209 277.635Z" fill="#7C64E7"/>
<path d="M10.9892 331.569L7.39575 336.93L26.7422 349.898L30.3357 344.536L10.9892 331.569Z" fill="#367CFF"/>
<path d="M757.389 74.461L751.796 77.6763L763.398 97.8598L768.992 94.6446L757.389 74.461Z" fill="#367CFF"/>
<path d="M514.995 129.465L499.463 146.808L504.269 151.112L519.801 133.769L514.995 129.465Z" fill="#367CFF"/>
<path d="M378.642 324.943L368.237 345.77L374.008 348.653L384.413 327.826L378.642 324.943Z" fill="#7C64E7"/>
<path d="M463.081 270.146L456.902 271.998L463.587 294.298L469.766 292.446L463.081 270.146Z" fill="#367CFF"/>
<path d="M465.161 282.872L443.172 266.157C442.689 265.79 442.134 265.528 441.544 265.386C440.954 265.245 440.341 265.229 439.744 265.337C439.147 265.446 438.579 265.678 438.076 266.018C437.574 266.358 437.147 266.8 436.825 267.314C436.258 268.281 436.072 269.424 436.3 270.521C436.529 271.619 437.157 272.592 438.062 273.253L442.778 276.837L422.778 272.372C420.564 271.837 417.502 272.597 417.066 275.121C416.835 276.082 416.936 277.092 417.352 277.988C417.769 278.884 418.477 279.612 419.36 280.054C419.35 280.073 419.342 280.094 419.336 280.115C419.335 280.132 419.335 280.148 419.336 280.165L415.92 279.34C415.287 279.187 414.629 279.178 413.992 279.312C413.355 279.447 412.756 279.721 412.239 280.117C411.722 280.512 411.299 281.018 411.002 281.597C410.705 282.176 410.541 282.814 410.522 283.465C410.512 284.49 410.855 285.487 411.493 286.29C412.131 287.092 413.024 287.652 414.025 287.874L415.477 288.225C415.486 288.272 415.504 288.317 415.528 288.357C414.491 288.348 413.485 288.708 412.689 289.373C411.893 290.038 411.359 290.964 411.183 291.986C411.023 293.11 411.293 294.253 411.939 295.187C412.585 296.12 413.559 296.776 414.667 297.023L418.278 297.896C418.219 297.92 418.166 297.957 418.124 298.005C418.082 298.054 418.052 298.111 418.036 298.173C418.022 298.248 418.029 298.326 418.058 298.397C417.132 298.645 416.313 299.19 415.727 299.949C415.142 300.708 414.821 301.639 414.816 302.597C414.831 303.604 415.185 304.577 415.822 305.357C416.458 306.138 417.339 306.681 418.323 306.898L448.785 314.258C453.046 315.287 457.518 315.02 461.627 313.491C465.736 311.963 469.296 309.242 471.849 305.678C474.05 302.605 474.966 298.794 474.402 295.056C473.838 291.318 471.839 287.947 468.83 285.66L465.161 282.872Z" fill="#E98862"/>
<g opacity="0.2">
<path opacity="0.2" d="M439.135 284.571C439.109 284.674 439.045 284.762 438.955 284.817C438.865 284.873 438.758 284.891 438.655 284.867L419.639 280.593C419.587 280.582 419.539 280.56 419.495 280.529C419.452 280.499 419.415 280.46 419.387 280.415C419.359 280.371 419.339 280.321 419.33 280.268C419.321 280.216 419.323 280.163 419.334 280.111C419.346 280.059 419.368 280.011 419.398 279.967C419.429 279.924 419.468 279.887 419.512 279.859C419.557 279.83 419.607 279.811 419.659 279.802C419.711 279.793 419.765 279.795 419.817 279.806L438.831 284.08C438.883 284.092 438.932 284.114 438.976 284.144C439.019 284.175 439.056 284.214 439.085 284.259C439.113 284.304 439.132 284.354 439.141 284.406C439.15 284.459 439.148 284.512 439.136 284.564L439.135 284.571Z" fill="#0C0C0C"/>
</g>
<g opacity="0.2">
<path opacity="0.2" d="M437.484 293.01C437.458 293.113 437.393 293.202 437.303 293.257C437.212 293.312 437.103 293.33 437 293.306L415.778 288.54C415.727 288.528 415.678 288.506 415.634 288.475C415.591 288.445 415.554 288.406 415.525 288.361C415.497 288.316 415.478 288.266 415.469 288.213C415.46 288.161 415.462 288.107 415.474 288.056C415.5 287.953 415.565 287.864 415.655 287.807C415.745 287.751 415.853 287.731 415.957 287.751L437.179 292.517C437.231 292.528 437.28 292.55 437.323 292.581C437.367 292.611 437.403 292.65 437.432 292.695C437.46 292.74 437.479 292.79 437.488 292.843C437.497 292.895 437.496 292.949 437.484 293.001V293.01Z" fill="#0C0C0C"/>
</g>
<g opacity="0.2">
<path opacity="0.2" d="M435.747 302.159C435.722 302.262 435.657 302.35 435.568 302.405C435.478 302.46 435.37 302.478 435.267 302.455L418.339 298.654C418.235 298.63 418.144 298.566 418.087 298.476C418.03 298.386 418.011 298.276 418.034 298.172C418.058 298.068 418.122 297.977 418.212 297.92C418.302 297.862 418.412 297.843 418.516 297.867L435.444 301.668C435.496 301.68 435.545 301.701 435.588 301.732C435.632 301.763 435.669 301.802 435.697 301.847C435.726 301.892 435.745 301.942 435.754 301.994C435.763 302.047 435.761 302.1 435.75 302.152L435.747 302.159Z" fill="#0C0C0C"/>
</g>
<path d="M360.767 167.903L373.044 143.161C373.314 142.618 373.694 142.136 374.16 141.747C374.626 141.359 375.168 141.071 375.751 140.903C376.334 140.736 376.946 140.691 377.547 140.773C378.149 140.854 378.726 141.06 379.244 141.377C380.181 141.992 380.857 142.933 381.14 144.018C381.423 145.103 381.294 146.255 380.776 147.249L378.143 152.555L394.077 139.673C395.824 138.21 398.904 137.532 400.416 139.599C401.05 140.357 401.408 141.307 401.433 142.295C401.457 143.282 401.146 144.249 400.551 145.037C400.568 145.05 400.585 145.065 400.6 145.081C400.609 145.096 400.616 145.11 400.623 145.126L403.317 142.868C403.817 142.45 404.403 142.149 405.033 141.987C405.663 141.824 406.322 141.804 406.961 141.929C407.6 142.053 408.203 142.318 408.726 142.705C409.249 143.092 409.68 143.591 409.986 144.165C410.45 145.08 410.585 146.125 410.371 147.128C410.156 148.13 409.604 149.028 408.806 149.672L407.659 150.633C407.672 150.679 407.676 150.727 407.671 150.774C408.596 150.305 409.658 150.18 410.666 150.422C411.675 150.664 412.564 151.257 413.176 152.094C413.818 153.031 414.083 154.175 413.919 155.298C413.755 156.421 413.172 157.441 412.289 158.155L409.441 160.539C409.506 160.534 409.57 160.543 409.629 160.568C409.689 160.592 409.742 160.63 409.783 160.679C409.83 160.741 409.858 160.814 409.864 160.89C410.804 160.701 411.78 160.826 412.642 161.245C413.504 161.665 414.204 162.357 414.634 163.213C415.068 164.122 415.183 165.151 414.959 166.133C414.736 167.114 414.187 167.992 413.403 168.624L389.379 188.747C386.018 191.563 381.893 193.31 377.533 193.766C373.173 194.221 368.775 193.364 364.905 191.305C361.569 189.529 359.056 186.522 357.901 182.923C356.746 179.324 357.039 175.417 358.718 172.031L360.767 167.903Z" fill="#E98862"/>
<g opacity="0.2">
<path opacity="0.2" d="M384.841 157.865C384.909 157.947 385.007 157.998 385.112 158.007C385.218 158.017 385.323 157.985 385.405 157.918L400.545 145.645C400.628 145.578 400.681 145.48 400.692 145.374C400.704 145.268 400.672 145.161 400.605 145.078C400.537 144.995 400.44 144.942 400.333 144.931C400.227 144.92 400.12 144.951 400.037 145.019L384.897 157.291C384.815 157.358 384.762 157.455 384.751 157.561C384.74 157.667 384.771 157.773 384.838 157.856L384.841 157.865Z" fill="#0C0C0C"/>
</g>
<g opacity="0.2">
<path opacity="0.2" d="M390.069 164.693C390.137 164.774 390.235 164.825 390.34 164.835C390.446 164.844 390.551 164.812 390.633 164.745L407.53 151.049C407.612 150.982 407.664 150.884 407.675 150.779C407.686 150.673 407.655 150.567 407.588 150.484C407.519 150.405 407.423 150.355 407.318 150.344C407.213 150.333 407.108 150.362 407.024 150.425L390.122 164.118C390.04 164.185 389.987 164.282 389.976 164.388C389.965 164.494 389.996 164.599 390.062 164.682L390.069 164.693Z" fill="#0C0C0C"/>
</g>
<g opacity="0.2">
<path opacity="0.2" d="M395.688 172.118C395.756 172.2 395.854 172.251 395.959 172.26C396.065 172.27 396.17 172.238 396.252 172.171L409.73 161.246C409.813 161.179 409.866 161.081 409.877 160.975C409.888 160.868 409.857 160.762 409.79 160.679C409.722 160.596 409.624 160.543 409.518 160.531C409.412 160.52 409.305 160.552 409.222 160.619L395.741 171.544C395.659 171.611 395.606 171.708 395.595 171.814C395.584 171.92 395.615 172.026 395.681 172.109L395.688 172.118Z" fill="#0C0C0C"/>
</g>
<path d="M85.2393 146.69C85.2393 146.69 83.5079 172.669 77.6637 182.092C60.8367 209.227 55.9618 239.752 72.8122 255.701C89.6626 271.65 197.14 271.871 205.283 235.189C212.137 204.307 197.427 200.986 193.847 175.513C192.228 163.986 187.773 139.815 187.773 139.815" fill="#0A0A0A"/>
<path d="M177.466 229.811C177.281 229.787 175.222 263.948 135.537 260.97C108.063 258.911 98.2674 229.761 97.6384 229.761C100.6 229.131 105.588 228.216 106.904 227.513C111.23 225.189 116.581 222.77 117.977 214.368C118.784 209.53 117.417 184.755 117.837 179.853L160.009 189.269C159.419 199.616 155.295 223.603 169.751 227.848C172.155 228.552 174.746 229.198 177.466 229.811Z" fill="#E98862"/>
<path opacity="0.5" d="M160.599 218.047C159.939 215.918 159.513 213.723 159.331 211.502C158.867 206.433 158.96 201.328 159.607 196.279C151.036 195.122 142.961 191.584 136.301 186.067C135.518 188.959 131.21 201.596 132.403 204.344C134.656 209.54 145.246 218.047 160.599 218.047Z" fill="#0C0C0C"/>
<path d="M155.146 207.405C138.519 209.018 117.007 202.363 112.551 180.221L108.53 160.242C104.073 138.101 112.09 117.811 132.937 113.615C153.785 109.421 172.98 124.232 177.436 146.374L179.217 155.219C180.927 163.715 184.811 204.534 155.146 207.405Z" fill="#E98862"/>
<path opacity="0.1" d="M144.578 178.389C147.314 178.063 149.338 176.171 149.099 174.164C148.859 172.158 146.447 170.795 143.711 171.122C140.975 171.448 138.951 173.34 139.19 175.347C139.43 177.354 141.842 178.716 144.578 178.389Z" fill="#0C0C0C"/>
<path opacity="0.1" d="M173.489 170.366C173.731 172.37 176.147 173.73 178.883 173.407C179.356 173.351 179.821 173.245 180.272 173.092C180.4 170.703 180.407 168.404 180.338 166.276C179.578 166.086 178.789 166.04 178.012 166.14C175.276 166.462 173.252 168.353 173.489 170.366Z" fill="#0C0C0C"/>
<path opacity="0.5" d="M161.4 176.559C161.413 176.558 161.427 176.556 161.44 176.553C162.285 176.377 163.12 176.154 163.94 175.886C165.164 175.476 166.762 174.804 166.543 173.697C166.29 172.435 160.092 159.519 159.388 158.052C159.36 157.986 159.318 157.926 159.265 157.876C159.213 157.827 159.151 157.788 159.083 157.763C159.016 157.738 158.944 157.726 158.872 157.73C158.799 157.733 158.729 157.751 158.664 157.782C158.598 157.813 158.54 157.857 158.493 157.911C158.445 157.966 158.409 158.029 158.386 158.097C158.363 158.166 158.355 158.238 158.361 158.31C158.367 158.382 158.387 158.452 158.421 158.516C161.063 164.017 165.32 173.061 165.491 173.91C165.357 174.306 163.326 175.08 161.23 175.502C161.161 175.513 161.094 175.538 161.034 175.575C160.974 175.612 160.922 175.661 160.881 175.718C160.84 175.775 160.81 175.84 160.794 175.908C160.778 175.977 160.775 176.048 160.786 176.117C160.798 176.187 160.822 176.253 160.859 176.313C160.896 176.373 160.945 176.425 161.002 176.466C161.059 176.508 161.124 176.537 161.192 176.553C161.261 176.57 161.332 176.572 161.401 176.561L161.4 176.559Z" fill="#0C0C0C"/>
<path d="M91.8955 167.415L110.585 163.764C124.704 157.86 128.709 133.255 128.709 133.255C128.709 133.255 146.133 149.849 187.776 139.815C187.776 139.815 178.73 81.682 117.241 99.3316C97.4147 105.021 83.3707 125.23 85.4594 151.997C86.923 170.75 91.8955 167.415 91.8955 167.415Z" fill="#0A0A0A"/>
<path d="M115.203 186.705C108.867 187.98 102.368 182.236 101.09 175.899C99.8128 169.562 104.248 165.037 110.584 163.761L114.703 167.349L120.649 185.608L115.203 186.705Z" fill="#E98862"/>
<path d="M163.879 147.751C165.464 146.631 167.318 145.949 169.252 145.777C170.223 145.684 171.203 145.739 172.159 145.939C173.122 146.135 174.057 146.451 174.942 146.881L174.969 146.893C175.067 146.937 175.178 146.94 175.279 146.902C175.379 146.865 175.461 146.79 175.506 146.693C175.552 146.596 175.558 146.485 175.523 146.383C175.488 146.282 175.414 146.199 175.318 146.151C174.381 145.656 173.385 145.281 172.354 145.035C171.316 144.782 170.245 144.687 169.179 144.753C167.019 144.872 164.93 145.569 163.131 146.769C163.064 146.815 163.006 146.873 162.962 146.941C162.917 147.008 162.886 147.084 162.871 147.164C162.856 147.243 162.856 147.325 162.873 147.404C162.889 147.484 162.921 147.559 162.967 147.626C163.013 147.693 163.071 147.75 163.139 147.795C163.207 147.839 163.282 147.87 163.362 147.885C163.442 147.9 163.524 147.899 163.603 147.882C163.682 147.866 163.757 147.834 163.824 147.788L163.839 147.778L163.879 147.751Z" fill="#0C0C0C"/>
<path d="M146.806 150.111C144.684 149.689 142.487 149.844 140.445 150.56C139.436 150.908 138.484 151.405 137.623 152.035C136.764 152.657 135.988 153.385 135.312 154.201C135.243 154.282 135.209 154.387 135.216 154.493C135.223 154.598 135.271 154.697 135.349 154.769C135.428 154.84 135.531 154.879 135.637 154.876C135.743 154.873 135.843 154.829 135.918 154.753L135.94 154.731C136.592 153.996 137.335 153.346 138.149 152.795C138.956 152.246 139.84 151.821 140.773 151.535C142.626 150.953 144.599 150.872 146.493 151.301L146.539 151.313C146.698 151.352 146.866 151.326 147.006 151.24C147.145 151.155 147.245 151.018 147.284 150.859C147.322 150.7 147.296 150.533 147.211 150.393C147.126 150.253 146.989 150.153 146.83 150.115L146.806 150.111Z" fill="#0C0C0C"/>
<path d="M110.598 163.456C123.162 158.778 127.331 150.103 128.615 143.647C129.446 139.341 129.368 134.909 128.386 130.635L127.998 130.742C128.964 134.96 129.039 139.334 128.217 143.583C126.949 149.934 122.84 158.47 110.457 163.079L110.598 163.456Z" fill="#0C0C0C"/>
<path d="M209.788 233.875L329.082 273.75L294.057 289.319L353.541 167.289L402.155 189.945L346.965 313.975C344.174 320.247 339.219 325.305 333.006 328.225C326.793 331.146 319.737 331.733 313.126 329.88L311.94 329.544L190.841 295.544L209.788 233.875Z" fill="#367CFF"/>
<path d="M134.797 252.43C107.304 251.134 106.146 227.799 106.146 227.799C106.146 227.799 92.5242 228.679 83.4687 229.904C68.6432 231.91 58.8628 236.937 51.0791 244.72C43.839 251.961 39.431 259.795 44.0954 309.808C47.4727 346.022 45.0962 425.676 45.0962 425.676H212.633C212.633 425.676 224.332 310.598 225.719 294.299C228.366 263.179 235.844 256.309 220.692 240.279C209.705 228.654 181.338 227.799 169.921 227.8C169.735 227.8 172.238 254.195 134.797 252.43Z" fill="#367CFF"/>
<path d="M166.974 180.924C161.572 183.671 155.409 184.54 149.458 183.393C149.252 183.354 149.039 183.375 148.844 183.453C148.65 183.531 148.481 183.662 148.358 183.832C148.236 184.002 148.164 184.204 148.151 184.413C148.139 184.622 148.186 184.83 148.288 185.014C150.062 188.14 154.27 193.481 161.489 191.304C166.15 189.898 167.912 185.103 168.565 182.136C168.61 181.931 168.595 181.717 168.523 181.52C168.45 181.323 168.323 181.15 168.156 181.023C167.989 180.896 167.789 180.819 167.579 180.802C167.37 180.784 167.16 180.827 166.974 180.924Z" fill="white"/>
<path d="M167.312 156.899C168.754 156.899 169.923 155.73 169.923 154.289C169.923 152.847 168.754 151.678 167.312 151.678C165.871 151.678 164.702 152.847 164.702 154.289C164.702 155.73 165.871 156.899 167.312 156.899Z" fill="#0C0C0C"/>
<path d="M142.228 161.29C143.67 161.29 144.839 160.121 144.839 158.679C144.839 157.238 143.67 156.069 142.228 156.069C140.786 156.069 139.618 157.238 139.618 158.679C139.618 160.121 140.786 161.29 142.228 161.29Z" fill="#0C0C0C"/>
<path d="M225.347 305.638C225.33 305.639 225.313 305.639 225.296 305.638C225.19 305.624 225.094 305.57 225.028 305.485C224.962 305.401 224.933 305.294 224.946 305.188L227.54 284.158C227.546 284.105 227.562 284.054 227.588 284.008C227.613 283.961 227.648 283.92 227.69 283.888C227.732 283.855 227.78 283.831 227.832 283.817C227.883 283.804 227.937 283.801 227.989 283.808C228.042 283.815 228.093 283.831 228.139 283.858C228.185 283.884 228.225 283.919 228.258 283.961C228.291 284.002 228.315 284.05 228.329 284.101C228.343 284.152 228.347 284.206 228.34 284.258L225.746 305.288C225.733 305.384 225.685 305.473 225.612 305.538C225.539 305.602 225.444 305.637 225.347 305.638Z" fill="#0C0C0C"/>
<path d="M649.422 143.365C649.422 143.365 639.428 132.142 640.587 111.124C641.485 94.8501 654.038 108.011 654.038 108.011C654.038 108.011 654.798 96.2993 662.882 99.0879C670.966 101.877 673.236 114.791 673.236 114.791" fill="#0C0C0C"/>
<path d="M705.587 108.988C705.587 108.988 745.952 121.632 719.901 174.551L716.203 174.067L708.695 173.087" fill="#0C0C0C"/>
<path d="M648.164 229.726C648.349 229.701 650.401 263.749 689.955 260.781C717.337 258.73 727.101 229.678 727.728 229.678C724.776 229.05 719.804 228.138 718.493 227.438C714.181 225.121 708.846 222.71 707.456 214.337C706.655 209.511 708.014 184.822 707.596 179.938L665.563 189.319C666.151 199.632 670.262 223.539 655.854 227.771C653.457 228.471 650.873 229.114 648.164 229.726Z" fill="#E98862"/>
<path opacity="0.52" d="M664.976 218.001C665.634 215.879 666.057 213.691 666.239 211.477C666.702 206.424 666.61 201.336 665.965 196.304C674.508 195.151 682.557 191.625 689.196 186.126C689.976 189.009 694.269 201.604 693.08 204.343C690.834 209.521 680.277 218.001 664.976 218.001Z" fill="#0C0C0C"/>
<path d="M670.015 206.47C686.568 208.253 708.079 201.857 712.762 179.839L716.985 159.97C721.662 137.955 713.896 117.643 693.163 113.236C672.431 108.829 653.14 123.385 648.46 145.404L646.59 154.2C646.001 157.231 645.618 160.299 645.446 163.382C644.931 171.527 644.179 183.917 647.938 193.15C651.486 201.865 659.439 205.331 670.015 206.47Z" fill="#E98862"/>
<path d="M656.867 155.744C658.309 155.744 659.477 154.575 659.477 153.133C659.477 151.692 658.309 150.523 656.867 150.523C655.425 150.523 654.257 151.692 654.257 153.133C654.257 154.575 655.425 155.744 656.867 155.744Z" fill="#0C0C0C"/>
<path d="M681.659 158.355C683.101 158.355 684.27 157.186 684.27 155.744C684.27 154.303 683.101 153.134 681.659 153.134C680.218 153.134 679.049 154.303 679.049 155.744C679.049 157.186 680.218 158.355 681.659 158.355Z" fill="#0C0C0C"/>
<path d="M710.048 186.273C716.348 187.613 722.889 181.958 724.228 175.657C725.568 169.357 721.198 164.797 714.898 163.458L710.754 166.989L704.631 185.122L710.048 186.273Z" fill="#E98862"/>
<path d="M705.791 174.871C705.791 174.871 709.885 143.21 700.797 139.393C694.749 136.851 677.664 142.749 664.033 137.223C658.071 134.803 651.88 135.166 650.697 137.975C650.229 139.087 649.688 121.657 661.916 110.948C671.652 102.42 697.511 104.619 708.36 110.214C738.399 125.705 715.931 165.093 715.931 165.093L712.363 175.577L705.791 174.871Z" fill="#0C0C0C"/>
<g opacity="0.52">
<path opacity="0.52" d="M663.657 177.137L663.616 177.13C661.585 176.704 658.225 175.76 658.542 174.243C658.807 172.984 665.105 160.115 665.824 158.652C665.886 158.526 665.995 158.43 666.128 158.384C666.26 158.339 666.405 158.348 666.531 158.41C666.657 158.472 666.753 158.581 666.799 158.713C666.844 158.846 666.835 158.991 666.773 159.117C663.979 164.815 659.757 173.604 659.577 174.46C659.702 174.863 661.73 175.654 663.832 176.095C663.964 176.125 664.08 176.204 664.155 176.316C664.231 176.428 664.261 176.565 664.238 176.699C664.216 176.832 664.143 176.952 664.035 177.034C663.927 177.115 663.792 177.152 663.657 177.137Z" fill="#0C0C0C"/>
</g>
<path d="M663.189 144.968C661.193 143.961 658.962 143.51 656.732 143.664C655.636 143.733 654.556 143.966 653.529 144.355C652.513 144.735 651.55 145.242 650.661 145.864C650.512 145.959 650.407 146.108 650.367 146.28C650.328 146.452 650.357 146.632 650.45 146.782C650.542 146.932 650.69 147.04 650.861 147.082C651.032 147.124 651.213 147.097 651.364 147.007L651.411 146.981C652.226 146.475 653.101 146.074 654.016 145.787C654.918 145.499 655.859 145.349 656.806 145.343C658.677 145.315 660.523 145.783 662.156 146.698L662.217 146.735C662.331 146.803 662.458 146.847 662.59 146.866C662.721 146.885 662.856 146.878 662.984 146.845C663.113 146.812 663.234 146.754 663.341 146.674C663.447 146.593 663.536 146.493 663.604 146.378C663.671 146.264 663.715 146.137 663.733 146.005C663.751 145.873 663.743 145.739 663.709 145.61C663.675 145.482 663.616 145.361 663.535 145.255C663.454 145.15 663.353 145.061 663.238 144.994L663.189 144.968Z" fill="#0C0C0C"/>
<path d="M678.116 149.002C679.929 148.537 681.833 148.559 683.635 149.066C684.548 149.316 685.418 149.702 686.216 150.212C687.026 150.725 687.769 151.337 688.427 152.035L688.463 152.072C688.587 152.192 688.753 152.26 688.927 152.261C689.1 152.262 689.267 152.196 689.392 152.077C689.518 151.958 689.593 151.795 689.602 151.622C689.61 151.449 689.552 151.28 689.438 151.149C688.739 150.32 687.938 149.582 687.054 148.953C686.161 148.314 685.178 147.811 684.137 147.463C682.021 146.74 679.75 146.601 677.562 147.06C677.432 147.088 677.31 147.141 677.201 147.217C677.092 147.293 676.999 147.389 676.928 147.5C676.783 147.726 676.734 147.999 676.791 148.26C676.848 148.522 677.006 148.75 677.231 148.895C677.457 149.039 677.73 149.088 677.992 149.031L678.043 149.018L678.116 149.002Z" fill="#0C0C0C"/>
<path d="M660.463 182.021C666.343 183.49 672.544 182.958 678.087 180.508C678.28 180.424 678.492 180.397 678.699 180.429C678.906 180.461 679.099 180.552 679.257 180.69C679.415 180.828 679.53 181.008 679.589 181.209C679.648 181.41 679.648 181.624 679.591 181.826C678.559 185.27 675.655 191.422 668.132 190.913C663.274 190.585 660.484 186.305 659.181 183.56C659.09 183.37 659.057 183.158 659.083 182.949C659.109 182.74 659.195 182.543 659.33 182.381C659.465 182.219 659.643 182.099 659.844 182.035C660.045 181.972 660.259 181.967 660.463 182.021Z" fill="white"/>
<path d="M683.794 115.458C686.604 108.863 685.249 101.97 680.768 100.061C676.288 98.1523 670.378 101.951 667.568 108.546C664.759 115.141 666.114 122.035 670.594 123.943C675.075 125.852 680.985 122.053 683.794 115.458Z" fill="#0C0C0C"/>
<path d="M690.57 252.43C718.062 251.134 719.219 227.799 719.219 227.799C719.219 227.799 732.841 228.679 741.898 229.904C756.723 231.91 766.504 236.937 774.286 244.72C781.527 251.961 785.935 259.795 781.27 309.808C777.893 346.022 780.27 425.676 780.27 425.676H612.734C612.734 425.676 601.035 310.601 599.648 294.299C597 263.179 589.523 256.309 604.673 240.279C615.661 228.654 644.027 227.799 655.446 227.8C655.63 227.8 653.13 254.195 690.57 252.43Z" fill="#367CFF"/>
<path d="M599.251 247.487L555.935 339.317L470.514 275.08L436.586 320.196L549.697 405.256C550.709 406.008 551.766 406.698 552.863 407.32C556.095 409.131 559.652 410.288 563.331 410.724C567.009 411.16 570.738 410.867 574.304 409.862C577.87 408.857 581.202 407.16 584.112 404.867C587.022 402.574 589.451 399.73 591.262 396.498L591.752 395.625L657.837 277.668L599.251 247.487Z" fill="#367CFF"/>
<path d="M786.699 426.482H23.7456C23.5318 426.482 23.3266 426.398 23.1754 426.246C23.0242 426.095 22.9392 425.89 22.9392 425.676C22.9392 425.462 23.0242 425.257 23.1754 425.106C23.3266 424.955 23.5318 424.87 23.7456 424.87H786.699C786.913 424.87 787.118 424.955 787.269 425.106C787.42 425.257 787.505 425.462 787.505 425.676C787.505 425.89 787.42 426.095 787.269 426.246C787.118 426.398 786.913 426.482 786.699 426.482Z" fill="#292A2E"/>
<path d="M620.75 305.727H212.195V445.378H620.75V305.727Z" fill="white"/>
<path d="M621.152 445.781H211.792V305.323H621.152V445.781ZM212.599 444.975H620.346V306.13H212.599V444.975Z" fill="#0C0C0C"/>
<path d="M192.022 348.406L217.241 337.142C217.795 336.895 218.395 336.766 219.002 336.763C219.609 336.76 220.21 336.883 220.766 337.125C221.323 337.367 221.823 337.722 222.235 338.168C222.647 338.614 222.961 339.141 223.158 339.715C223.489 340.786 223.411 341.942 222.938 342.958C222.465 343.974 221.632 344.779 220.599 345.216L215.191 347.635L235.684 347.846C237.963 347.829 240.769 349.267 240.619 351.824C240.626 352.812 240.297 353.773 239.687 354.551C239.077 355.328 238.222 355.875 237.261 356.104C237.267 356.125 237.27 356.147 237.271 356.169C237.268 356.186 237.265 356.202 237.26 356.219L240.775 356.194C241.425 356.189 242.068 356.33 242.657 356.606C243.246 356.882 243.766 357.285 244.18 357.788C244.593 358.29 244.89 358.878 245.047 359.509C245.205 360.14 245.22 360.798 245.091 361.435C244.867 362.436 244.306 363.329 243.502 363.965C242.698 364.602 241.7 364.943 240.675 364.931L239.179 364.942C239.16 364.985 239.132 365.025 239.099 365.059C240.111 365.286 241.009 365.866 241.632 366.694C242.256 367.523 242.564 368.546 242.503 369.581C242.403 370.712 241.88 371.764 241.038 372.526C240.197 373.289 239.099 373.706 237.963 373.694L234.249 373.721C234.301 373.757 234.344 373.805 234.374 373.861C234.405 373.917 234.421 373.98 234.423 374.043C234.42 374.119 234.395 374.193 234.351 374.255C235.196 374.708 235.869 375.426 236.266 376.298C236.663 377.171 236.763 378.15 236.55 379.084C236.306 380.061 235.739 380.927 234.942 381.541C234.144 382.156 233.163 382.484 232.156 382.471L200.818 382.695C196.435 382.726 192.141 381.447 188.489 379.023C184.837 376.599 181.991 373.139 180.318 369.087C178.875 365.593 178.851 361.674 180.252 358.163C181.652 354.652 184.366 351.825 187.818 350.283L192.022 348.406Z" fill="#E98862"/>
<g opacity="0.2">
<path opacity="0.2" d="M216.977 355.992C216.978 356.098 217.021 356.199 217.097 356.274C217.172 356.348 217.274 356.39 217.38 356.39L236.868 356.565C236.975 356.566 237.078 356.524 237.154 356.449C237.231 356.374 237.274 356.272 237.275 356.165C237.276 356.058 237.234 355.955 237.159 355.879C237.084 355.803 236.982 355.759 236.875 355.758L217.387 355.583C217.28 355.583 217.178 355.625 217.102 355.701C217.026 355.776 216.984 355.879 216.984 355.986L216.977 355.992Z" fill="#0C0C0C"/>
</g>
<g opacity="0.2">
<path opacity="0.2" d="M216.661 364.588C216.663 364.694 216.706 364.795 216.781 364.869C216.857 364.943 216.959 364.985 217.064 364.985L238.813 365.181C238.92 365.181 239.023 365.139 239.098 365.063C239.174 364.987 239.216 364.885 239.216 364.778C239.213 364.672 239.169 364.572 239.094 364.497C239.019 364.422 238.919 364.378 238.813 364.375L217.064 364.179C217.011 364.178 216.958 364.188 216.909 364.208C216.86 364.228 216.815 364.258 216.777 364.295C216.739 364.333 216.709 364.378 216.688 364.427C216.668 364.476 216.657 364.529 216.657 364.582L216.661 364.588Z" fill="#0C0C0C"/>
</g>
<g opacity="0.2">
<path opacity="0.2" d="M216.267 373.889C216.269 373.995 216.312 374.096 216.387 374.17C216.463 374.245 216.565 374.286 216.671 374.286L234.019 374.443C234.126 374.444 234.229 374.402 234.306 374.327C234.382 374.252 234.425 374.15 234.426 374.043C234.427 373.936 234.386 373.833 234.311 373.757C234.236 373.681 234.134 373.637 234.027 373.636L216.678 373.48C216.571 373.48 216.468 373.522 216.393 373.598C216.317 373.674 216.275 373.776 216.275 373.883L216.267 373.889Z" fill="#0C0C0C"/>
</g>
<path d="M199.241 393.311L59.4157 425.097C54.7706 425.602 50.0716 425.024 45.6873 423.409C41.303 421.793 37.3527 419.184 34.1464 415.785C30.94 412.386 28.5648 408.291 27.2071 403.82C25.8495 399.349 25.5462 394.624 26.3213 390.017L42.3225 261.31C43.6533 253.401 48.0715 246.344 54.6053 241.692C61.139 237.04 69.2531 235.174 77.1625 236.505C85.0718 237.836 92.1286 242.254 96.7804 248.788C101.432 255.322 103.298 263.436 101.967 271.345L94.2617 363.468L191.408 341.483L199.241 393.311Z" fill="#367CFF"/>
<path d="M74.6035 367.088C74.5023 367.087 74.405 367.048 74.3311 366.979C74.2573 366.91 74.2121 366.815 74.2047 366.714C74.1973 366.613 74.2281 366.513 74.2911 366.434C74.3541 366.355 74.4446 366.302 74.5446 366.286L94.0289 362.126C94.0813 362.117 94.1349 362.119 94.1865 362.132C94.2381 362.144 94.2867 362.167 94.3294 362.199C94.3721 362.23 94.408 362.27 94.4351 362.316C94.4621 362.361 94.4798 362.412 94.4869 362.465C94.5027 362.57 94.4758 362.678 94.4123 362.764C94.3488 362.849 94.2538 362.907 94.1482 362.923L74.664 367.083C74.644 367.086 74.6238 367.088 74.6035 367.088Z" fill="#0C0C0C"/>
<path d="M63.6105 425.676C63.5035 425.683 63.3982 425.648 63.3177 425.577C63.2371 425.506 63.188 425.406 63.181 425.299C63.1741 425.192 63.2099 425.087 63.2806 425.007C63.3513 424.926 63.4511 424.877 63.558 424.87L198.363 393.12L190.725 342.073L94.1582 362.919C94.0957 362.927 94.0323 362.92 93.9729 362.899C93.9134 362.879 93.8596 362.845 93.8154 362.8C93.7714 362.754 93.7387 362.699 93.7199 362.639C93.7012 362.578 93.6969 362.514 93.7074 362.452L99.1242 309.816C99.1323 309.764 99.1508 309.713 99.1787 309.668C99.2066 309.623 99.2433 309.584 99.2866 309.553C99.3299 309.522 99.3789 309.5 99.4308 309.488C99.4827 309.477 99.5364 309.476 99.5887 309.485C99.6941 309.503 99.7882 309.562 99.8502 309.649C99.9122 309.736 99.9371 309.845 99.9193 309.95L94.5969 362.046L190.912 341.183C190.964 341.169 191.018 341.165 191.072 341.172C191.125 341.179 191.176 341.196 191.223 341.224C191.269 341.251 191.31 341.287 191.342 341.33C191.374 341.373 191.398 341.422 191.411 341.474L199.244 393.306C199.268 393.408 199.253 393.515 199.199 393.606C199.146 393.696 199.06 393.762 198.959 393.79L63.6629 425.673C63.6455 425.675 63.628 425.677 63.6105 425.676Z" fill="#0C0C0C"/>
<path d="M633.344 372.599L608.125 361.336C607.57 361.088 606.971 360.959 606.364 360.956C605.757 360.953 605.156 361.077 604.6 361.319C604.043 361.561 603.543 361.916 603.132 362.362C602.72 362.808 602.406 363.334 602.209 363.908C601.877 364.979 601.956 366.135 602.429 367.151C602.901 368.168 603.735 368.972 604.767 369.409L610.175 371.828L589.682 372.039C587.404 372.023 584.597 373.46 584.748 376.018C584.741 377.006 585.069 377.967 585.679 378.744C586.289 379.521 587.145 380.069 588.106 380.297C588.1 380.319 588.096 380.341 588.095 380.363C588.098 380.379 588.101 380.396 588.106 380.412L584.592 380.387C583.942 380.383 583.298 380.523 582.709 380.799C582.12 381.075 581.6 381.478 581.186 381.981C580.773 382.483 580.476 383.071 580.319 383.702C580.161 384.333 580.146 384.991 580.275 385.629C580.5 386.629 581.061 387.522 581.864 388.158C582.668 388.795 583.666 389.136 584.691 389.125L586.187 389.135C586.207 389.178 586.234 389.218 586.268 389.252C585.256 389.479 584.358 390.059 583.735 390.888C583.111 391.716 582.802 392.739 582.864 393.774C582.964 394.906 583.487 395.957 584.329 396.72C585.17 397.482 586.269 397.899 587.404 397.887L591.119 397.914C591.066 397.95 591.023 397.998 590.993 398.054C590.962 398.11 590.946 398.173 590.944 398.237C590.947 398.313 590.972 398.386 591.016 398.449C590.171 398.901 589.498 399.619 589.101 400.492C588.704 401.364 588.604 402.343 588.817 403.278C589.061 404.254 589.628 405.12 590.425 405.735C591.223 406.35 592.204 406.677 593.211 406.665L624.549 406.888C628.933 406.919 633.227 405.64 636.879 403.215C640.532 400.791 643.377 397.33 645.05 393.278C646.493 389.784 646.516 385.865 645.116 382.354C643.715 378.843 641.001 376.016 637.55 374.474L633.344 372.599Z" fill="#E98862"/>
<g opacity="0.2">
<path opacity="0.2" d="M608.39 380.186C608.388 380.292 608.345 380.393 608.27 380.467C608.194 380.541 608.092 380.583 607.986 380.583L588.498 380.758C588.445 380.759 588.393 380.749 588.344 380.729C588.294 380.709 588.25 380.68 588.212 380.643C588.174 380.605 588.144 380.561 588.123 380.513C588.103 380.464 588.092 380.411 588.091 380.359C588.091 380.306 588.101 380.253 588.121 380.204C588.14 380.155 588.17 380.11 588.207 380.072C588.244 380.035 588.288 380.004 588.337 379.984C588.386 379.963 588.438 379.952 588.491 379.952L607.979 379.776C608.086 379.776 608.189 379.818 608.264 379.894C608.34 379.97 608.382 380.072 608.382 380.179L608.39 380.186Z" fill="#0C0C0C"/>
</g>
<g opacity="0.2">
<path opacity="0.2" d="M608.704 388.781C608.702 388.886 608.66 388.987 608.585 389.061C608.511 389.135 608.41 389.177 608.305 389.179L586.555 389.374C586.448 389.374 586.346 389.332 586.27 389.256C586.194 389.181 586.152 389.078 586.152 388.971C586.155 388.865 586.199 388.765 586.274 388.69C586.349 388.615 586.449 388.571 586.555 388.568L608.304 388.372C608.411 388.372 608.513 388.415 608.589 388.49C608.665 388.566 608.707 388.668 608.707 388.775L608.704 388.781Z" fill="#0C0C0C"/>
</g>
<g opacity="0.2">
<path opacity="0.2" d="M609.1 398.083C609.098 398.189 609.055 398.29 608.98 398.364C608.904 398.439 608.803 398.48 608.697 398.48L591.348 398.637C591.295 398.637 591.242 398.627 591.193 398.607C591.144 398.588 591.099 398.558 591.062 398.521C591.024 398.484 590.994 398.44 590.973 398.391C590.952 398.342 590.941 398.29 590.941 398.237C590.94 398.184 590.95 398.132 590.97 398.083C590.99 398.033 591.019 397.989 591.057 397.951C591.094 397.913 591.138 397.883 591.186 397.862C591.235 397.842 591.288 397.831 591.341 397.83L608.689 397.674C608.796 397.674 608.899 397.716 608.974 397.792C609.05 397.868 609.093 397.97 609.093 398.077L609.1 398.083Z" fill="#0C0C0C"/>
</g>
<path d="M634.19 417.504L765.951 425.097C770.596 425.602 775.295 425.024 779.679 423.409C784.064 421.793 788.014 419.184 791.22 415.785C794.427 412.386 796.802 408.291 798.16 403.82C799.517 399.349 799.82 394.624 799.045 390.017L783.047 261.306C782.388 257.39 780.965 253.641 778.857 250.275C776.75 246.909 774 243.991 770.765 241.688C767.529 239.385 763.872 237.741 760.002 236.851C756.131 235.961 752.124 235.842 748.207 236.501C744.291 237.16 740.543 238.584 737.177 240.691C733.811 242.799 730.893 245.549 728.589 248.784C726.286 252.019 724.643 255.676 723.753 259.547C722.863 263.417 722.744 267.425 723.403 271.341L731.108 369.109L634.768 365.672L634.19 417.504Z" fill="#367CFF"/>
<path d="M750.764 368.701C750.865 368.7 750.962 368.661 751.037 368.592C751.111 368.523 751.156 368.428 751.163 368.327C751.171 368.226 751.14 368.126 751.077 368.047C751.014 367.967 750.924 367.915 750.823 367.899L731.339 367.771C731.287 367.762 731.233 367.764 731.181 367.777C731.13 367.789 731.081 367.812 731.038 367.843C730.996 367.875 730.96 367.915 730.933 367.961C730.905 368.006 730.888 368.057 730.88 368.11C730.865 368.215 730.892 368.323 730.955 368.409C731.019 368.495 731.114 368.552 731.22 368.568L750.704 368.696C750.724 368.699 750.744 368.701 750.764 368.701Z" fill="#0C0C0C"/>
<path d="M761.758 425.677C761.864 425.683 761.97 425.647 762.05 425.577C762.131 425.506 762.18 425.406 762.187 425.299C762.193 425.192 762.157 425.087 762.087 425.006C762.016 424.926 761.916 424.877 761.809 424.87L635.067 417.316L635.447 366.269L731.207 368.567C731.269 368.575 731.332 368.568 731.392 368.548C731.451 368.527 731.505 368.493 731.549 368.448C731.593 368.403 731.626 368.347 731.645 368.287C731.664 368.227 731.668 368.163 731.657 368.1L726.241 309.819C726.233 309.767 726.215 309.717 726.187 309.671C726.159 309.626 726.122 309.587 726.079 309.556C726.036 309.525 725.987 309.504 725.935 309.492C725.883 309.48 725.829 309.479 725.777 309.489C725.725 309.497 725.675 309.516 725.63 309.544C725.585 309.573 725.546 309.609 725.515 309.652C725.484 309.695 725.462 309.744 725.45 309.796C725.438 309.848 725.437 309.901 725.445 309.953L730.772 367.694L635.263 365.379C635.211 365.365 635.157 365.361 635.104 365.368C635.05 365.375 634.999 365.393 634.952 365.42C634.906 365.447 634.866 365.483 634.833 365.526C634.801 365.569 634.778 365.618 634.764 365.671L634.189 417.503C634.164 417.604 634.18 417.712 634.233 417.802C634.286 417.892 634.372 417.959 634.473 417.986L761.702 425.668C761.72 425.672 761.739 425.675 761.758 425.677Z" fill="#0C0C0C"/>
<path d="M309.057 397.101H298.347L292.34 373.8C292.118 372.971 291.739 371.257 291.203 368.658C290.668 366.059 290.359 364.315 290.277 363.424C290.157 364.516 289.853 366.271 289.367 368.688C288.881 371.105 288.507 372.829 288.245 373.861L282.268 397.101H271.589L260.272 352.747H269.526L275.199 376.958C276.19 381.428 276.908 385.301 277.353 388.578C277.474 387.425 277.752 385.64 278.187 383.223C278.623 380.806 279.033 378.93 279.416 377.595L285.878 352.747H294.768L301.23 377.595C301.512 378.708 301.866 380.407 302.292 382.692C302.717 384.976 303.04 386.939 303.259 388.579C303.462 387.001 303.784 385.034 304.227 382.677C304.67 380.32 305.073 378.414 305.437 376.959L311.082 352.748H320.336L309.057 397.101Z" fill="#7C64E7"/>
<path d="M351.471 397.101H325.925V352.747H351.471V360.453H335.331V370.192H350.349V377.895H335.331V389.333H351.471V397.101Z" fill="#7C64E7"/>
<path d="M360.725 397.101V352.747H370.13V389.337H388.121V397.103L360.725 397.101Z" fill="#7C64E7"/>
<path d="M414.669 359.934C413.074 359.861 411.486 360.188 410.05 360.885C408.613 361.582 407.374 362.626 406.443 363.924C404.501 366.584 403.531 370.29 403.531 375.043C403.531 384.936 407.242 389.882 414.665 389.882C418.54 389.731 422.364 388.941 425.982 387.543V395.431C422.109 396.993 417.962 397.766 413.786 397.707C407.334 397.707 402.399 395.75 398.98 391.836C395.56 387.922 393.851 382.304 393.852 374.981C393.76 370.803 394.622 366.658 396.371 362.861C397.922 359.532 400.445 356.75 403.607 354.882C406.974 352.974 410.796 352.015 414.665 352.106C419.173 352.154 423.612 353.222 427.648 355.231L424.614 362.877C422.983 362.1 421.313 361.411 419.608 360.813C418.023 360.244 416.353 359.947 414.669 359.934Z" fill="#7C64E7"/>
<path d="M475.68 374.862C475.68 382.203 473.859 387.846 470.219 391.791C466.578 395.736 461.359 397.708 454.563 397.707C447.768 397.707 442.55 395.735 438.909 391.791C435.268 387.847 433.448 382.184 433.448 374.801C433.448 367.418 435.273 361.78 438.924 357.887C442.575 353.994 447.808 352.047 454.624 352.046C461.44 352.046 466.653 354.008 470.265 357.933C473.876 361.857 475.681 367.5 475.68 374.862ZM443.308 374.862C443.308 379.817 444.249 383.548 446.131 386.056C448.012 388.564 450.823 389.818 454.564 389.818C462.069 389.818 465.821 384.833 465.82 374.862C465.82 364.87 462.088 359.874 454.625 359.874C450.883 359.874 448.061 361.133 446.157 363.651C444.253 366.17 443.304 369.906 443.308 374.862Z" fill="#7C64E7"/>
<path d="M503.652 397.101L492.973 362.302H492.7C493.084 369.381 493.276 374.104 493.277 376.47V397.101H484.872V352.747H497.676L508.173 386.666H508.355L519.49 352.747H532.293V397.101H523.525V376.105C523.525 375.115 523.54 373.972 523.57 372.677C523.599 371.382 523.736 367.944 523.979 362.362H523.707L512.269 397.101H503.652Z" fill="#7C64E7"/>
<path d="M569.004 397.101H543.457V352.747H569.002V360.453H552.864V370.192H567.882V377.895H552.864V389.333H569.004V397.101Z" fill="#7C64E7"/>
</svg>
