<svg width="122" height="28" viewBox="0 0 122 28" fill="none" xmlns="http://www.w3.org/2000/svg">
<path d="M5.76 -1.90735e-06H12.28L7.72 22.72H21.76L20.68 28H0.16L5.76 -1.90735e-06ZM44.9006 22H31.9006L29.4206 28H22.7806L35.2606 -1.90735e-06H41.6606L54.1806 28H47.3806L44.9006 22ZM42.8606 17.08L38.4206 6.36L33.9806 17.08H42.8606ZM82.5656 28L82.5256 11.2L74.2856 25.04H71.3656L63.1656 11.56V28H57.0856V-1.90735e-06H62.4456L72.9256 17.4L83.2456 -1.90735e-06H88.5656L88.6456 28H82.5656ZM110.049 -1.90735e-06C113.542 -1.90735e-06 116.235 0.773332 118.129 2.32C120.049 3.84 121.009 5.97333 121.009 8.72C121.009 11.0667 120.449 13.12 119.329 14.88C118.235 16.6133 116.662 17.9467 114.609 18.88C112.582 19.8133 110.182 20.28 107.409 20.28H101.169L99.6488 28H93.1288L98.7288 -1.90735e-06H110.049ZM107.689 15C109.849 15 111.515 14.5067 112.689 13.52C113.862 12.5333 114.449 11.12 114.449 9.28C114.449 7.94667 113.995 6.94667 113.089 6.28C112.209 5.61333 110.929 5.28 109.249 5.28H104.169L102.209 15H107.689Z" fill="url(#paint0_linear_13_365)"/>
<defs>
<linearGradient id="paint0_linear_13_365" x1="2" y1="19" x2="119" y2="21" gradientUnits="userSpaceOnUse">
<stop offset="0.330707" stop-color="#7562E8"/>
<stop offset="1" stop-color="#9B1AC8" stop-opacity="0.83"/>
</linearGradient>
</defs>
</svg>
