<svg width="326" height="168" viewBox="0 0 326 168" fill="none" xmlns="http://www.w3.org/2000/svg">
<path d="M199.414 141.792C227.492 141.792 250.254 119.03 250.254 90.9516C250.254 62.8733 227.492 40.1113 199.414 40.1113C171.336 40.1113 148.574 62.8733 148.574 90.9516C148.574 119.03 171.336 141.792 199.414 141.792Z" fill="#2F2E41"/>
<path d="M179.778 160.573L164.58 157.821L169.509 126.086L184.707 128.838L179.778 160.573Z" fill="#2F2E41"/>
<path d="M215.104 134.34L199.906 131.589L194.976 158.819L210.174 161.57L215.104 134.34Z" fill="#2F2E41"/>
<path d="M220.332 163.054C220.86 160.441 215.639 157.182 208.671 155.775C201.703 154.369 195.627 155.347 195.1 157.96C194.572 160.573 199.793 163.831 206.761 165.238C213.729 166.644 219.805 165.667 220.332 163.054Z" fill="#2F2E41"/>
<path d="M188.678 162.233C189.028 159.59 183.599 156.691 176.552 155.758C169.505 154.824 163.509 156.21 163.159 158.852C162.809 161.495 168.238 164.394 175.284 165.328C182.331 166.261 188.328 164.876 188.678 162.233Z" fill="#2F2E41"/>
<path d="M202.973 95.8914C212.57 95.8914 220.349 88.112 220.349 78.5157C220.349 68.9193 212.57 61.1399 202.973 61.1399C193.377 61.1399 185.598 68.9193 185.598 78.5157C185.598 88.112 193.377 95.8914 202.973 95.8914Z" fill="white"/>
<path d="M210.115 78.0795C213.313 78.0795 215.907 75.4863 215.907 72.2875C215.907 69.0887 213.313 66.4956 210.115 66.4956C206.916 66.4956 204.323 69.0887 204.323 72.2875C204.323 75.4863 206.916 78.0795 210.115 78.0795Z" fill="#3F3D56"/>
<path d="M159.308 35.6428C158.544 16.821 174.765 0.878763 195.54 0.0348747C216.315 -0.809013 233.777 13.765 234.541 32.5868C235.306 51.4086 220.864 55.6851 200.089 56.529C179.314 57.3729 160.073 54.4646 159.308 35.6428Z" fill="white"/>
<path d="M248.141 89.4678C261.826 86.3311 272.121 80.3058 271.136 76.0099C270.151 71.714 258.26 70.7743 244.575 73.9109C230.891 77.0476 220.596 83.0729 221.581 87.3688C222.565 91.6647 234.457 92.6044 248.141 89.4678Z" fill="#2F2E41"/>
<path d="M148.343 106.064C162.028 102.927 172.323 96.902 171.338 92.6061C170.353 88.3102 158.462 87.3705 144.778 90.5071C131.093 93.6438 120.798 99.669 121.783 103.965C122.768 108.261 134.659 109.201 148.343 106.064Z" fill="#2F2E41"/>
<path d="M185.451 110.987C185.18 112.484 185.206 114.02 185.529 115.506C185.851 116.993 186.464 118.401 187.33 119.652C188.197 120.902 189.302 121.969 190.581 122.792C191.86 123.615 193.289 124.178 194.786 124.449C196.283 124.72 197.819 124.694 199.305 124.371C200.792 124.049 202.2 123.437 203.45 122.57C204.7 121.703 205.768 120.598 206.591 119.319C207.414 118.04 207.977 116.611 208.248 115.114C209.388 108.819 204.52 106.591 198.225 105.452C191.93 104.312 186.591 104.692 185.451 110.987Z" fill="white"/>
<path d="M309.526 149.356C308.09 149.861 306.549 149.987 305.05 149.723C303.551 149.459 302.146 148.813 300.969 147.848C297.971 145.333 297.032 141.188 296.267 137.351L294.006 126L298.74 129.26C302.146 131.605 305.627 134.024 307.985 137.42C310.343 140.816 311.372 145.452 309.477 149.127" fill="#FD6584"/>
<path d="M308.795 163.888C309.391 159.546 310.004 155.148 309.586 150.76C309.214 146.863 308.025 143.056 305.605 139.935C304.32 138.282 302.756 136.865 300.985 135.749C300.523 135.457 300.097 136.19 300.557 136.48C303.623 138.417 305.994 141.278 307.329 144.65C308.803 148.4 309.04 152.488 308.785 156.471C308.631 158.88 308.306 161.273 307.978 163.663C307.952 163.772 307.968 163.885 308.023 163.982C308.078 164.079 308.167 164.151 308.273 164.184C308.382 164.213 308.497 164.198 308.594 164.143C308.692 164.088 308.763 163.996 308.794 163.888L308.795 163.888Z" fill="#F2F2F2"/>
<path d="M304.505 156.922C303.89 157.858 303.043 158.619 302.048 159.133C301.052 159.647 299.941 159.896 298.822 159.856C295.944 159.719 293.546 157.711 291.386 155.806L285 150.165L289.227 149.963C292.266 149.818 295.385 149.682 298.282 150.619C301.179 151.557 303.847 153.813 304.377 156.808" fill="#E6E6E6"/>
<path d="M310.479 166.384C307.613 161.308 304.283 155.666 298.337 153.863C296.684 153.363 294.95 153.184 293.229 153.335C292.687 153.381 292.823 154.218 293.366 154.171C296.25 153.932 299.128 154.693 301.517 156.328C303.815 157.892 305.604 160.067 307.118 162.373C308.046 163.784 308.877 165.259 309.708 166.729C309.972 167.199 310.748 166.86 310.479 166.384Z" fill="#F2F2F2"/>
<line y1="167" x2="325.002" y2="167" stroke="#E0E0E0" stroke-width="2"/>
<circle cx="278" cy="46" r="15" fill="#FD6584"/>
<circle cx="120" cy="72" r="15" fill="#DCD7FF"/>
<circle cx="280" cy="40" r="14.5" stroke="black"/>
<circle cx="115" cy="68" r="14.5" stroke="black"/>
</svg>
