<svg width="368" height="407" viewBox="0 0 368 407" fill="none" xmlns="http://www.w3.org/2000/svg">
<path d="M332.216 218.39C292.576 260.082 247.079 293.038 195.727 317.258C144.375 341.478 96.8749 334.509 53.2261 296.351C9.57726 258.193 -4.38248 214.534 11.3469 165.373C27.0763 116.212 51.7354 73.8174 85.3243 38.1896C118.913 2.56175 159.447 -7.32771 206.925 8.52118C254.403 24.3701 297.064 52.8875 334.909 94.0736C372.754 135.26 371.857 176.698 332.216 218.39Z" fill="url(#paint0_linear_13_300)"/>
<path d="M53.8987 92.2953C53.8987 79.047 64.6386 68.307 77.8869 68.307H236.3C249.548 68.307 260.288 79.0469 260.288 92.2953V210.879C260.288 224.127 249.548 234.867 236.3 234.867H77.8869C64.6386 234.867 53.8987 224.127 53.8987 210.879V92.2953Z" fill="white" stroke="#DADADA" stroke-width="0.905216"/>
<line x1="75.1711" y1="104.516" x2="229.963" y2="104.516" stroke="#323232" stroke-width="0.905216"/>
<line x1="114.548" y1="92.2953" x2="114.548" y2="196.395" stroke="#323232" stroke-width="0.905216"/>
<line x1="155.283" y1="92.2953" x2="155.283" y2="196.395" stroke="#323232" stroke-width="0.905216"/>
<line x1="190.586" y1="92.2953" x2="190.586" y2="196.395" stroke="#323232" stroke-width="0.905216"/>
<line x1="84.2234" y1="98.1792" x2="105.949" y2="98.1792" stroke="#AFAFAF" stroke-width="0.905216"/>
<line x1="123.148" y1="98.1792" x2="144.873" y2="98.1792" stroke="#AFAFAF" stroke-width="0.905216"/>
<line x1="162.072" y1="98.1792" x2="183.797" y2="98.1792" stroke="#AFAFAF" stroke-width="0.905216"/>
<line x1="198.281" y1="98.1792" x2="220.006" y2="98.1792" stroke="#AFAFAF" stroke-width="0.905216"/>
<rect x="84.2234" y="123.978" width="16.2939" height="16.2939" fill="#00A9FF"/>
<rect x="167.503" y="123.978" width="16.2939" height="16.2939" fill="#00A9FF"/>
<rect x="123.767" y="120.384" width="16.2939" height="16.2939" transform="rotate(0.305188 123.767 120.384)" fill="#7A53EA"/>
<rect x="168.495" y="154.755" width="16.2939" height="16.2939" transform="rotate(0.305188 168.495 154.755)" fill="#7A53EA"/>
<rect x="206.427" y="143.893" width="16.2939" height="16.2939" fill="#7562E8"/>
<rect x="92.3704" y="154.755" width="16.2939" height="16.2939" fill="#DD61AA"/>
<rect x="129.484" y="160.187" width="16.2939" height="16.2939" fill="#DD61AA"/>
<g filter="url(#filter0_d_13_300)">
<path d="M241.215 284.549C240.323 284.461 239.462 284.18 238.691 283.723C237.92 283.267 237.259 282.648 236.754 281.908C236.248 281.169 235.911 280.327 235.766 279.444C235.621 278.56 235.672 277.655 235.914 276.793L220.298 262.256L228.555 260.161L243.911 272.616C245.332 273.12 246.519 274.127 247.248 275.447C247.976 276.768 248.195 278.309 247.863 279.78C247.53 281.251 246.67 282.549 245.445 283.427C244.219 284.306 242.714 284.705 241.215 284.549Z" fill="#FFB8B8"/>
<path d="M262.778 391.992H270.247L273.8 363.183H262.777L262.778 391.992Z" fill="#FFB8B8"/>
<path d="M284.652 398.927L261.178 398.928L261.177 389.858L275.582 389.858C277.987 389.857 280.294 390.813 281.995 392.514C283.696 394.214 284.652 396.521 284.652 398.927L284.652 398.927Z" fill="#373F45"/>
<path d="M211.567 386.599L218.785 388.521L229.63 361.595L218.978 358.76L211.567 386.599Z" fill="#FFB8B8"/>
<path d="M230.921 398.929L208.237 392.891L210.57 384.127L224.49 387.832C226.814 388.451 228.797 389.967 230.003 392.048C231.21 394.13 231.54 396.605 230.921 398.929Z" fill="#373F45"/>
<path d="M272.255 386.538H260.859C260.139 386.54 259.444 386.273 258.911 385.789C258.378 385.305 258.046 384.639 257.979 383.922L251.061 312.076C251.01 311.549 250.778 311.056 250.404 310.681C250.03 310.306 249.537 310.073 249.01 310.022C248.483 309.97 247.955 310.104 247.515 310.399C247.076 310.694 246.752 311.133 246.601 311.64L226.512 378.776C226.3 379.49 225.82 380.094 225.173 380.462C224.526 380.831 223.762 380.935 223.04 380.754L212.437 378.103C212.067 378.01 211.719 377.845 211.413 377.618C211.107 377.39 210.849 377.104 210.654 376.777C210.459 376.449 210.33 376.086 210.276 375.709C210.221 375.331 210.242 374.946 210.337 374.577C210.51 373.901 227.646 306.936 227.795 306.248C231.678 277.634 236.323 269.966 238.818 265.847C239.025 265.506 239.214 265.193 239.385 264.897C239.599 264.526 240.916 260.848 241.751 258.46C241.86 258.072 242.048 257.71 242.303 257.398C242.558 257.086 242.876 256.83 243.235 256.646C253.72 251.284 265.988 254.996 269.498 256.261C270.08 256.466 270.58 256.854 270.922 257.367C281.453 273.251 276.285 365.499 275.142 383.831C275.094 384.564 274.77 385.252 274.234 385.755C273.698 386.257 272.99 386.537 272.255 386.538Z" fill="#373F45"/>
<path d="M242.844 204.554C251.108 204.554 257.807 197.855 257.807 189.591C257.807 181.327 251.108 174.627 242.844 174.627C234.58 174.627 227.881 181.327 227.881 189.591C227.881 197.855 234.58 204.554 242.844 204.554Z" fill="#FFB8B8"/>
<path d="M241.259 261.365L241.151 261.261C240.95 261.066 221.013 241.535 223.593 223.474C224.697 215.75 230.947 210.814 241.667 209.2C245.606 208.615 249.623 209.471 252.981 211.611C256.339 213.752 258.811 217.032 259.944 220.849L270.544 257.088L241.259 261.365Z" fill="#DE50A3"/>
<path d="M231.055 275.257L216.849 261.141C215.877 260.17 215.172 258.966 214.801 257.644C214.43 256.322 214.405 254.926 214.729 253.592L221.606 225.617C221.812 224.779 222.188 223.991 222.71 223.304C223.233 222.617 223.891 222.045 224.644 221.622C225.396 221.199 226.228 220.936 227.086 220.847C227.945 220.759 228.813 220.848 229.636 221.108C231.204 221.614 232.514 222.71 233.289 224.165C234.063 225.62 234.241 227.319 233.784 228.903L226.544 253.513L238.252 266.086L231.055 275.257Z" fill="#DE50A3"/>
<path d="M296.113 233.296L277.625 241.286C276.395 241.813 275.049 242.015 273.718 241.872C272.387 241.73 271.115 241.247 270.024 240.47L246.515 223.626C245.813 223.123 245.222 222.481 244.778 221.741C244.334 221.001 244.047 220.177 243.935 219.321C243.822 218.466 243.886 217.596 244.123 216.766C244.36 215.936 244.765 215.163 245.312 214.496C246.365 213.227 247.869 212.418 249.508 212.24C251.146 212.061 252.79 212.528 254.09 213.541L274.249 229.406L290.271 223.207L296.113 233.296Z" fill="#DE50A3"/>
<path d="M245.325 194.385C247.171 192.072 250.62 191.948 253.155 190.422C256.477 188.424 257.85 183.958 256.779 180.232C255.709 176.507 252.553 173.604 248.934 172.215C245.315 170.826 241.288 170.809 237.47 171.48C231.786 172.48 226.19 175.133 222.723 179.747C219.256 184.361 218.374 191.119 221.516 195.96C222.96 198.185 225.189 200.022 225.766 202.611C226.523 206.01 224.138 209.288 221.584 211.655C218.674 214.352 215.335 216.61 212.785 219.65C210.236 222.69 208.536 226.843 209.699 230.636C210.674 233.814 213.51 236.155 216.621 237.328C219.731 238.5 223.119 238.669 226.442 238.734C229.669 238.798 233.097 238.719 235.816 236.979C238.726 235.116 240.28 231.582 240.395 228.129C240.51 224.675 239.356 221.292 237.809 218.202C236.887 216.36 235.815 214.575 235.203 212.609C234.59 210.643 234.484 208.411 235.465 206.6C236.496 204.697 238.582 203.549 240.707 203.131C240.817 203.11 240.934 203.09 241.056 203.073C241.66 202.995 242.243 202.794 242.768 202.485C243.292 202.175 243.749 201.762 244.11 201.27C244.47 200.779 244.728 200.22 244.866 199.626C245.004 199.032 245.021 198.417 244.914 197.817C244.672 196.468 244.693 195.177 245.325 194.385Z" fill="#373F45"/>
<rect x="301.677" y="224.663" width="16.2939" height="16.2939" transform="rotate(-12.8526 301.677 224.663)" fill="#7562E8"/>
<path d="M307.252 227.081C306.876 227.894 306.327 228.615 305.642 229.193C304.958 229.77 304.155 230.191 303.291 230.425C302.426 230.659 301.521 230.701 300.639 230.547C299.756 230.393 298.918 230.048 298.184 229.535L279.219 239.365L280.057 231.015L296.87 220.61C297.813 219.433 299.155 218.643 300.641 218.39C302.128 218.136 303.655 218.437 304.935 219.234C306.215 220.032 307.157 221.271 307.584 222.718C308.011 224.164 307.893 225.716 307.252 227.081H307.252Z" fill="#FFB8B8"/>
</g>
<path d="M198.28 137.556L204.164 132.125L207.332 136.651L214.122 129.862L220.911 127.599" stroke="#7562E8" stroke-width="0.905216"/>
<circle cx="213.669" cy="130.314" r="0.905216" fill="#090909"/>
<circle cx="207.332" cy="136.651" r="0.905216" fill="black"/>
<circle cx="203.712" cy="132.125" r="0.905216" fill="black"/>
<circle cx="198.28" cy="137.556" r="0.905216" fill="white"/>
<circle cx="220.911" cy="127.599" r="0.905216" fill="#222222"/>
<path d="M107.378 75.3185C107.777 74.8387 108.27 74.454 108.858 74.1643C109.456 73.8747 110.067 73.7298 110.692 73.7298C111.325 73.7298 111.877 73.8249 112.348 74.015C112.828 74.196 113.181 74.3906 113.407 74.5988C113.633 74.798 113.747 74.9564 113.747 75.0741C113.747 75.1918 113.679 75.314 113.543 75.4407C113.407 75.5674 113.271 75.6308 113.136 75.6308C113.108 75.6308 113.041 75.5765 112.932 75.4679C112.823 75.3502 112.692 75.228 112.538 75.1012C112.384 74.9655 112.149 74.8433 111.832 74.7346C111.524 74.6169 111.18 74.5581 110.8 74.5581C110.112 74.5581 109.492 74.7708 108.94 75.1963C108.397 75.6217 107.967 76.1739 107.65 76.8528C107.016 78.2378 106.7 79.6726 106.7 81.1571C106.7 82.5693 107.134 83.6193 108.003 84.3073C108.456 84.6694 109.021 84.8504 109.7 84.8504C110.379 84.8504 111.008 84.6286 111.588 84.1851C112.176 83.7325 112.516 83.1758 112.606 82.515L112.891 80.2881H109.469C109.234 80.2881 109.116 80.1478 109.116 79.8672C109.116 79.7405 109.153 79.6364 109.225 79.5549C109.297 79.4734 109.388 79.4327 109.497 79.4327H113.611C113.891 79.4327 114.032 79.5549 114.032 79.7993C114.032 79.8717 113.805 81.732 113.353 85.38C113.335 85.5339 113.285 85.6334 113.203 85.6787C113.122 85.733 112.995 85.7602 112.823 85.7602C112.434 85.7602 112.239 85.647 112.239 85.4207C112.239 85.3845 112.28 85.1175 112.362 84.6196C111.628 85.38 110.678 85.7602 109.51 85.7602C108.18 85.7602 107.197 85.3347 106.564 84.4838C105.93 83.6329 105.613 82.5014 105.613 81.0892C105.613 79.5594 105.867 78.1926 106.374 76.9886C106.645 76.3459 106.98 75.7892 107.378 75.3185ZM119.226 78.6859C120.068 78.6859 120.72 78.9801 121.181 79.5685C121.652 80.1569 121.887 80.8765 121.887 81.7274C121.887 82.8499 121.552 83.8049 120.883 84.5924C120.222 85.3709 119.362 85.7602 118.303 85.7602C117.461 85.7602 116.809 85.475 116.347 84.9047C115.895 84.3254 115.659 83.6103 115.641 82.7594C115.641 81.7727 115.917 80.8675 116.47 80.0437C116.75 79.6364 117.126 79.3105 117.597 79.0661C118.076 78.8126 118.619 78.6859 119.226 78.6859ZM117.787 80.0301C117.406 80.356 117.135 80.7498 116.972 81.2115C116.809 81.6641 116.728 82.1891 116.728 82.7865C116.728 83.3749 116.868 83.8773 117.149 84.2937C117.429 84.7101 117.882 84.9183 118.506 84.9183C119.14 84.9183 119.688 84.6151 120.149 84.0086C120.611 83.4021 120.842 82.7186 120.842 81.9583C120.842 81.1979 120.697 80.605 120.407 80.1795C120.118 79.745 119.701 79.5277 119.158 79.5277C118.624 79.5277 118.167 79.6952 117.787 80.0301ZM123.909 83.8999C123.909 84.1715 124 84.4023 124.181 84.5924C124.371 84.7735 124.62 84.864 124.928 84.864C125.489 84.864 125.964 84.5834 126.353 84.0221C126.743 83.4519 126.996 82.8092 127.114 82.094C125.955 82.1846 125.131 82.3837 124.643 82.6915C124.154 82.9993 123.909 83.4021 123.909 83.8999ZM128.404 80.2474C128.404 80.4918 128.318 81.0983 128.146 82.0669C127.983 83.0264 127.901 83.6872 127.901 84.0493C127.901 84.4114 127.924 84.7101 127.969 84.9455C128.024 85.1808 128.051 85.3257 128.051 85.38C128.051 85.4886 127.96 85.5791 127.779 85.6515C127.598 85.724 127.426 85.7602 127.263 85.7602C127.064 85.7602 126.965 85.3528 126.965 84.5381V84.1851C126.702 84.7011 126.353 85.0948 125.919 85.3664C125.484 85.6289 125.027 85.7602 124.548 85.7602C124.068 85.7602 123.66 85.6153 123.326 85.3257C123 85.036 122.837 84.6286 122.837 84.1036C122.837 83.3523 123.181 82.7186 123.869 82.2027C124.566 81.6867 125.706 81.3789 127.29 81.2793C127.336 81.0078 127.358 80.7272 127.358 80.4375C127.358 79.8763 126.942 79.5956 126.109 79.5956C125.693 79.5956 125.267 79.6816 124.833 79.8536C124.407 80.0256 124.186 80.1116 124.167 80.1116C124.05 80.1116 123.955 80.0437 123.882 79.9079C123.81 79.7631 123.774 79.6137 123.774 79.4599C123.774 79.306 124.054 79.1385 124.615 78.9575C125.177 78.7764 125.733 78.6859 126.286 78.6859C126.838 78.6859 127.327 78.8126 127.752 79.0661C128.187 79.3105 128.404 79.7043 128.404 80.2474ZM130.427 85.7602C130.291 85.7602 130.196 85.7421 130.142 85.7059C130.087 85.6696 130.06 85.5972 130.06 85.4886L131.445 73.8792C131.481 73.6438 131.658 73.5262 131.975 73.5262C132.3 73.5262 132.463 73.6212 132.463 73.8113L131.065 85.4207C131.038 85.647 130.825 85.7602 130.427 85.7602ZM137.028 83.9135C137.028 84.4023 136.837 84.8323 136.457 85.2035C136.077 85.5746 135.593 85.7602 135.004 85.7602C134.416 85.7602 133.9 85.6606 133.457 85.4614C133.013 85.2623 132.791 85.0858 132.791 84.9319C132.791 84.778 132.823 84.6332 132.886 84.4974C132.959 84.3526 133.058 84.2801 133.185 84.2801C133.194 84.2801 133.266 84.3344 133.402 84.4431C133.547 84.5426 133.751 84.6467 134.013 84.7554C134.276 84.864 134.552 84.9183 134.841 84.9183C135.131 84.9183 135.394 84.8459 135.629 84.7011C135.873 84.5562 135.996 84.348 135.996 84.0765C135.996 83.7958 135.91 83.5424 135.738 83.3161C135.575 83.0807 135.371 82.8725 135.127 82.6915C134.882 82.5014 134.638 82.3113 134.393 82.1212C134.149 81.922 133.941 81.6867 133.769 81.4151C133.606 81.1345 133.524 80.8358 133.524 80.519C133.524 80.0301 133.705 79.6047 134.068 79.2426C134.439 78.8715 134.878 78.6859 135.385 78.6859C135.892 78.6859 136.299 78.7538 136.607 78.8896C136.914 79.0163 137.068 79.1521 137.068 79.2969C137.068 79.4418 137.032 79.5821 136.96 79.7178C136.896 79.8536 136.81 79.9215 136.702 79.9215C136.693 79.9215 136.638 79.8898 136.539 79.8265C136.222 79.6273 135.892 79.5277 135.548 79.5277C135.204 79.5277 134.941 79.6092 134.76 79.7722C134.588 79.926 134.502 80.1297 134.502 80.3832C134.502 80.6366 134.588 80.872 134.76 81.0892C134.932 81.3065 135.14 81.5102 135.385 81.7003C135.638 81.8904 135.887 82.0895 136.131 82.2977C136.385 82.4969 136.598 82.7367 136.77 83.0174C136.942 83.298 137.028 83.5967 137.028 83.9135ZM142.884 83.8999C142.884 84.1715 142.975 84.4023 143.156 84.5924C143.346 84.7735 143.595 84.864 143.903 84.864C144.464 84.864 144.939 84.5834 145.329 84.0221C145.718 83.4519 145.971 82.8092 146.089 82.094C144.93 82.1846 144.107 82.3837 143.618 82.6915C143.129 82.9993 142.884 83.4021 142.884 83.8999ZM147.379 80.2474C147.379 80.4918 147.293 81.0983 147.121 82.0669C146.958 83.0264 146.876 83.6872 146.876 84.0493C146.876 84.4114 146.899 84.7101 146.944 84.9455C146.999 85.1808 147.026 85.3257 147.026 85.38C147.026 85.4886 146.935 85.5791 146.754 85.6515C146.573 85.724 146.401 85.7602 146.238 85.7602C146.039 85.7602 145.94 85.3528 145.94 84.5381V84.1851C145.677 84.7011 145.329 85.0948 144.894 85.3664C144.46 85.6289 144.002 85.7602 143.523 85.7602C143.043 85.7602 142.636 85.6153 142.301 85.3257C141.975 85.036 141.812 84.6286 141.812 84.1036C141.812 83.3523 142.156 82.7186 142.844 82.2027C143.541 81.6867 144.681 81.3789 146.265 81.2793C146.311 81.0078 146.333 80.7272 146.333 80.4375C146.333 79.8763 145.917 79.5956 145.084 79.5956C144.668 79.5956 144.242 79.6816 143.808 79.8536C143.382 80.0256 143.161 80.1116 143.142 80.1116C143.025 80.1116 142.93 80.0437 142.857 79.9079C142.785 79.7631 142.749 79.6137 142.749 79.4599C142.749 79.306 143.029 79.1385 143.591 78.9575C144.152 78.7764 144.708 78.6859 145.261 78.6859C145.813 78.6859 146.302 78.8126 146.727 79.0661C147.162 79.3105 147.379 79.7043 147.379 80.2474ZM153.991 80.7769L154.018 80.5733C154.018 79.9125 153.611 79.5821 152.796 79.5821C152.126 79.5821 151.583 79.8898 151.167 80.5054C150.75 81.1119 150.479 81.9175 150.352 82.9223L150.04 85.4207C150.013 85.647 149.8 85.7602 149.402 85.7602C149.266 85.7602 149.171 85.7421 149.117 85.7059C149.062 85.6696 149.035 85.5972 149.035 85.4886L149.809 79.0254C149.836 78.799 150.013 78.6859 150.339 78.6859C150.664 78.6859 150.827 78.7764 150.827 78.9575L150.705 79.9079H150.787C151.348 79.0932 152.063 78.6859 152.932 78.6859C153.62 78.6859 154.145 78.8488 154.507 79.1747C154.878 79.4915 155.064 79.9306 155.064 80.4918C155.064 80.5733 154.856 82.2162 154.439 85.4207C154.412 85.647 154.19 85.7602 153.774 85.7602C153.539 85.7602 153.421 85.6696 153.421 85.4886L153.991 80.7769ZM161.939 82.7594C161.903 83.1486 161.885 83.5107 161.885 83.8456C161.885 84.1715 161.925 84.4974 162.007 84.8233C162.088 85.1491 162.129 85.3347 162.129 85.38C162.129 85.4886 162.043 85.5791 161.871 85.6515C161.699 85.724 161.559 85.7602 161.45 85.7602C161.342 85.7602 161.26 85.7194 161.206 85.638C161.161 85.5565 161.12 85.4479 161.084 85.3121C161.056 85.1672 161.034 85.0315 161.016 84.9047C161.007 84.769 160.993 84.6286 160.975 84.4838C160.966 84.3299 160.957 84.2303 160.948 84.1851C160.74 84.6739 160.405 85.0586 159.943 85.3392C159.49 85.6199 158.993 85.7602 158.449 85.7602C157.906 85.7602 157.426 85.552 157.01 85.1356C156.603 84.7192 156.399 84.1081 156.399 83.3025C156.399 82.4335 156.607 81.6324 157.024 80.8992C157.268 80.4737 157.571 80.1026 157.933 79.7857C158.305 79.4599 158.789 79.1973 159.386 78.9982C159.984 78.79 160.658 78.6859 161.409 78.6859L162.02 73.8385C162.03 73.6303 162.238 73.5262 162.645 73.5262C162.899 73.5262 163.025 73.6303 163.025 73.8385L161.939 82.7594ZM160.989 79.5277C159.993 79.5277 159.165 79.8853 158.504 80.6004C157.843 81.3156 157.512 82.1755 157.512 83.1803C157.512 83.6601 157.626 84.0629 157.852 84.3888C158.078 84.7056 158.409 84.864 158.843 84.864C160.056 84.864 160.803 83.7234 161.084 81.4423L161.314 79.5685C161.251 79.5413 161.142 79.5277 160.989 79.5277ZM171.831 73.7298C172.501 73.7298 173.121 73.8928 173.692 74.2187C174.262 74.5445 174.547 74.8659 174.547 75.1827C174.547 75.4905 174.42 75.6444 174.167 75.6444C174.004 75.6444 173.723 75.4679 173.325 75.1148C173.171 74.979 172.949 74.8568 172.66 74.7482C172.37 74.6396 172.049 74.5853 171.696 74.5853C171.026 74.5853 170.483 74.7708 170.066 75.142C169.659 75.5041 169.455 75.9974 169.455 76.622C169.455 77.3009 169.98 78.0251 171.03 78.7945C171.465 79.1113 171.899 79.4418 172.334 79.7857C172.768 80.1297 173.139 80.5371 173.447 81.0078C173.755 81.4785 173.909 81.9809 173.909 82.515C173.909 83.5198 173.578 84.3118 172.918 84.8912C172.266 85.4705 171.424 85.7602 170.392 85.7602C169.36 85.7602 168.518 85.4795 167.867 84.9183C167.649 84.7373 167.459 84.5155 167.296 84.253C167.142 83.9814 167.065 83.7506 167.065 83.5605C167.065 83.1893 167.21 83.0038 167.5 83.0038C167.599 83.0038 167.681 83.04 167.744 83.1124C167.817 83.1758 167.894 83.298 167.975 83.479C168.066 83.6601 168.134 83.7868 168.179 83.8592C168.659 84.5472 169.365 84.8912 170.297 84.8912C171.039 84.8912 171.646 84.6784 172.117 84.253C172.587 83.8185 172.823 83.2572 172.823 82.5693C172.823 81.8542 172.298 81.1028 171.248 80.3153C170.813 79.9894 170.374 79.6545 169.93 79.3105C169.496 78.9665 169.125 78.5682 168.817 78.1156C168.509 77.654 168.355 77.1651 168.355 76.6492C168.355 75.7258 168.681 75.0107 169.333 74.5038C169.994 73.9878 170.827 73.7298 171.831 73.7298ZM176.254 78.876H177.055L177.299 76.7849C177.317 76.6492 177.403 76.5405 177.557 76.4591C177.711 76.3776 177.861 76.3369 178.005 76.3369C178.15 76.3369 178.241 76.3459 178.277 76.364C178.313 76.3821 178.331 76.4274 178.331 76.4998L178.046 78.876H179.309C179.517 78.876 179.621 79.0118 179.621 79.2833C179.621 79.401 179.581 79.5142 179.499 79.6228C179.418 79.7314 179.323 79.7857 179.214 79.7857H177.924L177.571 82.7594C177.526 83.1215 177.503 83.4745 177.503 83.8185C177.503 84.1625 177.539 84.4974 177.612 84.8233C177.693 85.1491 177.734 85.3347 177.734 85.38C177.734 85.4886 177.648 85.5791 177.476 85.6515C177.313 85.724 177.155 85.7602 177.001 85.7602C176.856 85.7602 176.734 85.5836 176.634 85.2306C176.544 84.8685 176.498 84.4974 176.498 84.1172C176.498 83.728 176.525 83.2753 176.58 82.7594L176.933 79.7857H176.159C175.96 79.7857 175.86 79.6545 175.86 79.392C175.86 79.2652 175.896 79.1476 175.969 79.0389C176.05 78.9303 176.145 78.876 176.254 78.876ZM183.944 79.5821C183.283 79.5821 182.736 79.9125 182.301 80.5733C181.876 81.225 181.609 82.008 181.5 82.9223L181.188 85.4207C181.16 85.647 180.948 85.7602 180.549 85.7602C180.414 85.7602 180.319 85.7421 180.264 85.7059C180.21 85.6696 180.183 85.5972 180.183 85.4886L180.957 79.0254C180.984 78.799 181.16 78.6859 181.486 78.6859C181.812 78.6859 181.975 78.7764 181.975 78.9575L181.839 79.9758H181.907C182.161 79.5594 182.491 79.2245 182.899 78.971C183.306 78.7176 183.731 78.5909 184.175 78.5909C184.437 78.5909 184.569 78.6859 184.569 78.876C184.569 79.0661 184.528 79.2154 184.446 79.3241C184.329 79.4961 184.161 79.5821 183.944 79.5821ZM185.953 83.8999C185.953 84.1715 186.043 84.4023 186.225 84.5924C186.415 84.7735 186.664 84.864 186.971 84.864C187.533 84.864 188.008 84.5834 188.397 84.0221C188.786 83.4519 189.04 82.8092 189.157 82.094C187.999 82.1846 187.175 82.3837 186.686 82.6915C186.197 82.9993 185.953 83.4021 185.953 83.8999ZM190.447 80.2474C190.447 80.4918 190.361 81.0983 190.189 82.0669C190.026 83.0264 189.945 83.6872 189.945 84.0493C189.945 84.4114 189.968 84.7101 190.013 84.9455C190.067 85.1808 190.094 85.3257 190.094 85.38C190.094 85.4886 190.004 85.5791 189.823 85.6515C189.642 85.724 189.47 85.7602 189.307 85.7602C189.108 85.7602 189.008 85.3528 189.008 84.5381V84.1851C188.746 84.7011 188.397 85.0948 187.963 85.3664C187.528 85.6289 187.071 85.7602 186.591 85.7602C186.111 85.7602 185.704 85.6153 185.369 85.3257C185.043 85.036 184.88 84.6286 184.88 84.1036C184.88 83.3523 185.224 82.7186 185.912 82.2027C186.609 81.6867 187.75 81.3789 189.334 81.2793C189.379 81.0078 189.402 80.7272 189.402 80.4375C189.402 79.8763 188.985 79.5956 188.153 79.5956C187.736 79.5956 187.311 79.6816 186.876 79.8536C186.451 80.0256 186.229 80.1116 186.211 80.1116C186.093 80.1116 185.998 80.0437 185.926 79.9079C185.853 79.7631 185.817 79.6137 185.817 79.4599C185.817 79.306 186.098 79.1385 186.659 78.9575C187.22 78.7764 187.777 78.6859 188.329 78.6859C188.881 78.6859 189.37 78.8126 189.796 79.0661C190.23 79.3105 190.447 79.7043 190.447 80.2474ZM192.497 78.876H193.298L193.543 76.7849C193.561 76.6492 193.647 76.5405 193.801 76.4591C193.955 76.3776 194.104 76.3369 194.249 76.3369C194.394 76.3369 194.484 76.3459 194.521 76.364C194.557 76.3821 194.575 76.4274 194.575 76.4998L194.29 78.876H195.552C195.761 78.876 195.865 79.0118 195.865 79.2833C195.865 79.401 195.824 79.5142 195.743 79.6228C195.661 79.7314 195.566 79.7857 195.457 79.7857H194.167L193.814 82.7594C193.769 83.1215 193.747 83.4745 193.747 83.8185C193.747 84.1625 193.783 84.4974 193.855 84.8233C193.937 85.1491 193.977 85.3347 193.977 85.38C193.977 85.4886 193.891 85.5791 193.719 85.6515C193.556 85.724 193.398 85.7602 193.244 85.7602C193.099 85.7602 192.977 85.5836 192.878 85.2306C192.787 84.8685 192.742 84.4974 192.742 84.1172C192.742 83.728 192.769 83.2753 192.823 82.7594L193.176 79.7857H192.402C192.203 79.7857 192.104 79.6545 192.104 79.392C192.104 79.2652 192.14 79.1476 192.212 79.0389C192.294 78.9303 192.389 78.876 192.497 78.876ZM200.622 80.2067C200.622 79.9804 200.55 79.8084 200.405 79.6907C200.269 79.564 200.088 79.5006 199.862 79.5006C199.373 79.5006 198.866 79.7269 198.341 80.1795C197.816 80.6231 197.49 81.2205 197.363 81.9718C198.205 81.9718 198.956 81.8044 199.617 81.4694C200.287 81.1345 200.622 80.7136 200.622 80.2067ZM196.209 82.7594C196.209 82.0986 196.331 81.4966 196.576 80.9535C196.82 80.4103 197.128 79.9804 197.499 79.6635C198.278 79.0118 199.083 78.6859 199.916 78.6859C200.414 78.6859 200.821 78.8081 201.138 79.0525C201.455 79.2879 201.613 79.6273 201.613 80.0709C201.613 80.8675 201.197 81.5192 200.364 82.0261C199.54 82.524 198.522 82.7729 197.309 82.7729C197.309 83.4519 197.467 83.9814 197.784 84.3616C198.101 84.7327 198.558 84.9183 199.156 84.9183C199.436 84.9183 199.708 84.8595 199.97 84.7418C200.233 84.6241 200.441 84.5019 200.595 84.3752L200.826 84.1987C200.925 84.1987 201.011 84.2666 201.084 84.4023C201.156 84.5381 201.192 84.6739 201.192 84.8097C201.192 84.9726 200.952 85.1718 200.473 85.4071C200.002 85.6425 199.545 85.7602 199.101 85.7602C198.16 85.7602 197.44 85.5022 196.942 84.9862C196.454 84.4612 196.209 83.7189 196.209 82.7594ZM206.908 79.5277C205.912 79.5277 205.084 79.8853 204.423 80.6004C203.762 81.3156 203.432 82.1755 203.432 83.1803C203.432 83.6601 203.545 84.0629 203.771 84.3888C203.998 84.7056 204.328 84.864 204.763 84.864C205.976 84.864 206.722 83.7234 207.003 81.4423L207.234 79.5685C207.17 79.5413 207.062 79.5277 206.908 79.5277ZM206.623 84.6332C206.324 85.0405 206.007 85.3302 205.672 85.5022C205.337 85.6742 204.898 85.7602 204.355 85.7602C203.821 85.7602 203.346 85.552 202.929 85.1356C202.522 84.7192 202.318 84.1081 202.318 83.3025C202.318 82.4335 202.527 81.6324 202.943 80.8992C203.187 80.4737 203.491 80.1026 203.853 79.7857C204.224 79.4599 204.708 79.1973 205.306 78.9982C205.903 78.79 206.546 78.6859 207.234 78.6859C207.931 78.6859 208.279 78.885 208.279 79.2833L207.329 86.8057C207.193 87.8919 206.89 88.7338 206.419 89.3312C205.957 89.9287 205.215 90.2274 204.192 90.2274C203.803 90.2274 203.414 90.1776 203.025 90.078C202.635 89.9785 202.332 89.8653 202.115 89.7386C201.898 89.6119 201.789 89.4851 201.789 89.3584C201.789 89.2407 201.825 89.0914 201.898 88.9103C201.979 88.7383 202.079 88.6523 202.196 88.6523C202.205 88.6523 202.242 88.675 202.305 88.7202C202.377 88.7745 202.472 88.8334 202.59 88.8967C202.708 88.9692 202.843 89.037 202.997 89.1004C203.359 89.2724 203.785 89.3584 204.274 89.3584C204.772 89.3584 205.174 89.2271 205.482 88.9646C205.79 88.7021 206.03 88.2405 206.202 87.5796C206.374 86.9279 206.514 85.9457 206.623 84.6332ZM215.128 78.6859C215.255 78.6859 215.337 78.704 215.373 78.7402C215.418 78.7764 215.441 78.8488 215.441 78.9575L213.295 86.8057C212.843 88.4622 212.159 89.5168 211.245 89.9694C210.883 90.1414 210.467 90.2274 209.996 90.2274C209.525 90.2274 209.072 90.1278 208.638 89.9287C208.194 89.7295 207.973 89.5485 207.973 89.3856C207.973 89.2588 208.036 89.1185 208.163 88.9646C208.289 88.8198 208.412 88.7474 208.529 88.7474L208.706 88.8832C208.824 88.9827 209 89.0778 209.235 89.1683C209.48 89.2679 209.792 89.3177 210.172 89.3177C210.562 89.3177 210.901 89.209 211.191 88.9918C211.779 88.5482 212.367 87.0546 212.956 84.511C212.241 85.3438 211.625 85.7602 211.109 85.7602C210.829 85.7602 210.666 85.5882 210.62 85.2442L209.765 78.9982C209.765 78.79 209.923 78.6859 210.24 78.6859C210.439 78.6859 210.571 78.7221 210.634 78.7945C210.706 78.8579 210.756 78.9937 210.783 79.2019L211.544 84.8097C211.879 84.7011 212.268 84.3707 212.711 83.8185C213.155 83.2572 213.467 82.6326 213.648 81.9447L214.422 79.0254C214.486 78.799 214.721 78.6859 215.128 78.6859Z" fill="black"/>
<defs>
<filter id="filter0_d_13_300" x="200.09" y="154.755" width="136.485" height="251.416" filterUnits="userSpaceOnUse" color-interpolation-filters="sRGB">
<feFlood flood-opacity="0" result="BackgroundImageFix"/>
<feColorMatrix in="SourceAlpha" type="matrix" values="0 0 0 0 0 0 0 0 0 0 0 0 0 0 0 0 0 0 127 0" result="hardAlpha"/>
<feOffset dx="3.62087" dy="-4.52608"/>
<feGaussianBlur stdDeviation="5.88391"/>
<feComposite in2="hardAlpha" operator="out"/>
<feColorMatrix type="matrix" values="0 0 0 0 0 0 0 0 0 0 0 0 0 0 0 0 0 0 0.25 0"/>
<feBlend mode="normal" in2="BackgroundImageFix" result="effect1_dropShadow_13_300"/>
<feBlend mode="normal" in="SourceGraphic" in2="effect1_dropShadow_13_300" result="shape"/>
</filter>
<linearGradient id="paint0_linear_13_300" x1="45.8283" y1="-69.5105" x2="687.855" y2="-388.013" gradientUnits="userSpaceOnUse">
<stop stop-color="#FFF5FB"/>
<stop offset="1" stop-color="#FAD6EB" stop-opacity="0.31"/>
</linearGradient>
</defs>
</svg>
